<svg width="124" height="124" fill="none" xmlns="http://www.w3.org/2000/svg"><circle cx="62" cy="62" r="62" fill="#000"/><circle cx="62" cy="61" r="37.5" stroke="#fff" stroke-width="3"/><path d="M72.77 49.26v.35h12.012c2.544 0 4.601 2.025 4.601 4.496v19.382c0 .692-.575 1.265-1.3 1.265h-3.83l-.084.23c-.631 1.743-2.335 3-4.338 3s-3.707-1.257-4.338-3l-.084-.23H62.688l-.084.23c-.632 1.743-2.335 3-4.338 3a4.642 4.642 0 01-3.07-1.15l-.231-.203-.23.202a4.642 4.642 0 01-3.07 1.151c-2.004 0-3.707-1.257-4.339-3l-.084-.23H38.461a1.294 1.294 0 01-1.26-.95h0l-3.41-12.922s0 0 0 0c-.07-.261-.05-.538.054-.788l-.323-.135.323.135 6.711-16.152a1.301 1.301 0 011.206-.791H74.77c.725 0 1.3.574 1.3 1.265 0 .692-.575 1.265-1.3 1.265h-2v3.58zm13.662 10.041h.35V54.106c0-1.09-.904-1.965-2-1.965H79.481V59.3h6.951zm-16.614 3.23h.35v-16.85h-1.06l-.082.236-5.5 16.152-.159.463h6.452zm-14.545-.462l-.158.463H60.627l.081-.237 5.502-16.152.157-.463h-5.511l-.081.237-5.502 16.152zm-8.252 0l-.158.463H52.375l.081-.237 5.502-16.152.157-.463h-5.511l-.082.237-5.5 16.152zm-10.56-1.523l-.045.109.03.114 2.955 11.193.069.26H40.822l.082-.236 8.802-25.843.157-.463H42.64l-.09.216-6.087 14.65zm9.791 4.516h-.25l-.081.237-2.2 6.46-.158.464h3.679l.084-.231c.632-1.743 2.335-3 4.338-3 1.18 0 2.255.436 3.07 1.151l.231.203.23-.203a4.642 4.642 0 013.07-1.15c2.004 0 3.707 1.256 4.339 2.999l.084.23h7.481V65.063H46.251zm14.014 8.428v-.002-.002 0c-.001-1.09-.905-1.963-2-1.963-1.096 0-2 .874-2 1.965 0 1.09.904 1.965 2 1.965 1.095 0 1.999-.873 2-1.963zm23.903-1.498l.084.23h2.529v-3.93h-2c-.725 0-1.3-.573-1.3-1.265 0-.691.575-1.265 1.3-1.265h2v-3.93H78.18c-.725 0-1.3-.574-1.3-1.265V52.14h-4.11V72.223H75.408l.084-.231c.631-1.743 2.335-3 4.338-3s3.707 1.257 4.338 3zm-34.505 1.496c0 1.09.904 1.965 2 1.965s2-.874 2-1.965c0-1.091-.904-1.965-2-1.965s-2 .874-2 1.965zm28.166 0c0 1.09.905 1.965 2 1.965 1.097 0 2.001-.874 2.001-1.965 0-1.091-.904-1.965-2-1.965s-2 .874-2 1.965z" fill="#fff" stroke="#000" stroke-width=".7"/><path d="M87.567 34.133L35.133 86.567" stroke="#fff" stroke-width="3"/></svg>