<svg width="124" height="124" fill="none" xmlns="http://www.w3.org/2000/svg"><circle cx="62" cy="62" r="62" fill="#000"/><g clip-path="url(#clip0)" fill="#fff" stroke="#000" stroke-width=".5"><path d="M55.365 51.69l-.808.466H79.93c1.029 0 1.835.89 1.734 1.915l-3.985 40.11a1.742 1.742 0 01-1.733 1.57H44.07a1.742 1.742 0 01-1.734-1.571l-3.244-32.688-.039-.385-.335.194-1.746 1.008a1.742 1.742 0 01-2.38-.638L30.61 54.77h0a1.743 1.743 0 01.637-2.38h0l12.078-6.973.216-.125-.125-.216-2.988-5.176h0a1.742 1.742 0 01.637-2.38h0l13.803-7.969a1.742 1.742 0 012.38.638l2.988 5.176.125.216.216-.125 12.077-6.972-.125-.216.125.216a1.742 1.742 0 012.38.637l3.984 6.902.214-.124-.214.123c.481.834.195 1.9-.637 2.38l.125.217-.125-.217L55.365 51.69zM44.532 39.542l-.217.124.125.217 1.992 3.45.125.217.217-.125 10.352-5.976.216-.125-.125-.217-1.992-3.45-.125-.217-.217.125-10.351 5.977zm-7.917 18.661l.125.217.216-.125 37.956-21.914.217-.125-.125-.217-1.992-3.45-.125-.217-.217.125-37.956 21.914-.217.125.125.217 1.993 3.45zm11.974-2.562h-.067l-.058.033-5.958 3.44-.14.08.016.161 2.44 24.584.022.225h4.514l-.027-.275-2.173-21.85a1.742 1.742 0 011.561-1.905h0a1.74 1.74 0 011.906 1.56l2.213 22.245.022.225h5.406V61.867a1.742 1.742 0 013.484 0v22.297h5.406l.022-.225 2.213-22.244a1.742 1.742 0 013.467.345l-2.173 21.85-.027.274h4.515l.022-.225 2.784-28.023.027-.275H48.59zm-2.963 36.4l.023.225H74.367l.022-.226.41-4.117.026-.275H45.19l.028.275.408 4.117zM87.899 40.203h3.984a1.742 1.742 0 010 3.485H87.9a1.742 1.742 0 110-3.485zM85.146 48.682h0l3.985 3.985c.68.68.68 1.783 0 2.464h0c-.68.68-1.784.68-2.464 0h0l-3.985-3.985a1.742 1.742 0 112.464-2.464zM85.146 35.209h0c-.68.68-1.783.68-2.464 0h0a1.742 1.742 0 010-2.464l3.985-3.984c.68-.68 1.783-.68 2.464 0h0c.68.68.68 1.783 0 2.463l-3.985 3.985z"/></g><defs><clipPath id="clip0"><path fill="#fff" transform="translate(28 28)" d="M0 0h68v68H0z"/></clipPath></defs></svg>