<svg width="124" height="124" fill="none" xmlns="http://www.w3.org/2000/svg"><circle cx="62" cy="62" r="62" fill="#000"/><path d="M93.771 80.271l-9.35-17.454-3.418 1.831 7.824 14.602H70.75v-3.875L63 81.187l7.75 5.812v-3.874h21.313a1.939 1.939 0 001.708-2.854zM47.556 59.873l3.341 1.802-1.436-9.58-8.795 4.061 3.478 1.876-11.914 22.24a1.939 1.939 0 001.708 2.853h25.188V79.25H37.174l10.382-19.377zM71.835 55.3l8.54 4.575 2-9.479-3.689 1.717-13.979-26.091A1.978 1.978 0 0063 25a1.97 1.97 0 00-1.71 1.024L49.875 47.332l3.417 1.832 9.706-18.124 12.168 22.71-3.33 1.55z" fill="#fff"/></svg>