<svg width="124" height="124" fill="none" xmlns="http://www.w3.org/2000/svg"><circle cx="62" cy="62" r="62" fill="#000"/><path d="M96.853 75.09L85.207 31.545a4.198 4.198 0 00-4.1-3.146 4.198 4.198 0 00-4.1 3.147L67.45 67.273a10.412 10.412 0 00-2.36-.99 20.916 20.916 0 001.69-8.229c0-11.518-9.372-20.889-20.89-20.889-11.52 0-20.891 9.37-20.891 20.89 0 10.967 8.497 19.987 19.254 20.824v13.45h-5.409a1.636 1.636 0 000 3.272h45.096a1.636 1.636 0 000-3.272h-1.805V80.432h10.618c1.33 0 2.557-.606 3.366-1.66a4.214 4.214 0 00.733-3.682zM45.89 52.24c-.903 0-1.636.733-1.636 1.636v12.215l-3.93-3.93a1.636 1.636 0 00-2.315 2.314l6.245 6.245v4.874c-8.95-.828-15.981-8.378-15.981-17.54 0-9.713 7.903-17.616 17.618-17.616 9.714 0 17.616 7.903 17.616 17.616 0 2.733-.637 5.427-1.846 7.851-4.919.273-8.942 3.951-9.751 8.71a17.431 17.431 0 01-4.383.98v-5.552V63.755l4.563-4.564a1.636 1.636 0 00-2.314-2.314l-2.25 2.25v-5.25c0-.905-.732-1.637-1.636-1.637zm14.887 40.089h-13.25V78.88a20.701 20.701 0 004.369-.814 10.513 10.513 0 008.88 8.699v5.564zM62.25 72.84c-.814 0-1.473.66-1.473 1.473v2.592l-.578-.578a1.473 1.473 0 00-2.083 2.083l2.661 2.66v2.375c-3.276-.682-5.746-3.591-5.746-7.067 0-3.98 3.239-7.218 7.219-7.218.113 0 .366.01.38.01 3.805.198 6.838 3.356 6.838 7.208 0 3.476-2.47 6.385-5.746 7.067v-2.984V74.314c0-.813-.659-1.473-1.472-1.473zM78.863 92.33h-15.14v-5.564c3.707-.524 6.797-2.99 8.203-6.334h6.937V92.33zm14.662-15.55a.954.954 0 01-.77.38h-10.62v-3.975-4.982l3.62-3.618a1.637 1.637 0 00-2.315-2.315l-1.304 1.305v-4.555a1.636 1.636 0 00-3.273 0v10.214l-2.67-2.67a1.636 1.636 0 00-2.314 2.314l4.984 4.985v3.297h-6.154a10.442 10.442 0 00-2.485-7.586l9.944-37.181c.174-.65.714-.72.939-.72.224 0 .765.07.939.72l11.646 43.544a.955.955 0 01-.167.843zM92.898 92.329H90.29a1.636 1.636 0 000 3.272h2.608a1.636 1.636 0 000-3.272z" fill="#fff"/></svg>