<svg width="124" height="124" fill="none" xmlns="http://www.w3.org/2000/svg"><circle cx="62" cy="62" r="62" fill="#000"/><path d="M78.154 65.961H67.23v2.731h10.923v-2.73zM78.154 74.154H67.23v2.73h10.923v-2.73zM61.81 35.24a2.048 2.048 0 100-4.097 2.048 2.048 0 000 4.097z" fill="#fff"/><path d="M89.077 41.384a5.461 5.461 0 00-5.462-5.462h-7.582c-1.011-1.123-2.31-1.983-3.803-2.412a3.76 3.76 0 01-2.587-2.587 8.196 8.196 0 00-15.748 0 3.764 3.764 0 01-2.591 2.588c-1.492.43-2.79 1.288-3.8 2.411h-7.582a5.461 5.461 0 00-5.461 5.462v49.154A5.462 5.462 0 0039.922 96h43.693a5.462 5.462 0 005.462-5.462V41.384zm-40.962-.044a5.492 5.492 0 013.944-5.205 6.48 6.48 0 004.46-4.458 5.485 5.485 0 015.25-3.947 5.485 5.485 0 015.25 3.948 6.473 6.473 0 004.456 4.456 5.485 5.485 0 013.948 5.25v2.73H48.115V41.34zm35.5 51.93H39.922a2.734 2.734 0 01-2.73-2.732V41.384a2.734 2.734 0 012.73-2.73h5.93a8.169 8.169 0 00-.467 2.664v5.528h32.769v-5.462a8.17 8.17 0 00-.472-2.73h5.933a2.734 2.734 0 012.731 2.73v49.154a2.734 2.734 0 01-2.73 2.731z" fill="#fff"/><path d="M67.2 54.882L55.615 66.465l-2.925-2.926-1.934 1.934 4.857 4.857 3.424-3.424v7.247H48.115V60.5h8.192l2.73-2.73H45.385v19.115h16.385v-12.71l7.361-7.36-1.93-1.932z" fill="#fff"/></svg>