<svg width="124" height="124" fill="none" xmlns="http://www.w3.org/2000/svg"><circle cx="62" cy="62" r="62" fill="#000"/><path d="M94.499 59.672h-9.83V28.328a1.328 1.328 0 00-2.267-.939l-3.763 3.762-3.762-3.762a1.328 1.328 0 00-1.878 0l-3.763 3.762-3.762-3.762a1.328 1.328 0 00-1.878 0l-3.762 3.762-3.763-3.762a1.328 1.328 0 00-1.878 0l-3.762 3.762-3.762-3.762a1.328 1.328 0 00-1.879 0l-3.762 3.762-3.762-3.762a1.327 1.327 0 00-2.266.974v59.731A6.914 6.914 0 0041.906 95h47.015a6.914 6.914 0 006.906-6.906V61c0-.734-.595-1.328-1.328-1.328zM41.906 92.344a4.255 4.255 0 01-4.25-4.25V31.536l2.433 2.433c.519.518 1.36.518 1.878 0l3.763-3.763 3.762 3.763c.519.518 1.36.518 1.878 0l3.763-3.763 3.762 3.763c.519.518 1.36.518 1.878 0l3.762-3.763 3.763 3.763c.519.518 1.36.518 1.878 0l3.763-3.763L77.7 33.97c.519.518 1.36.518 1.878 0l2.434-2.434V61l.002.036v27.058a6.87 6.87 0 001.469 4.25H41.906zm51.264-4.25a4.255 4.255 0 01-4.25 4.25 4.255 4.255 0 01-4.25-4.25V62.328h8.5v25.766z" fill="#fff"/><path d="M73.178 48.098h-2.589a1.328 1.328 0 100 2.656h2.589a1.328 1.328 0 000-2.656z" fill="#fff"/><path fill-rule="evenodd" clip-rule="evenodd" d="M58 42.5h4a3 3 0 013 3v.5a3 3 0 01-3 3h-2v1.5h1.5a1 1 0 110 2H60V55a1 1 0 11-2 0v-2.5h-1.5a1 1 0 110-2H58V49h-1.5a1 1 0 110-2H58v-4.5zm2 4.5h2a1 1 0 001-1v-.5a1 1 0 00-1-1h-2V47z" fill="#fff"/><path d="M49.08 48.098h-2.588a1.328 1.328 0 100 2.656h2.588a1.328 1.328 0 000-2.656zM73.85 62.86H52.81a1.328 1.328 0 000 2.656h21.04a1.328 1.328 0 100-2.656zM46.758 63.25a1.338 1.338 0 00-.939-.39c-.349 0-.692.142-.939.39-.247.246-.389.59-.389.938 0 .35.142.692.39.94.246.246.589.388.938.388.35 0 .692-.142.94-.389.246-.247.389-.59.389-.939s-.143-.692-.39-.939zM73.85 71.626H52.81a1.328 1.328 0 100 2.656h21.04a1.328 1.328 0 100-2.656zM46.758 72.015a1.338 1.338 0 00-.939-.39c-.349 0-.692.143-.939.39-.247.247-.389.59-.389.939s.142.692.39.939c.246.247.589.389.938.389.35 0 .692-.142.94-.39.246-.246.389-.589.389-.938 0-.35-.143-.692-.39-.94zM73.85 80.391H52.81a1.328 1.328 0 100 2.656h21.04a1.328 1.328 0 100-2.656zM46.758 80.78a1.338 1.338 0 00-.939-.389c-.349 0-.692.142-.939.39-.247.246-.389.589-.389.938 0 .35.142.692.39.94.246.246.589.388.938.388.35 0 .692-.142.94-.389.246-.247.389-.59.389-.939 0-.35-.143-.692-.39-.939z" fill="#fff"/></svg>