<svg width="124" height="124" fill="none" xmlns="http://www.w3.org/2000/svg"><circle cx="62" cy="62" r="62" fill="#000"/><path d="M96.566 51.503h-.962c-.936-4.75-5.739-13.116-7.865-16.659a3.798 3.798 0 00-2.148-6.933 3.798 3.798 0 00-2.148 6.933c-2.126 3.543-6.929 11.908-7.865 16.66h-.961c-.792 0-1.434.641-1.434 1.434 0 6.842 5.566 12.408 12.408 12.408C92.434 65.346 98 59.78 98 52.938c0-.793-.642-1.435-1.434-1.435zM85.59 30.78a.933.933 0 010 1.863.932.932 0 010-1.863zm-.002 6.061c2.427 4.097 6.175 10.92 7.097 14.662H78.501c.87-3.503 4.242-9.88 7.088-14.662zm.002 25.637c-4.773 0-8.738-3.524-9.432-8.106h18.865c-.694 4.582-4.66 8.106-9.433 8.106z" fill="#fff"/><path d="M74.766 85.845h-3.792v-3.643c0-.792-.642-1.434-1.434-1.434h-3.642V40.704a5.427 5.427 0 001.612-3.595l6.065-1.305A1.434 1.434 0 1072.97 33l-6.079 1.308a5.447 5.447 0 00-4.817-2.916 5.449 5.449 0 00-5.433 5.122l-15.165 3.263a3.797 3.797 0 00-6.868 2.237c0 1.3.655 2.447 1.652 3.133-2.126 3.543-6.929 11.908-7.866 16.66h-.96c-.793 0-1.435.641-1.435 1.433 0 6.842 5.567 12.409 12.409 12.409 6.842 0 12.408-5.567 12.408-12.409 0-.792-.642-1.434-1.434-1.434h-.961c-.936-4.751-5.74-13.116-7.865-16.659a3.804 3.804 0 001.612-2.584l15.067-3.243c.265.514.608.981 1.016 1.384v40.065h-3.643c-.792 0-1.434.642-1.434 1.434v3.642h-3.792c-.792 0-1.434.642-1.434 1.434v5.375c0 .792.642 1.434 1.434 1.434h25.383c.792 0 1.434-.642 1.434-1.434V87.28c0-.792-.642-1.434-1.434-1.434zM38.41 41.083a.933.933 0 010 1.863.933.933 0 010-1.863zm0 31.697c-4.773 0-8.74-3.523-9.433-8.106h18.865c-.694 4.583-4.66 8.106-9.432 8.106zm7.094-10.974H31.318c.87-3.503 4.243-9.88 7.088-14.662 2.427 4.096 6.175 10.92 7.097 14.662zM62.075 34.26a2.577 2.577 0 012.573 2.574 2.577 2.577 0 01-2.573 2.573 2.577 2.577 0 01-2.574-2.573 2.577 2.577 0 012.574-2.574zm.954 7.93v38.577H61.12V42.191a5.433 5.433 0 001.91 0zm-6.986 41.445h12.063v2.209H56.043v-2.209zm17.289 7.584H50.817v-2.507h22.515v2.507zM80.2 33a1.434 1.434 0 00-1.704-1.1l-1.046.224a1.434 1.434 0 00.604 2.805l1.045-.225A1.434 1.434 0 0080.2 33z" fill="#fff"/></svg>