<svg width="124" height="124" fill="none" xmlns="http://www.w3.org/2000/svg"><circle cx="62" cy="62" r="62" fill="#000"/><g clip-path="url(#clip0)" fill="#fff"><path d="M94.523 35.41a1.338 1.338 0 00-1.264.37l-5.598 5.712h-2.684l-2.954-3.099v-2.755l5.518-5.67c.326-.336.459-.818.35-1.277a1.36 1.36 0 00-.881-.978A13.317 13.317 0 0082.698 27c-4.398 0-8.393 2.076-10.962 5.697-2.404 3.389-3.145 7.542-2.084 11.517l-9.946 10.071-16.57-16.816v-3.3c0-.481-.25-.926-.656-1.173l-9.548-5.801a1.337 1.337 0 00-1.649.206l-3.819 3.866a1.381 1.381 0 00-.203 1.67l5.728 9.667c.244.412.683.663 1.158.664l3.258.001 16.572 16.816-9.908 10.033c-3.926-1.075-8.03-.323-11.379 2.112-3.573 2.6-5.622 6.644-5.622 11.097 0 1.493.236 2.963.704 4.365.149.45.518.789.973.896a1.34 1.34 0 001.265-.369l5.597-5.712h2.699l3.074 3.113v2.732l-5.642 5.667c-.332.334-.47.819-.364 1.28.106.462.44.835.884.986 1.386.474 2.837.713 4.312.713 4.398 0 8.392-2.075 10.96-5.693 2.405-3.39 3.147-7.546 2.086-11.52l7.958-8.058 1.823 2.005-.837.846a1.38 1.38 0 000 1.934 1.34 1.34 0 001.91 0l.758-.767 17.103 18.81.039.041a8.03 8.03 0 0011.459 0c3.157-3.199 3.157-8.403 0-11.602a1.61 1.61 0 00-.043-.04L75.18 65.67l.75-.759c.527-.533.527-1.4 0-1.933a1.339 1.339 0 00-1.91 0l-.832.842-1.983-1.844L79.2 53.88c1.137.307 2.31.463 3.498.463 7.446 0 13.502-6.133 13.502-13.671 0-1.494-.236-2.962-.704-4.366a1.355 1.355 0 00-.973-.895zM38.92 40.937a1.328 1.328 0 00-.955-.388h-3.054l-4.793-8.102 2.328-2.357 7.988 4.854v3.092c0 .362.142.709.394.965L57.797 56.22l-1.91 1.933L38.92 40.936zm34.347 26.669l18.67 17.342c2.086 2.135 2.08 5.59-.02 7.716a5.354 5.354 0 01-7.62.019L67.138 73.81l6.13-6.205zm-1.992-1.85l-5.968 6.041-1.823-2.005 5.807-5.88 1.984 1.843zm11.422-14.146a10.67 10.67 0 01-3.451-.57 1.34 1.34 0 00-1.386.329L51.134 78.429a1.379 1.379 0 00-.325 1.404c1.123 3.374.586 6.974-1.473 9.877-2.054 2.894-5.249 4.554-8.766 4.554-.395 0-.788-.022-1.177-.064l4.288-4.309c.256-.256.4-.605.4-.97v-3.868c0-.362-.143-.71-.396-.966l-3.866-3.915a1.342 1.342 0 00-.954-.4h-3.82c-.36 0-.705.146-.96.404l-4.254 4.343a11.197 11.197 0 01-.063-1.192c0-3.562 1.639-6.797 4.498-8.876 2.866-2.085 6.422-2.63 9.755-1.492a1.338 1.338 0 001.386-.33l26.727-27.06a1.38 1.38 0 00.325-1.403 10.933 10.933 0 011.47-9.874c2.055-2.897 5.25-4.558 8.769-4.558.407 0 .811.023 1.212.068l-4.2 4.316c-.248.256-.388.6-.388.96v3.867c0 .354.136.695.379.95l3.73 3.913c.255.267.606.418.972.418h3.82c.36 0 .705-.145.959-.404l4.255-4.342c.042.394.063.792.063 1.192 0 6.03-4.846 10.937-10.802 10.937z"/><path d="M68.118 54.323L54.323 68.118a1.103 1.103 0 001.559 1.559l13.795-13.795a1.102 1.102 0 10-1.56-1.559zM86.19 88.797a1.339 1.339 0 001.91-.003 1.38 1.38 0 00-.002-1.933L75.927 74.576a1.338 1.338 0 00-1.91.003c-.527.535-.525 1.4.003 1.933l12.17 12.284z"/></g><defs><clipPath id="clip0"><path fill="#fff" transform="translate(27 27)" d="M0 0h69v70H0z"/></clipPath></defs></svg>