<svg width="124" height="124" fill="none" xmlns="http://www.w3.org/2000/svg"><circle cx="62" cy="62" r="62" fill="#000"/><g clip-path="url(#clip0)" fill="#fff"><path d="M87.226 39.406L67.633 21.765a1.381 1.381 0 00-1.95.102L23.616 68.591c-.51.566-.465 1.44.102 1.95l9.275 8.35.031.062 13.183 22.833c.381.66 1.226.886 1.886.505l54.448-31.435c.66-.381.886-1.226.505-1.886L89.864 46.137a1.381 1.381 0 00-1.887-.506l-9.366 5.408 8.718-9.683c.51-.567.464-1.44-.103-1.95zm.936 9.308l11.802 20.44L47.908 99.21 36.106 78.768l6.625-3.825 7.692 13.324a1.381 1.381 0 002.392-1.381l-7.692-13.323L72.442 57.79l15.72-9.076zm-17.29 6.793l-36.39 21.01-7.89-7.105 5.121-5.688 6.642 5.936a1.382 1.382 0 001.84-2.06l-6.634-5.928 33.25-36.93 17.541 15.792-13.48 14.973z"/><path d="M68.023 31.03a1.382 1.382 0 00-1.95.103l-25.33 28.135a1.381 1.381 0 002.052 1.848l25.33-28.135c.51-.567.465-1.44-.102-1.95zM67.25 41.835l4.794-5.326a1.381 1.381 0 00-2.053-1.848l-4.794 5.326a1.381 1.381 0 002.052 1.848zM75.41 44.449a1.382 1.382 0 001.95-.103l1.517-1.685a1.381 1.381 0 00-2.053-1.848l-1.517 1.685c-.51.567-.465 1.44.102 1.95zM71.918 46.262l-1.517 1.685a1.381 1.381 0 002.053 1.848l1.517-1.685a1.381 1.381 0 00-2.053-1.848zM53.527 52.949l-8.866 9.847a1.381 1.381 0 102.053 1.848l8.865-9.847a1.381 1.381 0 00-2.052-1.848zM53.227 90.362a1.381 1.381 0 00-.505 1.886l.27.468a1.381 1.381 0 002.392-1.38l-.27-.469a1.381 1.381 0 00-1.887-.505zM52.194 75.38c.38.66 1.226.886 1.886.505l32.785-18.929a1.381 1.381 0 00-1.38-2.392L52.698 73.493a1.381 1.381 0 00-.505 1.886zM88.121 59.13l-6.206 3.584a1.381 1.381 0 001.381 2.392l6.206-3.583a1.38 1.38 0 00-1.381-2.392zM92.718 67.093l-1.964 1.134a1.381 1.381 0 001.381 2.392l1.964-1.134a1.38 1.38 0 00-1.381-2.392zM86.368 70.759l-1.963 1.134a1.381 1.381 0 001.38 2.392l1.964-1.134a1.381 1.381 0 00-1.38-2.392zM66.81 71.434L55.337 78.06a1.381 1.381 0 001.38 2.392l11.475-6.625a1.381 1.381 0 00-1.38-2.392z"/></g><defs><clipPath id="clip0"><path fill="#fff" transform="rotate(-30 94.767 4.203)" d="M0 0h70.703v70.703H0z"/></clipPath></defs></svg>