<svg width="132" height="32" fill="none" xmlns="http://www.w3.org/2000/svg"><path d="M113.611 3.405h-13.457v25.039h13.457V3.405z" fill="#FF5F00"/><path d="M101.008 15.927a16.365 16.365 0 011.543-6.962 15.813 15.813 0 014.331-5.56A15.096 15.096 0 0099.02.093a14.921 14.921 0 00-8.363 1.51 15.577 15.577 0 00-6.314 5.874A16.34 16.34 0 0082 15.925c0 2.987.812 5.915 2.343 8.447a15.577 15.577 0 006.314 5.874 14.92 14.92 0 008.363 1.51 15.095 15.095 0 007.862-3.312 15.806 15.806 0 01-4.33-5.558 16.355 16.355 0 01-1.544-6.96z" fill="#EB001B"/><path d="M131.767 15.927c0 2.988-.812 5.915-2.343 8.448a15.582 15.582 0 01-6.316 5.873 14.92 14.92 0 01-8.363 1.51 15.1 15.1 0 01-7.863-3.314 15.836 15.836 0 004.33-5.56 16.389 16.389 0 001.547-6.96c0-2.41-.529-4.79-1.547-6.959a15.836 15.836 0 00-4.33-5.56 15.1 15.1 0 017.863-3.314 14.92 14.92 0 018.363 1.51 15.582 15.582 0 016.316 5.873 16.342 16.342 0 012.343 8.448v.005zM130.297 25.79v-.513h.201v-.106h-.508v.106h.218v.513h.089zm.987 0v-.62h-.154l-.179.443-.179-.442h-.137v.62h.111v-.465l.167.402h.115l.166-.402v.469l.09-.005z" fill="#F79E1B"/><path d="M26.66 25.585h-4.983L24.794 5.54h4.984L26.66 25.585zM44.728 6.03c-.983-.405-2.542-.853-4.47-.853-4.922 0-8.388 2.729-8.41 6.631-.04 2.88 2.482 4.478 4.369 5.438 1.928.981 2.583 1.621 2.583 2.496-.02 1.343-1.558 1.962-2.993 1.962-1.99 0-3.056-.32-4.676-1.067l-.656-.32-.698 4.5c1.17.553 3.323 1.045 5.559 1.067 5.23 0 8.634-2.688 8.674-6.846.02-2.282-1.312-4.03-4.183-5.459-1.743-.917-2.81-1.536-2.81-2.474.02-.853.902-1.727 2.87-1.727 1.62-.043 2.81.362 3.712.768l.451.212.678-4.328zM51.353 18.484c.41-1.152 1.99-5.609 1.99-5.609-.021.043.41-1.172.655-1.919l.349 1.727s.943 4.798 1.148 5.8h-4.142zM57.505 5.54H53.65c-1.19 0-2.092.362-2.605 1.663l-7.403 18.381h5.23l1.045-3.006h6.4c.142.703.594 3.006.594 3.006h4.615L57.505 5.54zM17.514 5.54l-4.88 13.669-.534-2.773c-.903-3.198-3.733-6.674-6.891-8.402l4.47 17.53h5.271L22.784 5.54h-5.27z" fill="#00579F"/><path d="M8.1 5.54H.083L0 5.945c6.255 1.663 10.398 5.673 12.1 10.492l-1.743-9.212C10.07 5.945 9.187 5.582 8.1 5.54z" fill="#FAA61A"/></svg>