<svg width="48" height="48" fill="none" xmlns="http://www.w3.org/2000/svg"><path d="M28.787 0h14.448L31.224 15.33H16.776L28.786 0z" fill="#E52E40"/><path d="M28.787 0h6.106L22.882 15.33h-6.106L28.786 0z" fill="#EAEAE4"/><path d="M33.457 0h5.108L26.554 15.33h-5.108L33.456 0z" fill="#0E6A8E"/><path d="M24 48c8.264 0 14.964-6.7 14.964-14.964 0-8.265-6.7-14.965-14.964-14.965-8.265 0-14.964 6.7-14.964 14.965C9.036 41.3 15.736 48 24 48z" fill="#FAA721"/><path d="M16.776 19.928V15.33h14.448v4.6l2.449 1.689v-7.513c0-.676-.548-1.225-1.224-1.225H15.552c-.676 0-1.225.549-1.225 1.224v7.515l2.45-1.69z" fill="#F9AC30"/><path d="M24 44.238c6.187 0 11.203-5.015 11.203-11.202S30.187 21.833 24 21.833c-6.187 0-11.203 5.016-11.203 11.203 0 6.187 5.016 11.202 11.203 11.202z" fill="#DF8F1B"/><path d="M19.213 0H4.765l12.011 15.33h14.448L19.214 0z" fill="#EAEAE4"/><path d="M19.213 0h-6.106l12.011 15.33h6.106L19.214 0z" fill="#E52E40"/><path d="M14.543 0H9.435l12.011 15.33h5.108L14.544 0z" fill="#0E6A8E"/><path d="M23.302 28.09l-.755.949a.72.72 0 01-.474.216c-.453 0-.777-.475-.777-.928 0-.323.173-.69.453-.884l2.243-2.156a.762.762 0 01.582-.237c.474 0 1.013.28 1.013.755v14.273c0 .496-.582.755-1.143.755-.582 0-1.142-.259-1.142-.755V28.09z" fill="#F9AC30"/><path d="M21 40a1 1 0 011-1h4.5a1 1 0 110 2H22a1 1 0 01-1-1z" fill="#F9AC30"/></svg>