<svg width="48" height="48" fill="none" xmlns="http://www.w3.org/2000/svg"><g clip-path="url(#clip0)"><path d="M28.787 0h14.448L31.224 15.33H16.776L28.786 0z" fill="#0E6A8E"/><path d="M28.787 0h6.106L22.882 15.33h-6.106L28.786 0z" fill="#E52E40"/><path d="M33.457 0h5.108L26.554 15.33h-5.108L33.456 0z" fill="#EAEAE4"/><path d="M24 48c8.264 0 14.964-6.7 14.964-14.964 0-8.265-6.7-14.965-14.964-14.965-8.265 0-14.964 6.7-14.964 14.965C9.036 41.3 15.736 48 24 48z" fill="#C6D0D6"/><path d="M16.776 19.928V15.33h14.448v4.6l2.449 1.689v-7.513c0-.676-.548-1.225-1.224-1.225H15.552c-.676 0-1.225.549-1.225 1.224v7.515l2.45-1.69z" fill="#C6D0D6"/><path d="M24 44.238c6.187 0 11.203-5.015 11.203-11.202S30.187 21.833 24 21.833c-6.187 0-11.203 5.016-11.203 11.203 0 6.187 5.016 11.202 11.203 11.202z" fill="#ACB8BF"/><path d="M19.213 0H4.765l12.011 15.33h14.448L19.214 0z" fill="#E52E40"/><path d="M19.213 0h-6.106l12.011 15.33h6.106L19.214 0z" fill="#0E6A8E"/><path d="M14.543 0H9.435l12.011 15.33h5.108L14.544 0z" fill="#EAEAE4"/><path d="M24.307 24.624c2.502 0 4.615 1.704 4.615 4.291 0 4.636-6.986 6.145-6.986 8.625v.82h6.339c.388 0 .754.452.754.991 0 .54-.366 1.035-.754 1.035h-7.676c-.431 0-1.014-.302-1.014-.755V37.54c0-3.493 7.051-5.24 7.051-8.56 0-1.057-.69-2.264-2.328-2.264-1.208 0-2.178.668-2.178 2.134 0 .432-.453.863-1.207.863-.604 0-1.035-.302-1.035-1.272 0-2.307 2.07-3.817 4.42-3.817z" fill="#C6D0D6"/></g><defs><clipPath id="clip0"><path fill="#fff" d="M0 0h48v48H0z"/></clipPath></defs></svg>