<svg width="48" height="48" fill="none" xmlns="http://www.w3.org/2000/svg"><g clip-path="url(#clip0)"><path d="M28.787 0h14.448L31.224 15.33H16.776L28.786 0z" fill="#0E6A8E"/><path d="M28.787 0h6.106L22.882 15.33h-6.106L28.786 0z" fill="#E52E40"/><path d="M33.457 0h5.108L26.554 15.33h-5.108L33.456 0z" fill="#EAEAE4"/><path d="M24 48c8.264 0 14.964-6.7 14.964-14.964 0-8.265-6.7-14.965-14.964-14.965-8.265 0-14.964 6.7-14.964 14.965C9.036 41.3 15.736 48 24 48z" fill="#E97922"/><path d="M16.776 19.928V15.33h14.448v4.6l2.449 1.689v-7.513c0-.677-.548-1.225-1.224-1.225H15.552c-.676 0-1.225.548-1.225 1.224v7.515l2.45-1.69z" fill="#E97922"/><path d="M24 44.238c6.187 0 11.203-5.015 11.203-11.202S30.187 21.833 24 21.833c-6.187 0-11.203 5.016-11.203 11.203 0 6.187 5.016 11.202 11.203 11.202z" fill="#B45C18"/><path d="M19.213 0H4.765l12.011 15.33h14.448L19.214 0z" fill="#E52E40"/><path d="M19.213 0h-6.106l12.011 15.33h6.106L19.214 0z" fill="#0E6A8E"/><path d="M14.543 0H9.435l12.011 15.33h5.108L14.544 0z" fill="#EAEAE4"/><path d="M26.882 36.113v-.41c0-1.724-1.056-2.35-2.63-2.35-.54 0-.734-.453-.734-.905 0-.475.194-.927.733-.927 1.316 0 2.243-.41 2.243-2.372 0-1.574-.755-2.221-2.156-2.221-1.747 0-2.243.884-2.243 1.768 0 .56-.258.927-1.078.927-1.013 0-1.186-.237-1.186-1.056 0-1.402.97-3.644 4.528-3.644 2.523 0 4.334.992 4.334 3.838 0 1.79-.69 3.105-1.725 3.6 1.272.497 2.2 1.51 2.2 3.343v.41c0 3.428-2.2 4.7-4.916 4.7-3.364 0-4.766-2.092-4.766-3.795 0-.755.28-.97 1.057-.97.948 0 1.186.28 1.186.862 0 .949.797 1.876 2.544 1.876 1.768 0 2.609-.798 2.609-2.674z" fill="#E97922"/></g><defs><clipPath id="clip0"><path fill="#fff" d="M0 0h48v48H0z"/></clipPath></defs></svg>