<svg width="39" height="39" fill="none" xmlns="http://www.w3.org/2000/svg"><g clip-path="url(#clip0)"><path d="M39 7.408a16.67 16.67 0 01-4.607 1.262 7.95 7.95 0 003.517-4.419 15.978 15.978 0 01-5.07 1.935A8.012 8.012 0 0027 3.656c-4.426 0-7.99 3.593-7.99 7.998 0 .633.054 1.243.185 1.823-6.647-.324-12.528-3.51-16.48-8.363a8.05 8.05 0 00-1.094 4.041A8.007 8.007 0 005.172 15.8a7.895 7.895 0 01-3.612-.985v.088c0 3.885 2.771 7.112 6.406 7.856-.651.178-1.36.263-2.096.263-.512 0-1.03-.03-1.514-.136 1.036 3.166 3.975 5.494 7.47 5.57a16.066 16.066 0 01-9.913 3.41c-.655 0-1.284-.03-1.913-.11 3.542 2.284 7.74 3.588 12.265 3.588 14.713 0 22.757-12.188 22.757-22.752 0-.353-.012-.695-.03-1.033 1.588-1.127 2.92-2.533 4.008-4.151z" fill="#fff"/></g><defs><clipPath id="clip0"><path fill="#fff" d="M0 0h39v39H0z"/></clipPath></defs></svg>