<svg width="26" height="14" fill="none" xmlns="http://www.w3.org/2000/svg"><path d="M25.86 12.64a12.94 12.94 0 00-2.67-2.98l-.03-.03h-.01l-.02-.02c-.59-.52-.95-.87-1.1-1.05-.29-.34-.35-.68-.2-1.03.11-.27.52-.83 1.22-1.68l.88-1.08C25.5 2.8 26.17 1.56 25.96 1l-.08-.13c-.05-.07-.2-.14-.42-.2a2.26 2.26 0 00-.86-.04l-3.9.03a.53.53 0 00-.27 0l-.18.04-.07.03-.05.04a.59.59 0 00-.15.14.87.87 0 00-.13.22 20.36 20.36 0 01-2.37 4.25 4.82 4.82 0 01-1.22 1.3c-.16.1-.27.15-.35.13l-.23-.05a.87.87 0 01-.3-.31c-.09-.13-.14-.3-.16-.5a5.21 5.21 0 01-.04-1.13V4.3a29.97 29.97 0 01.06-1.95l.02-.7c0-.25-.02-.44-.05-.58a1.9 1.9 0 00-.14-.41.7.7 0 00-.28-.31 1.62 1.62 0 00-.45-.17A9.53 9.53 0 0012.5 0c-1.67-.02-2.75.1-3.23.3-.19.1-.36.23-.51.4-.16.18-.19.28-.07.3.54.07.93.26 1.15.55l.08.15c.07.11.13.3.2.59a9.38 9.38 0 01-.19 4.16 2.5 2.5 0 01-.17.28.23.23 0 01-.07.07c-.11.04-.24.06-.36.06a.89.89 0 01-.46-.18 3.19 3.19 0 01-.56-.49c-.2-.2-.42-.5-.66-.87-.25-.38-.5-.82-.76-1.33l-.22-.37A31.2 31.2 0 015.5 1.25a.85.85 0 00-.33-.4L5.1.8a1.5 1.5 0 00-.53-.2L.88.64C.49.64.23.72.09.88L.04.96a.4.4 0 00-.04.2c0 .1.03.21.08.35a41.17 41.17 0 004.86 8.1 28.54 28.54 0 001.34 1.54l.34.31c.22.2.53.45.95.74.42.28.89.56 1.4.84a7.83 7.83 0 003.75.89h1.56c.32-.03.56-.12.72-.28l.05-.07a1.23 1.23 0 00.15-.59c0-.36.02-.7.09-.99.07-.29.14-.51.23-.66a1.64 1.64 0 01.52-.56.9.9 0 01.11-.05c.22-.06.47 0 .76.2.3.2.57.45.83.74.26.3.57.63.93 1 .36.36.67.63.95.81l.27.15c.18.1.41.2.7.28.29.09.54.11.76.07l3.46-.05c.35 0 .61-.06.8-.16.2-.1.3-.23.34-.35a.93.93 0 000-.44 1.53 1.53 0 00-.09-.34z" fill="#ED7F3D"/></svg>