<svg width="47" height="26" fill="none" xmlns="http://www.w3.org/2000/svg"><path d="M46.75 23.48a3.07 3.07 0 00-.158-.296c-.816-1.424-2.374-3.172-4.675-5.244l-.048-.047-.024-.024-.025-.023h-.025c-1.044-.965-1.705-1.614-1.982-1.946-.506-.633-.62-1.273-.343-1.922.196-.49.93-1.526 2.203-3.108.669-.839 1.199-1.51 1.59-2.017 2.823-3.638 4.046-5.963 3.67-6.975l-.145-.237c-.098-.143-.35-.273-.758-.392-.408-.118-.93-.138-1.567-.059l-7.047.047c-.114-.039-.277-.035-.49.012l-.318.072-.123.06-.097.07c-.082.048-.171.13-.27.25a1.62 1.62 0 00-.243.415 38.231 38.231 0 01-2.62 5.338c-.603.98-1.157 1.831-1.663 2.55-.506.72-.93 1.25-1.272 1.59-.343.34-.653.613-.93.819-.278.206-.49.293-.637.26a18.761 18.761 0 01-.416-.094 1.599 1.599 0 01-.55-.582c-.14-.245-.233-.553-.282-.925a9.884 9.884 0 01-.085-.96c-.008-.27-.005-.65.012-1.14.017-.49.024-.822.024-.996 0-.602.013-1.254.037-1.958s.045-1.262.061-1.672c.017-.412.025-.847.025-1.306 0-.458-.03-.818-.086-1.08a3.615 3.615 0 00-.256-.758 1.29 1.29 0 00-.502-.57 2.878 2.878 0 00-.82-.32C25.05.122 23.95.019 22.611.003c-3.034-.031-4.984.159-5.848.57a3.283 3.283 0 00-.93.712c-.294.348-.335.538-.123.569.98.142 1.672.482 2.08 1.02l.147.285c.115.206.229.57.343 1.091.114.522.188 1.1.22 1.732.082 1.155.082 2.144 0 2.966a34.352 34.352 0 01-.232 1.922c-.074.459-.184.83-.33 1.115a4.677 4.677 0 01-.294.522.418.418 0 01-.123.119 1.886 1.886 0 01-.66.118c-.23 0-.506-.11-.832-.332a5.809 5.809 0 01-1.016-.914c-.35-.387-.746-.929-1.187-1.625a28.088 28.088 0 01-1.37-2.467l-.392-.689a58.363 58.363 0 01-1.003-1.933c-.424-.847-.8-1.665-1.126-2.456a1.57 1.57 0 00-.587-.76l-.122-.07a1.692 1.692 0 00-.392-.202 2.66 2.66 0 00-.563-.154l-6.705.047c-.685 0-1.15.15-1.394.45l-.098.143c-.05.08-.074.206-.074.38 0 .174.049.388.147.64A77.287 77.287 0 003.34 9.256c1.15 2.072 2.15 3.741 2.998 5.006a59.152 59.152 0 002.594 3.583c.88 1.123 1.464 1.843 1.75 2.159.285.317.51.553.672.712l.612.569c.392.38.967.834 1.725 1.364.76.53 1.6 1.052 2.52 1.567.923.513 1.995.933 3.219 1.257a11.46 11.46 0 003.573.392h2.814c.57-.048 1.003-.222 1.297-.522l.097-.12c.066-.094.127-.24.184-.438a2.34 2.34 0 00.085-.652 7.586 7.586 0 01.16-1.839c.121-.545.26-.957.416-1.234.155-.276.33-.51.525-.7.196-.189.335-.304.417-.343.081-.04.146-.067.195-.083.392-.127.853-.004 1.383.368a8.03 8.03 0 011.493 1.376 42.53 42.53 0 001.676 1.838c.653.68 1.224 1.186 1.713 1.52l.49.284c.326.19.75.364 1.273.522.52.158.977.198 1.37.119l6.264-.095c.62 0 1.102-.1 1.444-.297.342-.198.546-.416.611-.652.066-.238.07-.507.013-.808-.058-.3-.115-.51-.172-.628z" fill="#fff"/></svg>