<?xml version="1.0" standalone="no"?>
<!DOCTYPE svg PUBLIC "-//W3C//DTD SVG 20010904//EN"
 "http://www.w3.org/TR/2001/REC-SVG-20010904/DTD/svg10.dtd">
<svg version="1.0" xmlns="http://www.w3.org/2000/svg"
 width="3168.000000pt" height="3168.000000pt" viewBox="0 0 3168.000000 3168.000000"
 preserveAspectRatio="xMidYMid meet">
<metadata>
Created by potrace 1.11, written by Peter Selinger 2001-2013
</metadata>
<g transform="translate(0.000000,3168.000000) scale(0.100000,-0.100000)"
fill="#000000" stroke="none">
<path d="M1210 19869 c-66 -11 -90 -16 -135 -28 -22 -6 -43 -11 -47 -11 -22
-2 -181 -90 -231 -128 -81 -62 -204 -184 -263 -262 -68 -89 -104 -144 -104
-158 0 -7 -4 -12 -9 -12 -14 0 -139 -289 -141 -325 0 -3 0 -6 -1 -7 0 -2 -2
-10 -4 -18 -2 -8 -11 -40 -19 -70 -8 -30 -17 -73 -20 -95 -3 -22 -7 -51 -10
-65 -26 -118 -27 -536 -1 -668 2 -10 6 -43 10 -72 7 -57 9 -67 25 -145 6 -27
12 -59 14 -70 3 -11 14 -58 25 -105 12 -47 23 -94 26 -105 3 -11 9 -31 14 -45
10 -28 75 -232 76 -240 0 -6 54 -157 65 -185 4 -11 15 -36 23 -55 8 -19 18
-46 22 -60 12 -41 47 -113 298 -620 132 -267 241 -487 242 -490 1 -3 44 -90
95 -195 52 -104 95 -192 96 -195 0 -3 11 -27 23 -55 74 -163 189 -481 227
-627 1 -5 2 -9 4 -10 1 -2 3 -10 5 -18 2 -8 18 -67 34 -130 31 -113 68 -282
77 -349 2 -19 7 -48 10 -65 26 -151 37 -462 20 -606 -12 -101 -16 -131 -21
-164 -21 -121 -27 -155 -35 -181 -5 -16 -12 -46 -15 -65 -7 -39 -103 -339
-114 -355 -4 -5 -16 -32 -26 -59 -10 -27 -35 -81 -57 -120 -21 -39 -44 -81
-50 -93 -6 -13 -15 -23 -20 -23 -4 0 -8 -6 -8 -12 0 -13 -43 -65 -97 -121 -33
-34 -108 -87 -121 -87 -6 0 -12 -3 -14 -7 -1 -5 -28 -17 -58 -27 -81 -29 -156
-29 -248 0 -42 14 -81 26 -87 28 -5 2 -19 7 -30 11 -11 4 -54 20 -95 35 -41
15 -84 31 -95 35 -24 9 -28 11 -80 20 -160 30 -266 -42 -300 -205 -36 -171 96
-292 402 -369 43 -11 94 -22 113 -25 19 -3 58 -8 85 -12 83 -12 280 -7 390 11
51 8 60 10 72 18 7 5 13 6 13 4 0 -9 177 51 201 68 8 6 35 21 62 35 26 13 47
28 47 32 0 5 6 8 13 8 20 0 187 135 256 208 56 59 150 184 190 253 29 50 139
275 146 299 4 14 13 39 20 55 20 48 47 119 50 135 2 8 14 53 28 100 14 47 28
99 31 115 3 17 10 50 15 75 5 25 12 63 15 85 3 22 8 50 10 63 21 99 27 506 11
697 -4 55 -8 117 -9 137 -1 21 -3 38 -6 38 -4 0 -6 10 -6 23 -1 32 -12 113
-24 177 -6 30 -13 66 -15 80 -2 14 -7 36 -10 50 -3 14 -8 36 -10 50 -11 75
-86 351 -115 425 -4 11 -18 54 -31 95 -12 41 -26 80 -30 85 -3 6 -12 28 -19
50 -7 22 -20 50 -28 63 -8 12 -11 22 -8 22 3 0 -7 27 -24 60 -17 33 -28 60
-24 60 3 0 -3 12 -14 28 -11 15 -23 38 -27 51 -4 13 -19 45 -34 70 -14 25 -38
71 -51 101 -14 30 -28 57 -32 58 -5 2 -8 8 -8 13 0 13 -403 823 -413 830 -5 3
-7 8 -6 10 2 2 -45 102 -104 222 -88 178 -222 487 -231 532 -1 6 -5 16 -9 23
-5 6 -6 12 -3 12 3 0 -2 17 -10 37 -9 20 -17 44 -19 53 -2 10 -13 48 -25 86
-23 72 -28 93 -36 134 -2 14 -7 36 -10 50 -3 14 -8 34 -10 45 -2 11 -6 31 -9
45 -12 51 -23 118 -30 180 -2 25 -7 68 -11 95 -13 112 -19 413 -10 480 9 65
18 112 28 150 6 22 12 45 14 50 8 37 65 162 102 225 113 189 235 295 383 334
48 12 57 12 79 -3 29 -20 101 -54 115 -56 6 0 35 -6 65 -13 30 -7 86 -14 124
-16 76 -5 78 -3 141 78 17 21 35 44 40 50 22 24 65 85 65 91 0 15 -90 141
-117 165 -56 49 -123 100 -131 100 -5 0 -20 8 -33 18 -30 23 -140 67 -194 77
-54 11 -210 13 -265 4z"/>
<path d="M31218 19864 c-2 -1 -16 -4 -33 -7 -103 -14 -259 -123 -312 -218 -41
-72 -44 -114 -41 -561 2 -236 7 -428 11 -428 5 0 5 -5 1 -12 -9 -14 -11 -128
-3 -128 4 0 3 -16 -1 -34 -4 -19 -6 -37 -3 -40 2 -2 6 -175 8 -383 2 -208 7
-610 10 -893 13 -983 11 -1489 -10 -1970 -19 -443 -24 -832 -11 -935 4 -33 9
-80 12 -105 2 -25 6 -54 8 -65 12 -66 19 -102 21 -116 2 -8 11 -46 20 -83 9
-37 18 -72 19 -79 2 -7 8 -25 15 -42 6 -16 17 -43 23 -60 7 -16 20 -43 30 -60
10 -16 21 -37 24 -45 4 -8 21 -28 40 -43 37 -31 81 -38 118 -17 25 13 63 77
71 118 2 12 6 25 8 30 9 14 23 175 33 367 4 87 6 197 19 925 3 184 8 376 10
425 3 50 7 151 10 225 8 217 15 358 31 625 3 55 8 132 10 170 10 186 15 267
30 490 10 153 13 197 19 295 3 52 7 122 10 155 14 197 18 267 21 325 1 36 3
65 4 65 1 0 3 41 5 90 2 50 6 135 9 190 30 547 48 1069 49 1445 0 191 -1 196
-26 245 -30 58 -56 84 -114 113 -34 18 -136 36 -145 26z"/>
<path d="M17371 19840 c-71 -24 -155 -94 -185 -155 -46 -91 -46 -87 -32 -595
3 -118 8 -300 11 -405 5 -183 8 -282 20 -635 9 -245 14 -355 20 -450 3 -47 7
-139 10 -204 2 -65 7 -121 9 -124 3 -2 1 -13 -5 -23 -5 -11 -6 -19 -2 -19 4 0
9 -44 10 -98 2 -93 6 -203 18 -465 10 -214 16 -418 21 -722 9 -454 8 -3135 0
-3255 -5 -58 -9 -127 -11 -153 -1 -26 -5 -50 -8 -53 -23 -24 -714 -23 -812 0
-11 2 -27 5 -35 5 -33 2 -43 19 -46 82 -1 35 -5 154 -9 264 -3 110 -8 268 -10
350 -3 83 -7 223 -9 312 -3 89 -7 167 -11 173 -3 5 -1 10 5 10 6 0 8 5 4 12
-15 24 -19 548 -18 2813 0 2218 2 2665 14 2665 3 0 5 24 3 53 -7 167 -35 249
-114 328 -26 26 -57 50 -70 54 -13 4 -27 12 -30 17 -7 11 -41 18 -110 23 -90
6 -144 -25 -229 -132 -6 -7 -10 -19 -10 -27 0 -8 -5 -18 -10 -21 -6 -4 -8 -10
-5 -15 3 -5 2 -11 -3 -14 -5 -3 -5 -36 0 -73 4 -37 10 -84 13 -103 2 -19 6
-46 9 -60 2 -14 7 -151 11 -305 3 -154 8 -336 11 -405 2 -69 6 -171 8 -227 2
-56 7 -106 11 -112 3 -6 1 -11 -5 -11 -6 0 -9 -4 -6 -9 6 -9 12 -147 21 -420
12 -388 18 -614 19 -763 0 -93 5 -168 9 -168 4 0 3 -8 -2 -18 -5 -10 -6 -24
-1 -32 5 -8 5 -21 0 -31 -5 -9 -7 -19 -3 -22 3 -4 7 -123 9 -264 1 -142 6
-495 9 -784 5 -416 10 -2984 6 -3101 l-1 -28 -435 0 -435 0 -1 33 c0 17 -2 41
-4 52 -4 21 -13 99 -19 175 -2 25 -7 77 -10 115 -4 39 -8 93 -11 120 -2 28 -5
50 -5 50 -1 0 -3 27 -6 60 -11 139 -13 163 -18 225 -8 89 -15 173 -21 250 -3
36 -8 94 -11 130 -6 67 -9 104 -18 250 -4 47 -9 110 -11 140 -3 30 -8 86 -10
125 -3 38 -7 102 -9 140 -3 39 -8 111 -11 160 -3 50 -8 124 -10 165 -3 41 -7
129 -10 195 -2 66 -5 120 -5 120 -1 0 -3 47 -5 105 -10 292 -16 435 -20 535
-3 61 -7 221 -9 357 -2 136 -7 252 -11 257 -3 6 -1 11 5 11 6 0 8 5 4 11 -6
10 -9 192 -18 1134 -5 464 -17 1553 -20 1820 -1 72 4 159 11 195 20 110 0 167
-74 205 -21 11 -70 38 -109 62 -39 23 -89 48 -110 55 -63 22 -196 12 -259 -18
-83 -40 -93 -69 -89 -258 1 -81 5 -150 7 -153 3 -2 2 -15 -2 -28 -3 -13 -4
-72 -1 -131 3 -58 2 -108 -3 -111 -4 -2 -5 -8 -2 -13 3 -5 8 -152 10 -327 5
-319 9 -446 19 -579 3 -39 8 -103 10 -142 2 -39 7 -76 11 -82 3 -5 1 -10 -5
-10 -6 0 -8 -5 -4 -11 4 -6 8 -35 10 -63 2 -28 6 -85 9 -126 11 -143 19 -249
31 -375 3 -38 8 -90 9 -115 2 -25 6 -76 9 -115 3 -38 8 -97 11 -130 3 -33 8
-96 11 -140 3 -44 7 -98 9 -120 2 -22 6 -92 10 -155 3 -63 8 -140 10 -170 5
-66 18 -379 19 -472 1 -38 5 -68 10 -68 5 0 3 -6 -3 -13 -6 -8 -9 -16 -6 -19
3 -3 7 -76 10 -164 6 -215 19 -501 31 -714 2 -41 6 -109 8 -150 4 -69 9 -160
22 -390 2 -47 6 -125 9 -175 8 -140 14 -251 20 -360 3 -55 8 -140 11 -190 2
-49 7 -135 11 -190 3 -55 7 -293 8 -530 2 -434 5 -488 24 -537 6 -16 8 -28 6
-28 -14 0 82 -161 118 -198 40 -41 57 -53 117 -84 14 -7 27 -15 30 -18 6 -7
78 -29 105 -33 11 -1 25 -5 30 -8 6 -4 111 -7 235 -8 2438 -24 2396 -23 2456
-6 29 8 57 16 61 17 12 3 31 19 88 73 58 55 125 158 125 192 0 12 5 25 10 28
6 4 8 47 4 118 -7 132 -12 202 -15 202 -1 0 -4 48 -14 265 -3 80 -8 467 -11
860 -6 971 -8 1130 -14 1130 -3 0 -6 84 -7 188 -1 103 -4 304 -7 447 -7 280
-13 591 -20 937 -3 120 -7 222 -11 228 -3 5 -1 10 5 10 6 0 8 5 5 10 -7 11 -9
115 -20 755 -3 182 -8 386 -10 455 -8 259 -17 498 -21 585 -3 50 -6 150 -7
222 -1 73 -4 133 -7 133 -8 0 -5 205 4 295 9 83 10 91 22 190 13 100 8 232
-12 293 -12 40 -31 70 -64 103 -83 83 -156 107 -239 79z"/>
<path d="M9263 18980 c-2 -3 -9 -5 -15 -5 -11 0 -13 -7 -22 -70 -3 -16 -5 -30
-6 -30 -2 0 -7 -38 -15 -100 -2 -22 -11 -77 -19 -122 -9 -46 -18 -97 -20 -115
-3 -18 -7 -46 -10 -63 -11 -72 -15 -93 -21 -135 -4 -25 -8 -56 -10 -70 -2 -14
-11 -65 -19 -115 -8 -49 -18 -108 -21 -130 -14 -93 -16 -111 -20 -130 -12 -75
-15 -94 -20 -125 -2 -19 -7 -46 -10 -60 -3 -14 -7 -43 -10 -65 -2 -22 -7 -58
-11 -80 -4 -22 -8 -55 -8 -72 -1 -18 -4 -33 -7 -33 -3 0 -6 -6 -6 -12 -2 -30
-13 -109 -23 -172 -7 -37 -10 -70 -6 -73 3 -3 2 -11 -3 -17 -5 -6 -12 -35 -15
-65 -4 -30 -9 -64 -11 -75 -2 -12 -7 -39 -10 -61 -3 -22 -10 -67 -15 -100 -8
-55 -18 -120 -26 -170 -4 -31 -13 -86 -19 -130 -4 -22 -8 -53 -10 -70 -2 -16
-6 -43 -10 -60 -3 -16 -8 -43 -10 -60 -6 -38 -16 -104 -21 -130 -2 -11 -7 -40
-10 -65 -3 -25 -10 -63 -14 -84 -5 -22 -7 -44 -4 -48 3 -4 1 -8 -3 -8 -5 0 -9
-15 -10 -32 -1 -34 -7 -74 -17 -118 -3 -14 -8 -42 -11 -62 -8 -57 -16 -110
-21 -138 -2 -14 -9 -52 -14 -85 -5 -33 -12 -71 -14 -85 -3 -14 -7 -43 -10 -65
-3 -22 -12 -78 -20 -125 -8 -47 -17 -103 -20 -125 -6 -40 -15 -92 -23 -130 -2
-11 -6 -36 -8 -55 -3 -19 -8 -44 -10 -56 -3 -12 -7 -39 -10 -60 -4 -21 -8 -50
-11 -64 -2 -14 -7 -41 -10 -60 -3 -19 -7 -46 -10 -60 -2 -14 -7 -38 -9 -55 -3
-16 -12 -68 -20 -115 -8 -47 -17 -101 -20 -120 -3 -19 -8 -46 -10 -60 -16 -88
-25 -140 -31 -174 -3 -21 -8 -48 -10 -60 -2 -11 -6 -34 -9 -51 -3 -16 -7 -41
-10 -55 -3 -14 -7 -41 -10 -60 -3 -19 -10 -60 -16 -90 -6 -30 -13 -68 -15 -85
-2 -16 -13 -77 -24 -135 -11 -58 -22 -118 -25 -135 -4 -27 -11 -61 -31 -160
-3 -16 -8 -48 -10 -70 -3 -22 -9 -44 -13 -48 -9 -9 -34 130 -26 143 3 5 1 11
-4 15 -5 3 -10 13 -9 23 0 9 -3 40 -7 67 -13 103 -18 147 -30 260 -2 22 -4 40
-5 40 -2 0 -6 27 -15 100 -11 100 -14 118 -20 165 -4 25 -8 56 -10 70 -2 14
-4 25 -5 25 -1 0 -3 20 -5 45 -2 25 -6 56 -8 70 -5 21 -22 150 -33 240 -9 80
-15 127 -19 140 -2 8 -7 42 -11 75 -3 33 -8 69 -11 80 -9 43 -12 61 -17 100
-3 22 -7 56 -10 75 -11 66 -17 105 -21 145 -2 22 -6 54 -9 70 -3 17 -8 57 -11
90 -4 33 -9 71 -11 85 -5 25 -9 54 -19 140 -4 25 -8 54 -10 65 -7 33 -16 97
-20 140 -2 22 -7 51 -10 65 -3 14 -8 41 -10 60 -5 35 -13 83 -22 130 -3 14 -6
34 -8 45 -1 11 -8 48 -14 82 -6 34 -11 65 -10 70 1 4 0 15 -4 23 -3 8 -11 44
-17 80 -6 36 -13 79 -16 95 -3 17 -7 39 -9 50 -2 11 -4 20 -5 20 -1 0 -3 11
-5 25 -8 62 -16 103 -20 110 -3 4 -7 25 -11 46 -3 22 -16 88 -29 149 -13 60
-21 113 -19 117 3 5 0 8 -6 8 -7 0 -10 6 -7 13 2 6 0 26 -5 42 -5 17 -11 41
-14 55 -2 14 -12 54 -20 90 -9 36 -18 76 -20 90 -4 21 -9 46 -19 83 -2 4 -3 8
-5 10 -1 1 -3 11 -4 22 -2 11 -11 51 -20 89 -10 38 -19 77 -21 85 -2 9 -11 45
-20 81 -9 36 -19 73 -21 83 -9 37 -13 54 -29 112 -9 33 -18 67 -20 75 -2 8 -4
16 -5 18 -3 3 -5 10 -15 57 -11 50 -10 47 -18 65 -3 8 -11 35 -17 60 -72 279
-233 620 -340 718 -103 95 -258 84 -345 -23 -67 -82 -69 -165 -8 -395 45 -174
78 -289 90 -320 3 -8 7 -19 8 -25 2 -5 13 -43 25 -84 12 -41 23 -81 25 -90 3
-9 18 -68 36 -131 77 -287 93 -344 131 -490 22 -85 41 -164 44 -175 2 -11 20
-83 39 -160 20 -77 38 -147 40 -155 2 -8 15 -64 30 -125 15 -60 28 -119 30
-130 3 -11 16 -66 30 -122 27 -109 28 -115 40 -181 4 -23 12 -45 16 -48 5 -3
7 -10 3 -15 -3 -5 0 -24 6 -43 6 -18 13 -46 15 -62 2 -16 11 -57 19 -91 9 -34
18 -75 21 -90 5 -28 11 -58 19 -90 3 -10 14 -63 25 -118 11 -55 27 -129 35
-165 8 -36 17 -76 20 -90 3 -14 7 -34 9 -45 3 -11 8 -40 13 -65 4 -25 8 -47 9
-50 0 -3 4 -21 8 -40 4 -19 9 -46 12 -60 21 -99 37 -180 41 -209 2 -19 6 -37
8 -40 3 -4 7 -25 10 -47 4 -22 9 -51 12 -64 3 -14 7 -34 9 -45 1 -11 8 -47 15
-80 6 -33 13 -71 15 -85 2 -14 7 -36 10 -50 3 -14 7 -38 10 -55 5 -36 16 -106
19 -120 2 -5 6 -32 10 -60 11 -70 13 -85 20 -125 9 -56 18 -113 22 -145 6 -49
11 -87 18 -135 14 -100 26 -188 31 -235 3 -27 8 -68 10 -90 7 -54 15 -129 21
-195 3 -30 7 -73 9 -95 29 -283 51 -707 54 -1060 l2 -120 70 -55 c120 -93 129
-99 157 -94 163 28 290 151 415 400 39 79 95 211 102 239 1 5 7 23 14 39 6 16
13 36 15 45 2 9 6 23 9 31 13 34 61 216 88 335 24 106 30 134 32 158 1 9 4 17
8 17 3 0 5 12 4 27 0 14 5 54 12 87 7 34 15 79 18 101 3 22 8 51 10 65 6 32
12 74 20 130 3 25 8 56 10 70 10 62 18 117 20 140 2 14 8 61 14 105 19 136 22
159 25 195 8 72 18 156 22 180 2 14 6 54 9 90 3 36 8 83 11 105 10 77 13 111
19 180 3 39 8 88 10 110 3 22 7 72 10 110 6 85 13 172 20 245 2 30 7 96 10
145 3 50 8 115 10 145 3 30 7 89 10 130 3 41 7 95 10 120 3 25 7 68 10 95 6
63 15 150 20 195 2 19 7 58 10 85 3 28 10 77 15 110 5 33 11 77 15 99 3 21 7
41 9 45 2 3 7 22 10 41 5 28 31 138 71 300 2 8 4 15 5 15 1 0 4 11 7 25 7 39
11 55 13 55 1 0 3 11 6 25 2 14 8 36 14 50 8 22 29 97 34 125 1 6 10 37 20 70
10 33 19 65 20 70 2 6 8 30 15 55 7 25 12 45 11 45 -1 0 4 14 10 30 13 32 39
124 46 164 3 14 7 28 10 33 3 5 8 21 11 36 8 44 11 57 14 57 1 0 3 9 4 20 2
11 8 34 13 52 6 17 8 34 4 37 -3 3 0 6 7 6 7 0 10 4 7 8 -3 5 2 35 10 66 8 32
17 70 19 85 2 14 11 54 20 89 8 34 17 77 20 95 2 17 14 75 25 127 18 85 24
116 35 197 2 13 6 40 9 60 21 142 24 178 30 355 3 70 7 132 11 138 3 5 1 10
-4 10 -6 0 -11 9 -11 20 0 33 -34 78 -95 128 -26 21 -96 40 -150 41 -33 0 -86
2 -118 3 -32 2 -61 1 -64 -2z"/>
<path d="M22264 18891 c-2 -2 -19 -6 -36 -8 -48 -5 -128 -33 -170 -59 -109
-69 -175 -182 -273 -469 -14 -44 -30 -89 -35 -100 -7 -17 -24 -69 -56 -165 -3
-8 -6 -17 -6 -20 0 -3 -19 -57 -40 -120 -22 -63 -41 -122 -43 -130 -2 -8 -13
-42 -25 -75 -11 -33 -22 -67 -24 -75 -3 -8 -23 -73 -46 -145 -23 -71 -48 -150
-55 -175 -33 -113 -145 -460 -154 -475 -3 -5 -6 -15 -7 -20 -2 -14 -103 -315
-114 -340 -5 -11 -41 -119 -80 -240 -39 -121 -75 -229 -80 -240 -5 -11 -23
-65 -40 -120 -17 -55 -34 -107 -37 -115 -8 -18 -7 -15 -22 -70 -7 -25 -18 -51
-23 -57 -6 -7 -8 -13 -5 -13 4 0 -7 -39 -24 -87 -17 -48 -32 -94 -34 -102 -2
-9 -31 -100 -65 -203 -33 -103 -63 -196 -65 -205 -2 -10 -15 -52 -30 -93 -14
-41 -27 -84 -30 -95 -4 -19 -29 -94 -42 -125 -3 -8 -7 -19 -9 -25 -8 -32 -155
-404 -284 -720 -26 -63 -54 -138 -57 -150 -1 -5 -11 -34 -22 -64 -11 -29 -20
-56 -19 -60 0 -3 -1 -8 -2 -11 -1 -3 -3 -12 -5 -20 -2 -8 -11 -42 -21 -75 -9
-33 -17 -67 -19 -75 -2 -8 -8 -33 -13 -55 -13 -50 -23 -103 -25 -132 -2 -46
-15 -10 -22 64 -4 43 -9 87 -11 98 -2 11 -6 49 -9 85 -4 36 -8 81 -10 100 -5
34 -6 2403 -2 4000 l2 815 -24 69 c-30 86 -92 154 -165 179 -70 24 -236 19
-296 -9 -112 -53 -152 -131 -179 -349 -8 -69 -6 -591 3 -920 3 -93 8 -276 12
-405 3 -129 7 -296 9 -370 2 -74 4 -135 5 -135 0 0 3 -72 5 -160 2 -88 6 -225
9 -305 4 -80 9 -206 12 -280 2 -74 7 -196 10 -270 9 -287 21 -569 30 -719 3
-57 7 -156 9 -220 2 -64 4 -116 5 -116 1 0 3 -40 5 -90 3 -103 13 -305 21
-415 10 -147 19 -408 28 -790 3 -129 8 -289 11 -355 11 -263 17 -416 20 -555
3 -150 12 -192 51 -236 30 -33 83 -56 143 -61 31 -3 64 -10 74 -15 9 -5 17 -5
17 0 0 5 10 8 23 7 33 -3 87 25 128 66 43 43 75 107 128 254 21 61 60 169 86
240 25 72 50 139 55 150 4 11 18 49 30 85 13 36 28 79 35 95 13 31 62 168 180
495 36 102 69 192 72 200 3 8 7 20 9 25 1 6 8 24 15 40 7 17 13 32 14 35 6 23
18 58 25 75 5 11 29 76 54 145 25 69 84 233 132 365 137 380 154 427 171 475
8 25 20 51 25 58 6 6 8 12 5 12 -3 0 8 37 25 83 44 118 109 300 112 312 2 6 6
17 9 25 12 29 59 155 61 165 2 6 6 18 9 28 4 9 10 25 14 35 3 9 7 22 9 27 5
19 136 380 149 410 11 27 38 103 40 115 3 17 38 125 47 148 6 15 12 32 13 38
3 14 164 513 172 534 4 8 7 17 8 20 4 18 47 158 52 170 3 8 7 21 9 28 1 8 6
21 10 30 4 9 8 19 9 22 0 3 11 38 23 77 12 40 22 74 21 75 -2 2 3 13 10 26 7
13 14 33 16 44 3 11 23 44 46 74 38 50 58 65 60 47 3 -21 13 -133 24 -268 5
-55 16 -174 20 -210 1 -16 6 -59 9 -95 4 -36 9 -87 12 -115 3 -27 7 -132 8
-233 2 -100 6 -185 9 -189 4 -3 2 -13 -3 -23 -5 -10 -7 -20 -3 -24 3 -3 7 -90
9 -193 1 -104 5 -321 8 -483 9 -439 16 -883 20 -1265 3 -187 5 -344 6 -350 1
-5 1 -13 0 -17 -2 -9 -2 -77 0 -80 6 -12 4 -481 -2 -485 -5 -2 -5 -10 0 -16 4
-7 7 -23 5 -37 -1 -14 -5 -77 -8 -140 -8 -165 -13 -255 -20 -324 -11 -112 -16
-199 -20 -391 -6 -251 11 -302 117 -360 42 -23 66 -28 139 -31 77 -3 96 -1
141 20 57 25 95 60 127 118 21 38 68 183 73 228 2 14 6 30 10 35 7 12 4 737
-3 751 -3 5 -4 18 -3 29 7 61 7 82 0 102 -4 12 -2 24 4 28 6 3 8 11 4 16 -3 5
-7 157 -9 337 -11 947 -16 1362 -21 1602 -3 146 -4 312 -3 370 6 314 -2 1255
-11 1255 -1 0 -4 95 -15 575 -4 157 -8 513 -9 792 -2 506 -2 508 -24 528 -11
11 -28 20 -36 20 -8 0 -17 4 -20 9 -7 11 -130 47 -171 50 -81 6 -97 6 -101 2z"/>
<path d="M4553 18859 c-24 -3 -44 -7 -46 -10 -9 -10 -48 -99 -47 -104 1 -3 -6
-17 -14 -31 -9 -13 -14 -24 -12 -24 3 0 -4 -30 -15 -67 -10 -37 -21 -88 -24
-113 -3 -25 -7 -61 -10 -80 -2 -19 -7 -55 -10 -80 -2 -25 -7 -63 -10 -85 -4
-38 -11 -109 -21 -220 -2 -27 -6 -72 -9 -100 -4 -46 -13 -169 -20 -275 -3 -47
-14 -138 -21 -173 -3 -19 -15 -129 -17 -154 0 -7 -3 -13 -7 -13 -3 0 -5 -15
-5 -32 1 -18 -2 -49 -6 -68 -4 -19 -10 -59 -14 -89 -4 -30 -9 -63 -11 -75 -2
-12 -6 -41 -9 -66 -6 -48 -22 -156 -31 -205 -4 -16 -8 -41 -9 -55 -7 -51 -16
-107 -31 -200 -8 -52 -17 -108 -20 -125 -6 -48 -13 -93 -34 -210 -19 -113 -23
-138 -35 -215 -4 -25 -9 -54 -12 -65 -2 -11 -6 -33 -8 -50 -3 -16 -7 -41 -10
-55 -3 -14 -7 -38 -10 -55 -3 -16 -7 -41 -10 -55 -3 -14 -7 -40 -10 -57 -7
-44 -14 -83 -20 -113 -3 -14 -7 -36 -10 -50 -2 -14 -7 -41 -10 -60 -4 -19 -8
-44 -10 -55 -1 -11 -6 -38 -10 -60 -4 -22 -9 -48 -11 -58 -2 -10 -5 -26 -8
-35 -3 -9 -7 -33 -10 -52 -7 -42 -15 -86 -21 -120 -3 -14 -8 -36 -10 -50 -3
-14 -7 -36 -10 -50 -30 -150 -45 -229 -49 -250 -2 -14 -9 -45 -15 -70 -5 -25
-12 -60 -16 -78 -3 -18 -12 -65 -21 -105 -9 -39 -18 -84 -20 -99 -3 -15 -16
-78 -30 -140 -26 -120 -33 -151 -39 -183 -2 -11 -9 -42 -15 -70 -6 -27 -14
-61 -16 -75 -3 -14 -12 -54 -20 -90 -9 -36 -18 -76 -20 -90 -3 -14 -11 -52
-20 -85 -8 -33 -16 -70 -19 -82 -3 -13 -7 -33 -10 -45 -2 -13 -8 -36 -11 -53
-4 -16 -8 -37 -9 -45 -1 -8 -5 -22 -8 -30 -3 -8 -11 -42 -18 -75 -7 -33 -13
-62 -14 -65 0 -3 -4 -14 -8 -25 -3 -11 -9 -32 -12 -47 -3 -16 -7 -40 -10 -55
-3 -16 -9 -37 -12 -48 -7 -21 -8 -26 -16 -65 -3 -14 -15 -63 -27 -110 -12 -47
-23 -92 -25 -101 -2 -8 -10 -44 -19 -80 -9 -35 -18 -73 -21 -84 -2 -11 -14
-56 -25 -100 -12 -44 -23 -91 -26 -105 -3 -14 -9 -39 -15 -56 -5 -17 -11 -40
-13 -51 -3 -11 -10 -38 -16 -60 -30 -99 77 -238 205 -269 44 -11 187 -10 210
0 11 5 23 9 27 8 18 -4 109 103 136 160 57 122 103 298 127 487 2 19 6 48 9
65 3 17 8 54 12 81 3 28 8 59 10 70 4 18 8 40 20 120 4 29 17 106 29 170 10
59 29 162 40 215 4 23 12 63 21 113 2 10 5 26 8 35 5 17 16 65 20 92 11 67 18
80 39 75 31 -6 86 -15 127 -20 19 -2 50 -7 68 -10 17 -3 49 -8 69 -11 20 -2
50 -7 67 -10 17 -3 47 -8 66 -10 19 -2 46 -6 60 -9 26 -5 72 -12 125 -19 58
-8 120 -17 135 -20 32 -6 121 -19 208 -31 56 -7 72 -15 73 -38 0 -12 2 -29 5
-37 6 -22 25 -120 30 -155 2 -16 6 -46 10 -65 7 -45 11 -74 18 -130 3 -25 8
-65 12 -90 3 -25 7 -58 9 -75 3 -29 9 -88 21 -190 3 -27 7 -68 9 -90 2 -22 6
-69 9 -105 4 -36 9 -126 12 -200 7 -182 10 -203 33 -262 18 -46 85 -104 147
-128 72 -27 85 -29 201 -36 82 -6 96 -4 126 15 42 26 81 75 103 130 23 57 23
216 0 351 -3 14 -7 41 -10 60 -17 110 -32 197 -41 236 -3 12 -7 39 -10 60 -4
21 -8 47 -11 56 -3 10 -7 29 -10 43 -11 66 -31 175 -39 215 -3 14 -10 54 -16
90 -5 36 -14 85 -19 110 -9 41 -20 134 -22 170 -1 33 -22 167 -34 220 -3 14
-8 36 -10 50 -5 31 -16 91 -20 105 -1 6 -5 26 -8 45 -4 19 -8 46 -11 60 -13
75 -17 116 -20 224 -4 140 -14 336 -21 421 -6 82 -14 188 -19 260 -2 33 -6 78
-9 100 -5 39 -16 149 -21 210 -10 114 -17 183 -20 200 -2 11 -7 47 -10 80 -7
69 -12 111 -20 175 -3 25 -7 68 -9 95 -2 28 -7 61 -10 75 -3 14 -8 52 -11 85
-3 33 -7 70 -9 82 -3 12 -7 46 -11 75 -3 29 -8 69 -10 88 -3 19 -8 53 -10 75
-10 80 -14 114 -25 194 -14 101 -17 127 -24 171 -9 63 -31 235 -41 325 -2 17
-6 48 -9 70 -3 22 -8 60 -11 85 -9 80 -17 154 -20 190 -4 35 -12 107 -20 165
-2 17 -6 59 -9 95 -4 36 -8 81 -10 100 -3 19 -7 71 -11 115 -3 44 -8 103 -10
130 -3 28 -7 79 -10 114 -3 36 -7 67 -10 69 -2 3 0 12 5 22 5 10 6 21 2 24 -4
4 -8 22 -9 39 -4 70 -15 378 -17 472 -2 84 -6 109 -26 150 -31 62 -110 118
-197 140 -62 16 -357 25 -440 14z m253 -1284 c2 -37 6 -78 9 -93 2 -15 7 -61
11 -102 3 -41 7 -91 9 -110 13 -145 16 -179 20 -210 3 -32 7 -64 21 -212 2
-27 7 -72 10 -100 3 -29 7 -75 9 -103 2 -27 6 -66 9 -85 3 -19 8 -64 11 -100
3 -36 8 -78 10 -95 2 -16 7 -54 10 -82 10 -101 17 -168 20 -208 3 -22 7 -62 9
-90 3 -27 8 -79 11 -115 3 -36 7 -87 10 -115 3 -27 7 -75 10 -105 3 -30 8 -91
10 -135 3 -44 7 -100 9 -125 11 -138 22 -307 31 -495 4 -85 12 -353 20 -655 2
-102 6 -205 9 -230 3 -25 6 -58 8 -75 2 -16 7 -33 12 -36 5 -4 -1 -12 -13 -18
-11 -7 -21 -8 -21 -4 0 4 -19 8 -43 9 -39 0 -134 8 -232 19 -22 3 -60 7 -85
10 -25 2 -56 6 -70 9 -35 6 -173 29 -185 31 -44 5 -207 56 -232 73 -19 11 -22
20 -17 46 4 17 8 41 9 53 2 13 6 42 10 65 4 24 8 54 10 68 2 14 7 45 10 70 9
61 12 77 20 135 3 28 9 64 11 80 3 17 7 46 10 65 2 19 6 46 9 60 3 14 7 43 10
65 2 22 7 51 10 65 2 13 7 42 10 65 3 22 8 51 10 65 3 14 7 41 10 60 3 19 7
46 10 60 3 14 7 45 10 70 3 25 7 52 10 60 2 8 6 35 9 60 3 25 8 56 11 70 5 27
15 90 21 134 2 15 6 35 8 45 3 9 8 36 11 61 2 25 7 55 9 66 2 12 7 39 10 60 3
22 8 50 11 64 10 53 22 129 31 195 1 11 3 20 4 20 1 0 3 11 5 25 1 14 5 39 9
55 6 30 11 62 21 133 3 20 7 44 10 52 2 8 6 31 9 50 6 38 11 66 27 150 6 30
12 69 14 85 3 17 7 46 11 65 3 19 7 44 9 55 3 18 8 48 19 100 6 32 19 108 22
130 1 11 3 21 4 23 2 1 3 10 4 20 1 9 5 31 9 47 4 17 9 46 12 65 3 19 10 58
15 85 5 28 12 64 14 80 10 61 17 97 30 163 8 37 17 85 20 107 4 23 9 52 12 65
2 14 10 51 16 83 5 32 12 56 15 53 3 -2 7 -34 9 -71z"/>
<path d="M28857 18814 c-2 -2 -32 -6 -68 -8 -66 -5 -85 -8 -179 -28 -61 -13
-59 -13 -80 -20 -8 -3 -44 -16 -80 -28 -126 -43 -286 -121 -395 -192 -145 -95
-285 -258 -371 -433 -16 -33 -32 -61 -36 -63 -5 -2 -8 -9 -8 -16 0 -7 -16 -49
-36 -92 -47 -106 -94 -220 -101 -249 -1 -5 -21 -68 -43 -140 -22 -71 -51 -179
-65 -240 -22 -105 -27 -130 -40 -220 -3 -22 -8 -51 -10 -65 -8 -48 -19 -175
-29 -350 -3 -41 -7 -102 -10 -135 -8 -81 -16 -220 -21 -332 -2 -51 -6 -97 -10
-103 -3 -5 -1 -10 6 -10 8 0 8 -4 1 -12 -7 -9 -9 -336 -8 -1023 3 -909 6
-1104 20 -1255 2 -25 7 -81 11 -125 7 -82 10 -114 19 -175 3 -19 10 -71 16
-115 6 -44 13 -90 16 -102 2 -13 6 -35 9 -50 3 -16 10 -50 15 -78 5 -27 16
-79 25 -115 8 -36 17 -76 20 -89 3 -13 10 -32 16 -43 5 -10 7 -18 5 -18 -3 0
14 -55 38 -122 60 -170 70 -193 85 -212 7 -9 11 -16 7 -16 -21 0 149 -259 217
-331 96 -101 218 -178 362 -227 17 -6 39 -13 50 -18 11 -4 25 -8 30 -10 6 -1
64 -16 130 -33 66 -17 137 -33 159 -37 21 -3 48 -7 60 -10 97 -19 330 -21 411
-4 28 6 64 12 80 15 17 2 39 8 50 13 62 26 114 56 141 80 39 34 94 122 94 150
0 11 4 23 9 26 4 3 8 43 7 89 -1 72 -5 89 -26 120 -14 20 -28 37 -32 37 -4 0
-13 6 -20 13 -61 57 -208 83 -260 46 -38 -27 -137 -62 -160 -56 -10 3 -18 1
-18 -3 0 -5 -10 -7 -22 -5 -13 2 -52 6 -88 9 -74 6 -109 12 -144 26 -13 5 -27
6 -30 3 -3 -4 -6 -2 -6 3 0 5 -9 10 -19 11 -23 2 -151 62 -169 79 -6 7 -21 16
-32 19 -11 3 -20 11 -20 17 0 6 -3 9 -6 6 -12 -12 -153 146 -193 217 -53 91
-132 284 -145 350 -1 6 -5 19 -9 30 -3 11 -8 31 -11 45 -8 40 -15 70 -20 88
-3 9 -8 35 -11 57 -3 23 -7 51 -10 64 -2 13 -7 49 -10 80 -4 31 -8 67 -11 81
-23 135 -23 879 0 1450 3 74 8 272 11 440 2 168 5 305 5 305 1 0 3 102 5 228
4 222 9 365 21 517 6 78 8 101 20 210 4 36 8 79 10 95 1 17 3 30 4 30 1 0 3
24 6 53 2 29 8 71 14 93 6 23 9 43 7 46 -3 2 -1 18 4 35 4 17 11 56 15 87 3
31 8 59 10 62 2 4 6 24 10 45 3 22 7 50 10 64 3 14 6 34 8 45 2 11 7 45 11 75
9 58 11 69 15 73 1 1 4 15 6 31 6 36 60 206 82 261 43 103 127 255 170 306 26
31 68 71 93 88 88 61 106 64 419 65 263 2 288 3 320 21 39 22 100 80 100 95 0
6 5 10 10 10 6 0 10 7 10 15 0 8 4 15 8 15 5 0 15 24 22 54 31 132 -22 242
-145 298 -44 19 -68 22 -187 23 -76 1 -139 0 -141 -1z"/>
<path d="M11397 18740 c-115 -36 -194 -120 -249 -263 -21 -55 -26 -74 -34
-122 -2 -16 -7 -40 -9 -52 -19 -84 -24 -317 -11 -458 3 -38 9 -99 12 -135 7
-80 13 -120 21 -133 4 -6 1 -7 -7 -2 -8 5 -11 4 -7 -2 41 -65 42 -864 3 -1763
-25 -568 -46 -1636 -32 -1658 3 -6 2 -13 -4 -17 -6 -4 -8 -11 -5 -16 3 -5 8
-86 11 -181 7 -266 13 -435 19 -528 3 -47 7 -119 9 -161 2 -42 6 -81 10 -87 3
-6 2 -13 -4 -17 -6 -4 -7 -11 -4 -17 8 -13 12 -114 19 -553 7 -439 8 -453 38
-511 32 -63 62 -95 129 -137 100 -63 93 -62 643 -61 463 1 573 5 600 22 5 4
12 7 15 8 39 7 127 55 170 91 92 79 106 230 29 318 -34 38 -112 80 -174 92
-41 8 -517 7 -777 -1 l-148 -5 -7 27 c-9 37 -9 629 0 832 10 203 16 421 21
688 2 112 7 206 9 209 3 3 2 16 -3 29 -6 14 -6 26 1 29 5 4 6 13 0 22 -5 9 -5
29 -1 45 5 16 5 30 -1 34 -5 3 -6 11 -2 17 9 15 11 738 1 758 -4 9 -4 19 -1
23 7 7 10 66 3 66 -3 0 -6 51 -6 113 -1 61 -3 157 -5 212 l-4 100 135 -2 c74
-1 164 -5 200 -9 36 -4 117 -7 180 -7 93 0 126 4 170 21 60 24 130 83 156 134
25 48 29 137 10 195 -34 103 -118 156 -304 190 -65 12 -416 5 -527 -11 -5 0
-17 35 -26 79 -16 77 -16 103 -4 315 8 156 18 446 19 587 1 73 5 133 9 133 4
0 3 8 -2 18 -5 10 -6 24 -1 32 4 7 4 24 -1 37 -5 12 -5 23 -1 23 7 0 6 601 -2
758 l-5 94 42 -6 c63 -9 99 -15 127 -21 14 -4 32 -7 40 -7 8 0 21 -5 28 -11 6
-5 12 -7 12 -4 0 3 17 1 38 -4 20 -5 48 -12 62 -15 14 -2 40 -9 58 -15 18 -6
39 -12 45 -13 7 -2 19 -5 27 -8 96 -34 289 -92 305 -91 33 1 138 68 193 123
115 115 127 248 29 333 -47 41 -116 87 -131 87 -6 0 -16 4 -21 8 -9 8 -32 17
-140 58 -11 4 -26 9 -32 11 -7 1 -19 5 -25 6 -7 2 -20 6 -28 9 -47 16 -129 39
-195 55 -112 27 -198 45 -225 47 -14 2 -43 6 -65 10 -84 14 -114 17 -235 20
-100 3 -137 0 -183 -14z"/>
<path d="M24591 18739 c-58 -20 -111 -56 -151 -103 -25 -29 -63 -86 -65 -96 0
-3 -6 -15 -13 -27 -7 -13 -10 -23 -6 -23 3 0 1 -7 -6 -15 -7 -8 -9 -15 -5 -15
4 0 2 -7 -5 -15 -7 -8 -9 -15 -5 -15 4 0 2 -7 -5 -15 -7 -8 -10 -15 -7 -15 3
0 1 -15 -4 -32 -5 -18 -12 -58 -15 -88 -3 -30 -8 -68 -10 -85 -10 -82 -5 -274
11 -430 3 -27 7 -79 11 -115 3 -36 7 -81 9 -100 2 -19 7 -73 10 -120 3 -47 8
-96 11 -110 13 -75 0 -760 -30 -1515 -14 -347 -28 -844 -30 -1040 0 -69 -5
-123 -11 -127 -7 -5 -7 -8 0 -8 11 0 13 -106 2 -116 -3 -4 -2 -14 3 -24 5 -10
7 -20 4 -22 -4 -5 -5 -49 -4 -128 0 -8 0 -62 0 -120 0 -58 2 -184 5 -280 3
-96 7 -229 9 -296 2 -67 6 -126 10 -133 4 -6 2 -11 -4 -11 -6 0 -9 -4 -6 -9
17 -26 32 -390 41 -936 6 -401 8 -420 35 -483 24 -55 108 -139 165 -166 84
-40 113 -42 635 -40 493 1 507 2 575 24 39 12 77 28 86 36 8 8 21 14 28 14 6
0 17 4 24 10 7 5 27 22 45 36 69 56 100 174 68 259 -16 41 -102 132 -114 120
-2 -2 -14 1 -26 7 -55 30 -143 37 -413 35 -150 -1 -273 -4 -273 -7 0 -3 -71
-5 -157 -5 l-156 0 -5 50 c-8 80 -6 602 2 815 21 517 29 965 28 1525 -1 433
-6 650 -16 749 -3 21 -3 43 0 50 5 13 214 13 329 0 126 -15 284 -10 345 11
146 49 221 184 181 326 -18 66 -101 145 -171 164 -3 1 -23 6 -45 13 -76 21
-131 26 -270 25 -119 -1 -317 -10 -348 -16 -18 -4 -40 105 -40 203 0 36 3 128
7 205 14 289 27 776 25 980 0 50 0 97 0 105 1 56 1 163 -2 350 -3 214 -2 244
13 235 4 -2 25 -7 46 -10 37 -4 57 -8 107 -21 12 -3 31 -7 42 -9 63 -12 197
-45 260 -66 113 -35 201 -63 210 -65 6 -1 30 -9 53 -18 42 -15 45 -15 98 10
105 50 223 173 229 239 0 6 3 15 7 20 8 13 2 73 -11 108 -34 88 -241 204 -471
263 -8 2 -58 15 -110 29 -80 21 -155 38 -265 61 -11 2 -42 6 -70 9 -27 4 -63
8 -80 11 -16 3 -88 7 -160 9 -105 2 -140 -1 -184 -16z"/>
<path d="M30989 12625 c-3 -2 -24 -6 -47 -9 -98 -12 -207 -91 -276 -199 -31
-48 -39 -69 -64 -152 -15 -51 -8 -185 13 -245 20 -55 26 -64 79 -127 28 -33
116 -100 116 -88 0 3 11 -2 25 -11 19 -12 49 -16 122 -16 54 0 109 3 123 6 14
4 39 9 55 12 53 10 86 22 144 52 48 24 107 96 130 156 38 103 17 297 -45 403
-36 62 -132 155 -186 181 -26 12 -66 24 -90 27 -24 3 -55 8 -69 10 -15 2 -28
2 -30 0z"/>
</g>
</svg>
