<svg width="99" height="26" viewBox="0 0 99 26" fill="none" xmlns="http://www.w3.org/2000/svg">
<path d="M2.744 25.704C1.976 25.704 1.31467 25.5653 0.76 25.288C0.418667 25.096 0.248 24.872 0.248 24.616C0.248 24.36 0.312 24.1573 0.44 24.008C0.568 23.8373 0.749333 23.752 0.984 23.752C1.19733 23.752 1.50667 23.8373 1.912 24.008C2.36 24.1787 2.63733 24.264 2.744 24.264C3.14933 24.264 3.512 24.0933 3.832 23.752C4.17333 23.3893 4.44 22.92 4.632 22.344C5.016 21.2773 5.208 20.3173 5.208 19.464C5.208 18.5467 5.05867 17.5867 4.76 16.584C4.48267 15.56 4.09867 14.568 3.608 13.608L3.096 12.584C2.56267 11.5173 2.14667 10.6747 1.848 10.056C1.57067 9.43733 1.32533 8.76533 1.112 8.04C0.792 7.016 0.632 6.024 0.632 5.064C0.632 4.296 0.76 3.57067 1.016 2.888C1.29333 2.20533 1.69867 1.62933 2.232 1.16C2.76533 0.647998 3.42667 0.391998 4.216 0.391998C4.6 0.391998 4.97333 0.509332 5.336 0.743999C5.69867 0.957333 5.95467 1.23467 6.104 1.576L5.56 2.248C5.00533 2.248 4.58933 2.14133 4.312 1.928C3.928 1.97067 3.58667 2.16267 3.288 2.504C3.01067 2.824 2.79733 3.19733 2.648 3.624C2.52 4.02933 2.456 4.43467 2.456 4.84C2.456 5.65067 2.56267 6.48267 2.776 7.336C3.01067 8.168 3.30933 8.95733 3.672 9.704L5.912 14.184C6.27467 14.952 6.56267 15.816 6.776 16.776C6.98933 17.736 7.096 18.696 7.096 19.656C7.096 21.064 6.75467 22.3867 6.072 23.624C5.70933 24.264 5.24 24.7653 4.664 25.128C4.088 25.512 3.448 25.704 2.744 25.704ZM18.0285 25.288C17.5378 25.288 17.1752 25.2133 16.9405 25.064C16.7058 24.9147 16.5885 24.6373 16.5885 24.232C16.5885 23.592 16.4818 22.504 16.2685 20.968L16.1405 20.296L12.9725 19.816C12.8445 20.3067 12.6632 21.2987 12.4285 22.792C12.3005 23.8373 12.0978 24.5307 11.8205 24.872C11.6712 25.064 11.4578 25.16 11.1805 25.16C10.9245 25.16 10.6898 25.0853 10.4765 24.936C10.2632 24.7653 10.1565 24.5627 10.1565 24.328L10.2205 24.168L10.2525 24.04C11.6605 18.5573 12.7272 13.1493 13.4525 7.816C13.4525 7.73067 13.4632 7.592 13.4845 7.4C13.5058 7.18667 13.5272 6.888 13.5485 6.504C13.6125 5.71467 13.6765 5.08533 13.7405 4.616C13.8258 4.14667 13.9538 3.79467 14.1245 3.56H15.2125C15.5112 3.56 15.7672 3.63467 15.9805 3.784C16.1938 3.912 16.3005 4.104 16.3005 4.36C16.3005 5.98133 16.5245 8.392 16.9725 11.592C17.3992 14.8773 17.6125 17.1813 17.6125 18.504C17.6125 18.632 17.6658 18.9627 17.7725 19.496C17.8792 19.9867 17.9325 20.3067 17.9325 20.456C17.9325 20.6053 18.0392 21.2453 18.2525 22.376C18.4445 23.4 18.5405 24.0613 18.5405 24.36V24.392C18.5405 24.8613 18.3698 25.16 18.0285 25.288ZM15.9165 19.144C15.8525 18.824 15.8205 18.4293 15.8205 17.96C15.8205 16.04 15.6498 13.5867 15.3085 10.6L14.9885 7.272C14.0712 12.2853 13.4418 16.072 13.1005 18.632C13.4205 18.8453 14.3592 19.016 15.9165 19.144ZM24.711 24.904C24.711 22.4507 24.4763 19.912 24.007 17.288C23.559 14.664 22.8443 11.4533 21.863 7.656C21.8203 7.44267 21.7243 7.112 21.575 6.664C21.191 5.46933 20.999 4.712 20.999 4.392C20.999 4.2 21.0737 4.02933 21.223 3.88C21.3937 3.73067 21.575 3.656 21.767 3.656C22.087 3.656 22.3857 3.92267 22.663 4.456C22.9403 4.968 23.1963 5.66133 23.431 6.536C23.6657 7.38933 23.9217 8.456 24.199 9.736C24.455 10.952 24.7643 12.8187 25.127 15.336L25.319 16.584L25.703 19.432C25.7883 20.2213 25.863 20.7867 25.927 21.128C26.375 18.7813 26.951 15.3893 27.655 10.952C28.231 7.15467 28.6363 4.56267 28.871 3.176H29.575C29.767 3.176 29.9377 3.25067 30.087 3.4C30.2363 3.528 30.311 3.688 30.311 3.88C30.311 4.648 30.215 5.48 30.023 6.376C29.8523 7.25067 29.5857 8.30667 29.223 9.544C28.9243 10.6107 28.7217 11.4107 28.615 11.944C28.5297 12.4773 28.4443 13.32 28.359 14.472C28.1883 17.0533 27.9217 19.368 27.559 21.416C27.3243 22.6533 27.015 23.624 26.631 24.328C26.247 25.032 25.8097 25.384 25.319 25.384L24.711 24.904ZM35.929 25.416C35.6517 25.416 35.3957 25.32 35.161 25.128C34.9477 24.936 34.8303 24.7013 34.809 24.424V23.592V22.952C34.7877 22.76 34.777 22.536 34.777 22.28C34.777 21.832 34.745 21.1493 34.681 20.232L34.617 18.184C34.617 17.1387 34.649 15.5813 34.713 13.512C34.7983 11.656 34.841 10.0987 34.841 8.84C34.841 8.54133 34.809 8.09333 34.745 7.496C34.681 6.87733 34.649 6.42933 34.649 6.152C34.649 4.63733 35.097 3.88 35.993 3.88C36.697 3.88 37.5077 4.01867 38.425 4.296C39.3637 4.57333 39.833 4.904 39.833 5.288C39.833 5.50133 39.737 5.704 39.545 5.896C39.3743 6.06667 39.161 6.20533 38.905 6.312C38.009 5.992 37.1983 5.77867 36.473 5.672C36.4943 5.992 36.505 6.45067 36.505 7.048C36.505 7.90133 36.4943 8.66933 36.473 9.352C36.409 10.376 36.377 11.144 36.377 11.656L36.473 12.168L36.985 12.136C37.1557 12.1147 37.369 12.104 37.625 12.104C38.649 12.104 39.161 12.4027 39.161 13C39.161 13.2347 39.065 13.4373 38.873 13.608C38.681 13.7573 38.4357 13.832 38.137 13.832C37.753 13.832 37.4543 13.8107 37.241 13.768H36.441C36.4837 14.3227 36.505 15.1333 36.505 16.2C36.505 17.2667 36.4943 18.2267 36.473 19.08C36.409 20.3813 36.377 21.352 36.377 21.992C36.377 23.1867 36.3983 23.784 36.441 23.784L37.497 23.752C37.8597 23.7307 38.297 23.72 38.809 23.72C39.6197 23.72 40.025 23.976 40.025 24.488C40.025 24.7867 39.8863 25.0107 39.609 25.16C39.353 25.3307 39.033 25.416 38.649 25.416H35.929Z" fill="black"/>
<path d="M46.5588 24.904C46.0894 24.8613 45.7161 24.6907 45.4388 24.392C45.1614 24.072 45.0228 23.6667 45.0228 23.176V22.472C45.0228 22.3013 45.0228 22.0987 45.0228 21.864C45.0441 21.608 45.0441 21.32 45.0228 21L44.7028 15.144L44.6388 13.64C44.5961 12.2747 44.5534 11.272 44.5108 10.632L44.3828 8.936C44.2548 7.48533 44.1694 6.39733 44.1268 5.672C44.0841 5.096 44.0628 3.752 44.0628 1.64L44.0308 1.352C44.0308 1.11733 44.1054 0.957332 44.2548 0.872C44.4041 0.765332 44.6601 0.722665 45.0228 0.743999C45.1721 0.765333 45.3321 0.839999 45.5028 0.967999C45.6948 1.07467 45.8334 1.14933 45.9188 1.192C46.0254 1.27733 46.0788 1.384 46.0788 1.512C46.0788 1.61867 46.0681 1.71467 46.0468 1.8C46.0254 1.88533 46.0148 1.97067 46.0148 2.056C46.0361 3.528 46.0574 5.66133 46.0788 8.456C46.1214 11.2293 46.1321 12.1787 46.1108 11.304C46.1321 11.624 46.1428 12.1147 46.1428 12.776C46.1641 13.2667 46.1854 13.8853 46.2068 14.632C46.2281 15.3573 46.2708 16.2 46.3348 17.16C46.3988 18.248 46.5374 20.008 46.7508 22.44L46.8468 23.432H49.5668V17.832C49.5668 15.72 49.5561 13.8 49.5348 12.072C49.5134 10.3227 49.4708 8.552 49.4068 6.76C49.3214 4.62667 49.2788 3.25067 49.2788 2.632C49.2148 2.184 49.1828 1.94933 49.1828 1.928C49.1828 1.77867 49.2041 1.672 49.2468 1.608C49.3961 1.26667 49.6414 1.096 49.9828 1.096C50.1534 1.096 50.3348 1.16 50.5268 1.288C50.8468 1.50133 51.0068 1.896 51.0068 2.472C50.9854 2.81333 50.9641 3.496 50.9428 4.52C50.9428 5.544 50.9428 6.568 50.9428 7.592V13.288V16.264C50.9428 17.416 50.9641 18.7067 51.0068 20.136C51.0494 21.5653 51.0814 22.6533 51.1028 23.4C51.1028 23.4427 51.2734 23.4853 51.6148 23.528C51.9561 23.5493 52.3188 23.56 52.7028 23.56C53.1721 23.56 53.5774 23.5387 53.9188 23.496C53.9188 23.3253 53.9294 23.1547 53.9508 22.984C53.9721 22.792 53.9828 22.6107 53.9828 22.44V15.528C53.9828 13.5867 53.9614 12.1253 53.9188 11.144L53.7908 7.944C53.7268 7.09067 53.6628 5.14933 53.5988 2.12L53.5668 1.576C53.5668 1.27733 53.6414 1.032 53.7908 0.839998C54.0468 0.583999 54.2708 0.455999 54.4628 0.455999C54.6334 0.455999 54.8041 0.530666 54.9748 0.679998C55.2308 0.871998 55.3374 1.24533 55.2948 1.8C55.2094 2.39733 55.1668 2.83467 55.1668 3.112L55.2628 5.64C55.3054 6.74933 55.3268 7.592 55.3268 8.168L55.5508 18.472V20.52C55.5508 21.864 55.5934 22.8773 55.6788 23.56C55.7214 23.9013 55.6148 24.2213 55.3588 24.52C55.1241 24.8187 54.8254 24.968 54.4628 24.968L46.5588 24.904ZM61.7135 24.936C61.4362 24.8507 61.2868 24.6693 61.2655 24.392V23.912C61.2228 23.016 61.1802 21.672 61.1375 19.88C61.0522 18.3227 60.9988 17.128 60.9775 16.296C60.9135 14.9947 60.8388 13.0427 60.7535 10.44C60.7322 9.992 60.7108 9.37333 60.6895 8.584C60.6682 7.79467 60.6575 7.19733 60.6575 6.792C60.6362 6.55733 60.6255 6.22667 60.6255 5.8C60.6255 5.30933 60.6468 4.94667 60.6895 4.712C60.7748 4.05067 61.1375 3.74133 61.7775 3.784C62.3748 3.784 62.6948 4.12533 62.7375 4.808V5.192L62.7055 13.256V17.064V18.984C62.7055 19.2827 62.7268 19.6347 62.7695 20.04C62.8122 20.424 62.8442 20.7013 62.8655 20.872C62.9722 20.2533 63.1428 19.624 63.3775 18.984C63.6335 18.3227 63.7935 17.9173 63.8575 17.768C64.1775 17 64.4122 16.3707 64.5615 15.88C65.0735 14.2373 65.7348 12.2213 66.5455 9.832C66.7162 9.34133 66.9082 8.744 67.1215 8.04C67.6975 6.22667 68.0922 5.05333 68.3055 4.52C68.4975 4.008 68.7855 3.688 69.1695 3.56C69.3615 3.496 69.5535 3.464 69.7455 3.464C70.0442 3.464 70.3535 3.56 70.6735 3.752V5.288C70.6735 6.888 70.7055 8.54133 70.7695 10.248C70.7908 10.6107 70.8015 11.1547 70.8015 11.88V12.808C70.8015 13 70.7908 13.256 70.7695 13.576C70.7695 13.896 70.7802 14.2693 70.8015 14.696L70.8975 23.336C70.8975 23.656 70.8228 24.008 70.6735 24.392C70.6095 24.5627 70.5028 24.7013 70.3535 24.808C70.2042 24.8933 70.0442 24.936 69.8735 24.936C69.2762 24.936 68.9775 24.6587 68.9775 24.104C68.9775 23.464 69.0095 22.8453 69.0735 22.248C69.1162 21.4373 69.1375 20.8187 69.1375 20.392C69.0948 16.168 69.0415 13.0107 68.9775 10.92C68.9775 10.6 68.9348 10.0773 68.8495 9.352L68.7535 8.2C68.5615 8.41333 68.4548 8.552 68.4335 8.616L67.9215 10.184C67.5802 11.2933 67.3135 12.1147 67.1215 12.648L64.3375 20.392L62.8975 24.328C62.7268 24.776 62.4708 25 62.1295 25C62.0655 25 61.9268 24.9787 61.7135 24.936ZM77.184 25.416C76.9067 25.416 76.6507 25.32 76.416 25.128C76.2027 24.936 76.0853 24.7013 76.064 24.424V23.592V22.952C76.0427 22.76 76.032 22.536 76.032 22.28C76.032 21.832 76 21.1493 75.936 20.232L75.872 18.184C75.872 17.1387 75.904 15.5813 75.968 13.512C76.0533 11.656 76.096 10.0987 76.096 8.84C76.096 8.54133 76.064 8.09333 76 7.496C75.936 6.87733 75.904 6.42933 75.904 6.152C75.904 4.63733 76.352 3.88 77.248 3.88C77.952 3.88 78.7627 4.01867 79.68 4.296C80.6187 4.57333 81.088 4.904 81.088 5.288C81.088 5.50133 80.992 5.704 80.8 5.896C80.6293 6.06667 80.416 6.20533 80.16 6.312C79.264 5.992 78.4533 5.77867 77.728 5.672C77.7493 5.992 77.76 6.45067 77.76 7.048C77.76 7.90133 77.7493 8.66933 77.728 9.352C77.664 10.376 77.632 11.144 77.632 11.656L77.728 12.168L78.24 12.136C78.4107 12.1147 78.624 12.104 78.88 12.104C79.904 12.104 80.416 12.4027 80.416 13C80.416 13.2347 80.32 13.4373 80.128 13.608C79.936 13.7573 79.6907 13.832 79.392 13.832C79.008 13.832 78.7093 13.8107 78.496 13.768H77.696C77.7387 14.3227 77.76 15.1333 77.76 16.2C77.76 17.2667 77.7493 18.2267 77.728 19.08C77.664 20.3813 77.632 21.352 77.632 21.992C77.632 23.1867 77.6533 23.784 77.696 23.784L78.752 23.752C79.1147 23.7307 79.552 23.72 80.064 23.72C80.8747 23.72 81.28 23.976 81.28 24.488C81.28 24.7867 81.1413 25.0107 80.864 25.16C80.608 25.3307 80.288 25.416 79.904 25.416H77.184ZM90.0538 25.448C89.5844 25.448 89.0831 25.3733 88.5498 25.224C88.0378 25.096 87.6431 24.9467 87.3658 24.776C85.9364 23.8587 85.2218 21.352 85.2218 17.256V16.392V15.4V14.632C85.2218 13.7787 85.2324 13.0213 85.2538 12.36C85.2751 11.6773 85.3178 10.9413 85.3818 10.152C85.4458 9.32 85.5418 8.648 85.6698 8.136C85.7978 7.60267 86.0111 7.00533 86.3098 6.344C86.5658 5.72533 86.8751 5.24533 87.2378 4.904C87.6218 4.56267 88.1124 4.27467 88.7098 4.04C89.2431 3.80533 89.9044 3.688 90.6938 3.688C91.0138 3.688 91.2591 3.76267 91.4298 3.912C91.6004 4.06133 91.6858 4.25333 91.6858 4.488C91.6858 4.70133 91.6111 4.89333 91.4618 5.064C91.3338 5.23467 91.1738 5.33067 90.9818 5.352H89.4778C89.0511 5.352 88.6778 5.61867 88.3578 6.152C88.0378 6.68533 87.8138 7.37867 87.6858 8.232C87.4084 9.81067 87.2698 11.0907 87.2698 12.072V12.232L87.2058 15.304C87.1631 16.2213 87.1418 17.256 87.1418 18.408C87.1418 19.2187 87.1738 19.88 87.2378 20.392C87.3444 21.16 87.5258 21.8 87.7818 22.312C88.0378 22.888 88.4751 23.304 89.0938 23.56C89.4138 23.688 89.7658 23.752 90.1498 23.752C90.3844 23.752 90.6191 23.6667 90.8538 23.496C91.1311 23.496 91.3551 23.56 91.5258 23.688C91.7178 23.7947 91.8138 23.9653 91.8138 24.2C91.8138 25.032 91.2271 25.448 90.0538 25.448ZM97.2313 20.232C97.0179 20.232 96.8153 19.9653 96.6233 19.432C96.4313 18.8773 96.3353 18.056 96.3353 16.968C96.3353 16.584 96.3566 15.8587 96.3993 14.792C96.4419 14.0027 96.4633 13.128 96.4633 12.168L96.3993 6.92L96.3353 1.672C96.3353 1.33066 96.4739 1.04266 96.7513 0.807999C97.0286 0.551999 97.3379 0.424 97.6793 0.424C97.8926 0.424 98.0739 0.498666 98.2233 0.647999C98.3726 0.797333 98.4473 0.989333 98.4473 1.224C98.4473 3.10133 98.3406 5.65067 98.1273 8.872C97.8926 12.4347 97.7753 14.984 97.7753 16.52C97.7753 17.6507 97.7539 18.472 97.7113 18.984C97.6899 19.4747 97.6366 19.8053 97.5513 19.976C97.4873 20.1467 97.3806 20.232 97.2313 20.232ZM96.6553 25.704C96.3993 25.704 96.1539 25.5867 95.9193 25.352C95.7059 25.1173 95.5993 24.8293 95.5993 24.488C95.5993 24.104 95.7273 23.7733 95.9833 23.496C96.2393 23.1973 96.5486 23.048 96.9113 23.048C97.2953 23.048 97.6046 23.1973 97.8393 23.496C98.0953 23.7733 98.2233 24.136 98.2233 24.584C98.2233 25.3307 97.7006 25.704 96.6553 25.704Z" fill="#ED7F3D"/>
</svg>
