<svg width="99" height="26" fill="none" xmlns="http://www.w3.org/2000/svg"><path d="M2.74 25.7a4.4 4.4 0 01-1.98-.41c-.34-.2-.51-.42-.51-.67A.9.9 0 01.44 24c.13-.17.3-.26.54-.26.22 0 .53.09.93.26.45.17.73.25.83.25.4 0 .77-.17 1.1-.5.33-.37.6-.84.8-1.42a8.6 8.6 0 00.57-2.88c0-.91-.15-1.87-.45-2.88a15.33 15.33 0 00-1.15-2.97l-.51-1.03c-.54-1.06-.95-1.9-1.25-2.52-.28-.62-.52-1.3-.74-2.02a9.96 9.96 0 01-.48-2.98c0-.76.13-1.49.39-2.17.27-.68.68-1.26 1.21-1.73.54-.51 1.2-.77 1.99-.77.38 0 .75.12 1.12.35.36.22.61.5.76.84l-.54.67c-.55 0-.97-.1-1.25-.32-.38.04-.72.23-1.02.57a3.41 3.41 0 00-.83 2.34c0 .81.1 1.64.32 2.5.23.83.53 1.62.9 2.36l2.23 4.48a13.24 13.24 0 011.18 5.47c0 1.41-.34 2.74-1.02 3.97a4.16 4.16 0 01-1.4 1.5c-.58.4-1.22.58-1.93.58zm15.29-.41c-.5 0-.85-.08-1.09-.23-.23-.15-.35-.42-.35-.83 0-.64-.1-1.73-.32-3.26l-.13-.67-3.17-.48a38 38 0 00-.54 2.97c-.13 1.05-.33 1.74-.61 2.08a.76.76 0 01-.64.29c-.26 0-.49-.07-.7-.22a.76.76 0 01-.32-.61l.06-.16.03-.13A142.33 142.33 0 0013.48 7.4a36.5 36.5 0 01.26-2.78c.09-.47.21-.83.38-1.06h1.1c.3 0 .55.07.76.22.21.13.32.32.32.58 0 1.62.22 4.03.67 7.23.43 3.29.64 5.6.64 6.91 0 .13.06.46.16 1 .1.49.16.8.16.96 0 .15.1.79.32 1.92.2 1.02.3 1.68.3 1.98v.03c0 .47-.18.77-.52.9zm-2.11-6.15c-.07-.32-.1-.71-.1-1.18 0-1.92-.17-4.37-.51-7.36l-.32-3.33a259.2 259.2 0 00-1.89 11.36c.32.22 1.26.39 2.82.51zm8.8 5.76c0-2.45-.24-4.99-.71-7.61a121.12 121.12 0 00-2.44-10.63C21.2 5.46 21 4.71 21 4.4c0-.19.07-.36.22-.51a.81.81 0 01.55-.22c.32 0 .62.26.9.8.27.5.53 1.2.76 2.08a61.5 61.5 0 011.7 8.8l.19 1.24.38 2.85a25 25 0 00.23 1.7c.45-2.35 1.02-5.74 1.73-10.18.57-3.8.98-6.39 1.21-7.77h.7c.2 0 .37.07.52.22a.6.6 0 01.22.48c0 .77-.1 1.6-.29 2.5a33.3 33.3 0 01-.8 3.16c-.3 1.07-.5 1.87-.6 2.4a33.4 33.4 0 00-.26 2.53c-.17 2.58-.44 4.9-.8 6.95-.24 1.23-.54 2.2-.93 2.9-.38.71-.82 1.06-1.31 1.06l-.6-.48zm11.2.52c-.27 0-.52-.1-.76-.3a.991.991 0 01-.35-.7v-1.47c-.02-.19-.03-.41-.03-.67 0-.45-.04-1.13-.1-2.05l-.06-2.05c0-1.04.03-2.6.1-4.67.08-1.85.12-3.41.12-4.67 0-.3-.03-.75-.1-1.34-.06-.62-.1-1.07-.1-1.35 0-1.51.46-2.27 1.35-2.27.7 0 1.52.14 2.43.42.94.27 1.41.6 1.41.99 0 .21-.1.41-.28.6-.18.18-.39.32-.64.42-.9-.32-1.71-.53-2.44-.64.02.32.04.78.04 1.38a74.55 74.55 0 01-.13 4.6l.1.52.5-.03c.18-.03.39-.04.65-.04 1.02 0 1.53.3 1.53.9 0 .23-.1.44-.29.6-.19.16-.43.23-.73.23-.39 0-.69-.02-.9-.06h-.8c.04.55.07 1.36.07 2.43a116.47 116.47 0 01-.13 5.8c0 1.19.02 1.78.06 1.78l1.06-.03c.36-.02.8-.03 1.3-.03.82 0 1.23.26 1.23.77 0 .3-.14.52-.42.67a1.7 1.7 0 01-.96.26h-2.72z" fill="#000"/><path d="M46.56 24.9a1.67 1.67 0 01-1.12-.5 1.79 1.79 0 01-.42-1.22V21.86c.02-.25.02-.54 0-.86l-.32-5.86-.06-1.5a95.1 95.1 0 00-.13-3l-.13-1.7a122.2 122.2 0 01-.25-3.27c-.05-.57-.07-1.92-.07-4.03l-.03-.29c0-.23.08-.4.22-.48.15-.1.41-.15.77-.13.15.03.31.1.48.23l.42.22c.1.09.16.2.16.32 0 .1-.01.2-.03.29-.02.09-.04.17-.04.26.03 1.47.05 3.6.07 6.4.04 2.77.05 3.72.03 2.84.02.32.03.81.03 1.48l.07 1.85c.02.73.06 1.57.12 2.53.07 1.09.2 2.85.42 5.28l.1 1h2.72v-5.6c0-2.12-.01-4.04-.04-5.77-.02-1.75-.06-3.52-.12-5.31-.09-2.13-.13-3.5-.13-4.13l-.1-.7c0-.15.02-.26.07-.32.15-.34.4-.51.73-.51a1 1 0 01.55.19c.32.21.48.6.48 1.18-.02.34-.05 1.03-.07 2.05v11.74c0 1.16.02 2.45.07 3.88l.1 3.26c0 .04.16.09.5.13a17.5 17.5 0 002.3-.03c0-.17.02-.35.04-.52l.03-.54v-6.91c0-1.94-.02-3.4-.06-4.39l-.13-3.2c-.06-.85-.13-2.8-.2-5.82l-.02-.54c0-.3.07-.55.22-.74.26-.26.48-.38.67-.38.17 0 .34.07.51.22.26.2.37.57.32 1.12-.08.6-.12 1.03-.12 1.31l.1 2.53c.04 1.1.06 1.95.06 2.53l.22 10.3v2.05c0 1.34.04 2.36.13 3.04.04.34-.07.66-.32.96-.24.3-.53.45-.9.45l-7.9-.07zm15.15.04c-.27-.09-.42-.27-.44-.55v-.48c-.05-.9-.09-2.24-.13-4.03a391.1 391.1 0 01-.51-14.08c0-.5.02-.85.06-1.09.08-.66.45-.97 1.09-.93.6 0 .91.35.96 1.03v.38l-.03 8.07v5.72c0 .3.02.65.06 1.06l.1.83c.1-.62.27-1.25.5-1.89l.49-1.21c.32-.77.55-1.4.7-1.89a261.9 261.9 0 011.99-6.05c.17-.49.36-1.09.57-1.79.58-1.81.97-2.99 1.19-3.52.19-.51.48-.83.86-.96.2-.06.38-.1.58-.1.3 0 .6.1.92.3v1.53c0 1.6.04 3.25.1 4.96.02.36.03.9.03 1.63v.93c0 .19 0 .45-.03.77l.03 1.12.1 8.64c0 .32-.08.67-.23 1.05a.88.88 0 01-.32.42.95.95 0 01-.48.13c-.6 0-.9-.28-.9-.84 0-.64.04-1.25.1-1.85.05-.81.07-1.43.07-1.86-.05-4.22-.1-7.38-.16-9.47 0-.32-.05-.84-.13-1.57l-.1-1.15c-.19.21-.3.35-.32.42l-.5 1.56-.8 2.47-2.8 7.74-1.43 3.94c-.17.45-.43.67-.77.67l-.42-.06zm15.47.48c-.27 0-.53-.1-.76-.3-.22-.18-.33-.42-.36-.7v-1.47c-.02-.19-.03-.41-.03-.67 0-.45-.03-1.13-.1-2.05l-.06-2.05c0-1.04.03-2.6.1-4.67.08-1.85.13-3.41.13-4.67 0-.3-.04-.75-.1-1.34-.06-.62-.1-1.07-.1-1.35 0-1.51.45-2.27 1.35-2.27.7 0 1.51.14 2.43.42.94.27 1.4.6 1.4.99 0 .21-.09.41-.28.6a1.7 1.7 0 01-.64.42c-.9-.32-1.7-.53-2.43-.64a74.55 74.55 0 01-.1 5.98l.1.52.51-.03c.17-.03.38-.04.64-.04 1.02 0 1.54.3 1.54.9 0 .23-.1.44-.3.6-.18.16-.43.23-.73.23-.38 0-.68-.02-.9-.06h-.8c.05.55.07 1.36.07 2.43a116.47 116.47 0 01-.13 5.8c0 1.19.02 1.78.07 1.78l1.05-.03c.36-.02.8-.03 1.31-.03.81 0 1.22.26 1.22.77 0 .3-.14.52-.42.67a1.7 1.7 0 01-.96.26h-2.72zm12.87.03a5.6 5.6 0 01-1.5-.23 4.3 4.3 0 01-1.18-.44c-1.43-.92-2.15-3.43-2.15-7.52v-2.63a44.67 44.67 0 01.16-4.48 10.23 10.23 0 01.93-3.8c.26-.62.57-1.1.93-1.45.38-.34.87-.63 1.47-.86.53-.23 1.2-.35 1.98-.35.32 0 .57.07.74.22.17.15.26.34.26.58 0 .21-.08.4-.23.57a.68.68 0 01-.48.3h-1.5c-.43 0-.8.26-1.12.8a5.68 5.68 0 00-.67 2.07 23.21 23.21 0 00-.42 3.84v.16l-.06 3.07a67.4 67.4 0 00-.07 3.1c0 .82.03 1.48.1 2 .1.76.29 1.4.54 1.91.26.58.7 1 1.31 1.25.32.13.68.2 1.06.2.23 0 .47-.1.7-.26.28 0 .5.06.68.19.19.1.28.28.28.51 0 .83-.58 1.25-1.76 1.25zm7.18-5.22c-.21 0-.41-.26-.6-.8a7.98 7.98 0 01-.3-2.46c0-.39.03-1.11.07-2.18.04-.79.06-1.66.06-2.62l-.06-5.25-.06-5.25c0-.34.13-.63.41-.86.28-.26.59-.39.93-.39a.78.78 0 01.77.8c0 1.88-.1 4.43-.32 7.65-.24 3.56-.35 6.11-.35 7.65 0 1.13-.03 1.95-.07 2.46-.02.5-.07.83-.16 1-.06.17-.17.25-.32.25zm-.57 5.47c-.26 0-.5-.11-.74-.35a1.24 1.24 0 01-.32-.86c0-.39.13-.72.38-1 .26-.3.57-.44.93-.44.39 0 .7.15.93.45.26.27.38.64.38 1.08 0 .75-.52 1.12-1.56 1.12z" fill="#ED7F3D"/></svg>