<svg width="150" height="150" fill="none" xmlns="http://www.w3.org/2000/svg"><circle cx="75" cy="75" r="75" fill="#fff"/><path d="M75 62.292a4.374 4.374 0 110 8.749 4.374 4.374 0 010-8.75zm0 18.75c6.187 0 12.708 3.041 12.708 4.375v2.291H62.291v-2.291c0-1.334 6.521-4.375 12.709-4.375zm0-22.709a8.331 8.331 0 00-8.334 8.334A8.331 8.331 0 0075 75a8.331 8.331 0 008.333-8.333A8.331 8.331 0 0075 58.333zm0 18.75c-5.563 0-16.667 2.792-16.667 8.334v4.166a2.09 2.09 0 002.083 2.084h29.167a2.09 2.09 0 002.083-2.084v-4.166c0-5.542-11.104-8.334-16.666-8.334z" fill="#B9B9B9"/></svg>