<svg width="545" height="548" viewBox="0 0 545 548" fill="none" xmlns="http://www.w3.org/2000/svg">
<path d="M88.5207 371.669C87.5137 371.669 86.6859 370.85 86.6859 369.834V134.661C86.6859 133.654 87.5052 132.826 88.5207 132.826C89.5362 132.826 90.3554 133.646 90.3554 134.661V369.834C90.3554 370.85 89.5362 371.669 88.5207 371.669Z" fill="black"/>
<path d="M102.721 393.392C101.714 393.392 100.886 392.572 100.886 391.557V333.593C100.886 332.586 101.705 331.758 102.721 331.758C103.736 331.758 104.556 332.578 104.556 333.593V391.557C104.556 392.572 103.736 393.392 102.721 393.392Z" fill="black"/>
<path d="M102.721 297.711C101.714 297.711 100.886 296.892 100.886 295.876V237.913C100.886 236.906 101.705 236.078 102.721 236.078C103.736 236.078 104.556 236.897 104.556 237.913V295.876C104.556 296.892 103.736 297.711 102.721 297.711Z" fill="black"/>
<path d="M102.721 210.907C101.714 210.907 100.886 210.088 100.886 209.072V151.109C100.886 150.102 101.705 149.274 102.721 149.274C103.736 149.274 104.556 150.093 104.556 151.109V209.072C104.556 210.088 103.736 210.907 102.721 210.907Z" fill="black"/>
<path d="M115.607 406.613C114.6 406.613 113.772 405.793 113.772 404.778V99.163C113.772 98.1559 114.591 97.328 115.607 97.328C116.614 97.328 117.442 98.1473 117.442 99.163V404.778C117.433 405.793 116.614 406.613 115.607 406.613Z" fill="black"/>
<path d="M151.824 440.08C150.817 440.08 149.989 439.26 149.989 438.245V67.3605C149.989 66.3534 150.809 65.5255 151.824 65.5255C152.831 65.5255 153.659 66.3448 153.659 67.3605V438.245C153.659 439.252 152.84 440.08 151.824 440.08Z" fill="black"/>
<path d="M164.318 166.353C163.311 166.353 162.483 165.533 162.483 164.518V78.8234C162.483 77.8163 163.302 76.9883 164.318 76.9883C165.325 76.9883 166.152 77.8077 166.152 78.8234V164.518C166.144 165.533 165.325 166.353 164.318 166.353Z" fill="black"/>
<path d="M164.232 280.163C163.225 280.163 162.397 279.343 162.397 278.327V192.642C162.397 191.634 163.217 190.806 164.232 190.806C165.239 190.806 166.067 191.626 166.067 192.642V278.336C166.067 279.343 165.248 280.163 164.232 280.163Z" fill="black"/>
<path d="M164.232 393.392C163.225 393.392 162.397 392.572 162.397 391.557V305.862C162.397 304.855 163.217 304.027 164.232 304.027C165.239 304.027 166.067 304.847 166.067 305.862V391.557C166.067 392.572 165.248 393.392 164.232 393.392Z" fill="black"/>
<path d="M164.232 447.565C163.225 447.565 162.397 446.746 162.397 445.73V412.178C162.397 411.171 163.217 410.343 164.232 410.343C165.239 410.343 166.067 411.162 166.067 412.178V445.73C166.067 446.746 165.248 447.565 164.232 447.565Z" fill="black"/>
<path d="M175.753 454.496C174.746 454.496 173.918 453.676 173.918 452.661V54.054C173.918 53.0469 174.737 52.2189 175.753 52.2189C176.76 52.2189 177.588 53.0383 177.588 54.054V452.669C177.579 453.676 176.76 454.496 175.753 454.496Z" fill="black"/>
<path d="M389.839 450.937C388.832 450.937 388.004 450.117 388.004 449.102V47.8147C388.004 46.8075 388.824 45.9796 389.839 45.9796C390.855 45.9796 391.674 46.799 391.674 47.8147V449.11C391.674 450.117 390.855 450.937 389.839 450.937Z" fill="black"/>
<path d="M402.333 146.799C401.326 146.799 400.498 145.979 400.498 144.963V78.8234C400.498 77.8163 401.317 76.9883 402.333 76.9883C403.348 76.9883 404.167 77.8077 404.167 78.8234V144.963C404.159 145.979 403.34 146.799 402.333 146.799Z" fill="black"/>
<path d="M404.423 280.163C403.416 280.163 402.589 279.343 402.589 278.327V192.642C402.589 191.634 403.408 190.806 404.423 190.806C405.43 190.806 406.258 191.626 406.258 192.642V278.336C406.25 279.343 405.43 280.163 404.423 280.163Z" fill="black"/>
<path d="M402.247 369.493C401.24 369.493 400.413 368.674 400.413 367.658V305.862C400.413 304.855 401.232 304.027 402.247 304.027C403.254 304.027 404.082 304.847 404.082 305.862V367.658C404.082 368.674 403.263 369.493 402.247 369.493Z" fill="black"/>
<path d="M402.247 443.263C401.24 443.263 400.413 442.444 400.413 441.428V401.355C400.413 400.348 401.232 399.52 402.247 399.52C403.254 399.52 404.082 400.339 404.082 401.355V441.428C404.082 442.444 403.263 443.263 402.247 443.263Z" fill="black"/>
<path d="M415.935 432.774C414.928 432.774 414.101 431.954 414.101 430.938V60.5664C414.101 59.5593 414.92 58.7314 415.935 58.7314C416.942 58.7314 417.77 59.5507 417.77 60.5664V430.938C417.77 431.954 416.951 432.774 415.935 432.774Z" fill="black"/>
<path d="M133.57 341.719C132.563 341.719 131.736 340.9 131.736 339.884V251.97C131.736 250.963 132.555 250.135 133.57 250.135C134.577 250.135 135.405 250.955 135.405 251.97V339.884C135.405 340.9 134.577 341.719 133.57 341.719Z" fill="black"/>
<path d="M143.359 267.966C142.889 267.966 142.42 267.786 142.061 267.428L133.545 258.91L125.318 267.138C124.601 267.855 123.441 267.855 122.733 267.138C122.016 266.421 122.016 265.26 122.733 264.551L133.545 253.737L144.656 264.85C145.373 265.567 145.373 266.728 144.656 267.436C144.297 267.786 143.828 267.966 143.359 267.966Z" fill="black"/>
<path d="M143.359 280.888C142.889 280.888 142.42 280.709 142.061 280.35L133.545 271.832L125.318 280.06C124.601 280.777 123.441 280.777 122.733 280.06C122.016 279.343 122.016 278.182 122.733 277.474L133.545 266.66L144.656 277.773C145.373 278.49 145.373 279.65 144.656 280.359C144.297 280.709 143.828 280.888 143.359 280.888Z" fill="black"/>
<path d="M143.359 293.81C142.889 293.81 142.42 293.631 142.061 293.273L133.545 284.754L125.318 292.983C124.601 293.699 123.441 293.699 122.733 292.983C122.016 292.266 122.016 291.105 122.733 290.396L133.545 279.582L144.656 290.695C145.373 291.412 145.373 292.573 144.656 293.281C144.297 293.631 143.828 293.81 143.359 293.81Z" fill="black"/>
<path d="M143.359 306.571C142.889 306.571 142.42 306.391 142.061 306.033L133.545 297.515L125.318 305.743C124.601 306.46 123.441 306.46 122.733 305.743C122.016 305.026 122.016 303.865 122.733 303.157L133.545 292.342L144.656 303.455C145.373 304.172 145.373 305.333 144.656 306.041C144.297 306.391 143.828 306.571 143.359 306.571Z" fill="black"/>
<path d="M143.359 319.818C142.889 319.818 142.42 319.638 142.061 319.28L133.545 310.762L125.318 318.99C124.601 319.707 123.441 319.707 122.733 318.99C122.016 318.273 122.016 317.112 122.733 316.403L133.545 305.589L144.656 316.702C145.373 317.419 145.373 318.58 144.656 319.288C144.297 319.638 143.828 319.818 143.359 319.818Z" fill="black"/>
<path d="M199.502 260.95C198.495 260.95 197.667 260.13 197.667 259.114V183.978C197.667 182.971 198.487 182.143 199.502 182.143C200.509 182.143 201.337 182.963 201.337 183.978V259.114C201.337 260.122 200.518 260.95 199.502 260.95Z" fill="black"/>
<path d="M209.231 226.177C208.761 226.177 208.292 225.997 207.934 225.639L199.417 217.121L191.19 225.349C190.473 226.066 189.313 226.066 188.605 225.349C187.888 224.632 187.888 223.471 188.605 222.763L199.417 211.948L210.528 223.061C211.245 223.778 211.245 224.939 210.528 225.648C210.161 225.998 209.692 226.177 209.231 226.177Z" fill="black"/>
<path d="M209.231 239.108C208.761 239.108 208.292 238.928 207.934 238.57L199.417 230.052L191.19 238.28C190.473 238.997 189.313 238.997 188.605 238.28C187.888 237.563 187.888 236.402 188.605 235.694L199.417 224.879L210.528 235.992C211.245 236.709 211.245 237.87 210.528 238.579C210.161 238.928 209.692 239.108 209.231 239.108Z" fill="black"/>
<path d="M209.231 200.332C208.761 200.332 208.292 200.153 207.934 199.794L199.417 191.276L191.19 199.504C190.473 200.221 189.313 200.221 188.605 199.504C187.888 198.787 187.888 197.626 188.605 196.918L199.417 186.104L210.528 197.217C211.245 197.933 211.245 199.094 210.528 199.803C210.161 200.153 209.692 200.332 209.231 200.332Z" fill="black"/>
<path d="M209.231 213.254C208.761 213.254 208.292 213.075 207.934 212.717L199.417 204.198L191.19 212.426C190.473 213.143 189.313 213.143 188.605 212.426C187.888 211.709 187.888 210.549 188.605 209.84L199.417 199.026L210.528 210.139C211.245 210.856 211.245 212.017 210.528 212.725C210.161 213.075 209.692 213.254 209.231 213.254Z" fill="black"/>
<path d="M189.893 251.731C189.424 251.731 188.954 251.552 188.596 251.194C187.879 250.477 187.879 249.316 188.596 248.607L199.408 237.793L206.287 244.673C207.003 245.39 207.003 246.551 206.287 247.259C205.57 247.976 204.409 247.976 203.701 247.259L199.408 242.966L191.182 251.194C190.832 251.561 190.363 251.731 189.893 251.731Z" fill="black"/>
<path d="M326.8 227.534C325.793 227.534 324.966 226.714 324.966 225.699V167.556C324.966 166.549 325.785 165.721 326.8 165.721C327.807 165.721 328.635 166.541 328.635 167.556V225.699C328.627 226.714 327.807 227.534 326.8 227.534Z" fill="black"/>
<path d="M336.52 211.931C336.051 211.931 335.582 211.752 335.223 211.394L326.706 202.875L318.48 211.103C317.763 211.82 316.602 211.82 315.894 211.103C315.177 210.386 315.177 209.226 315.894 208.517L326.706 197.703L337.817 208.816C338.534 209.533 338.534 210.694 337.817 211.402C337.459 211.752 336.99 211.931 336.52 211.931Z" fill="black"/>
<path d="M336.52 224.854C336.051 224.854 335.582 224.675 335.223 224.316L326.706 215.798L318.48 224.026C317.763 224.743 316.602 224.743 315.894 224.026C315.177 223.309 315.177 222.148 315.894 221.44L326.706 210.625L337.817 221.738C338.534 222.455 338.534 223.616 337.817 224.325C337.459 224.675 336.99 224.854 336.52 224.854Z" fill="black"/>
<path d="M336.52 186.078C336.051 186.078 335.582 185.899 335.223 185.54L326.706 177.022L318.48 185.25C317.763 185.967 316.602 185.967 315.894 185.25C315.177 184.533 315.177 183.372 315.894 182.664L326.706 171.85L337.817 182.963C338.534 183.68 338.534 184.84 337.817 185.549C337.459 185.899 336.99 186.078 336.52 186.078Z" fill="black"/>
<path d="M336.52 199.009C336.051 199.009 335.582 198.83 335.223 198.471L326.706 189.953L318.48 198.181C317.763 198.898 316.602 198.898 315.894 198.181C315.177 197.464 315.177 196.303 315.894 195.595L326.706 184.781L337.817 195.894C338.534 196.611 338.534 197.771 337.817 198.48C337.459 198.83 336.99 199.009 336.52 199.009Z" fill="black"/>
<path d="M291.82 227.534C290.813 227.534 289.986 226.714 289.986 225.699V184.934C289.986 183.927 290.805 183.099 291.82 183.099C292.836 183.099 293.655 183.919 293.655 184.934V225.699C293.655 226.714 292.836 227.534 291.82 227.534Z" fill="black"/>
<path d="M301.54 211.931C301.071 211.931 300.602 211.752 300.243 211.394L291.727 202.875L283.5 211.103C282.783 211.82 281.623 211.82 280.914 211.103C280.197 210.386 280.197 209.226 280.914 208.517L291.727 197.703L302.838 208.816C303.554 209.533 303.554 210.694 302.838 211.402C302.479 211.752 302.01 211.931 301.54 211.931Z" fill="black"/>
<path d="M301.54 224.854C301.071 224.854 300.602 224.675 300.243 224.316L291.727 215.798L283.5 224.026C282.783 224.743 281.623 224.743 280.914 224.026C280.197 223.309 280.197 222.148 280.914 221.44L291.727 210.625L302.838 221.738C303.554 222.455 303.554 223.616 302.838 224.325C302.479 224.675 302.01 224.854 301.54 224.854Z" fill="black"/>
<path d="M301.54 199.009C301.071 199.009 300.602 198.83 300.243 198.471L291.727 189.953L283.5 198.181C282.783 198.898 281.623 198.898 280.914 198.181C280.197 197.464 280.197 196.303 280.914 195.595L291.727 184.781L302.838 195.894C303.554 196.611 303.554 197.771 302.838 198.48C302.479 198.83 302.01 199.009 301.54 199.009Z" fill="black"/>
<path d="M363.129 243.162C362.122 243.162 361.294 242.343 361.294 241.327V194.955C361.294 193.947 362.113 193.12 363.129 193.12C364.144 193.12 364.963 193.939 364.963 194.955V241.327C364.955 242.334 364.135 243.162 363.129 243.162Z" fill="black"/>
<path d="M372.848 241.506C372.379 241.506 371.91 241.327 371.551 240.968L363.035 232.45L360.014 235.472C359.297 236.189 358.136 236.189 357.428 235.472C356.711 234.755 356.711 233.594 357.428 232.886L363.035 227.278L374.146 238.391C374.862 239.108 374.862 240.269 374.146 240.977C373.787 241.327 373.318 241.506 372.848 241.506Z" fill="black"/>
<path d="M372.848 211.308C372.379 211.308 371.91 211.129 371.551 210.771L363.035 202.252L354.808 210.48C354.091 211.197 352.931 211.197 352.222 210.48C351.506 209.763 351.506 208.603 352.222 207.894L363.035 197.08L374.146 208.193C374.862 208.91 374.862 210.071 374.146 210.779C373.787 211.129 373.318 211.308 372.848 211.308Z" fill="black"/>
<path d="M372.848 224.231C372.379 224.231 371.91 224.051 371.551 223.693L363.035 215.175L354.808 223.403C354.091 224.12 352.931 224.12 352.222 223.403C351.506 222.686 351.506 221.525 352.222 220.817L363.035 210.002L374.146 221.115C374.862 221.832 374.862 222.993 374.146 223.702C373.787 224.051 373.318 224.231 372.848 224.231Z" fill="black"/>
<path d="M468.486 341.07C467.479 341.07 466.652 340.251 466.652 339.235V197.285C466.652 196.278 467.471 195.45 468.486 195.45C469.493 195.45 470.321 196.269 470.321 197.285V339.244C470.321 340.251 469.502 341.07 468.486 341.07Z" fill="black"/>
<path d="M478.215 259.038C477.745 259.038 477.276 258.858 476.918 258.5L468.401 249.982L460.174 258.21C459.458 258.927 458.297 258.927 457.589 258.21C456.872 257.493 456.872 256.332 457.589 255.624L468.401 244.809L479.512 255.922C480.229 256.639 480.229 257.8 479.512 258.508C479.145 258.858 478.676 259.038 478.215 259.038Z" fill="black"/>
<path d="M478.215 228.84C477.745 228.84 477.276 228.661 476.918 228.302L468.401 219.784L460.174 228.012C459.458 228.729 458.297 228.729 457.589 228.012C456.872 227.295 456.872 226.134 457.589 225.426L468.401 214.611L479.512 225.724C480.229 226.441 480.229 227.602 479.512 228.311C479.145 228.661 478.676 228.84 478.215 228.84Z" fill="black"/>
<path d="M478.215 214.099C477.745 214.099 477.276 213.92 476.918 213.562L468.401 205.043L460.174 213.271C459.458 213.988 458.297 213.988 457.589 213.271C456.872 212.554 456.872 211.394 457.589 210.685L468.401 199.871L479.512 210.984C480.229 211.701 480.229 212.862 479.512 213.57C479.145 213.92 478.676 214.099 478.215 214.099Z" fill="black"/>
<path d="M478.215 241.762C477.745 241.762 477.276 241.583 476.918 241.224L468.401 232.706L460.174 240.934C459.458 241.651 458.297 241.651 457.589 240.934C456.872 240.217 456.872 239.057 457.589 238.348L468.401 227.534L479.512 238.647C480.229 239.364 480.229 240.525 479.512 241.233C479.145 241.583 478.676 241.762 478.215 241.762Z" fill="black"/>
<path d="M478.215 276.194C477.745 276.194 477.276 276.014 476.918 275.656L468.401 267.138L460.174 275.366C459.458 276.083 458.297 276.083 457.589 275.366C456.872 274.649 456.872 273.488 457.589 272.779L468.401 261.965L479.512 273.078C480.229 273.795 480.229 274.956 479.512 275.664C479.145 276.014 478.676 276.194 478.215 276.194Z" fill="black"/>
<path d="M478.215 291.805C477.745 291.805 477.276 291.625 476.918 291.267L468.401 282.749L460.174 290.977C459.458 291.694 458.297 291.694 457.589 290.977C456.872 290.26 456.872 289.099 457.589 288.391L468.401 277.576L479.512 288.689C480.229 289.406 480.229 290.567 479.512 291.275C479.145 291.625 478.676 291.805 478.215 291.805Z" fill="black"/>
<path d="M478.215 307.808C477.745 307.808 477.276 307.629 476.918 307.271L468.401 298.752L460.174 306.98C459.458 307.697 458.297 307.697 457.589 306.98C456.872 306.263 456.872 305.103 457.589 304.394L468.401 293.58L479.512 304.693C480.229 305.41 480.229 306.571 479.512 307.279C479.145 307.629 478.676 307.808 478.215 307.808Z" fill="black"/>
<path d="M62.1172 341.984C61.1102 341.984 60.2825 341.164 60.2825 340.148V197.285C60.2825 196.278 61.1017 195.45 62.1172 195.45C63.1327 195.45 63.952 196.269 63.952 197.285V340.157C63.952 341.164 63.1327 341.984 62.1172 341.984Z" fill="black"/>
<path d="M71.8372 259.038C71.3678 259.038 70.8985 258.858 70.5401 258.5L62.0234 249.982L53.7968 258.21C53.08 258.927 51.9194 258.927 51.2111 258.21C50.4943 257.493 50.4943 256.332 51.2111 255.624L62.0234 244.809L73.1343 255.922C73.8511 256.639 73.8511 257.8 73.1343 258.508C72.7759 258.858 72.3065 259.038 71.8372 259.038Z" fill="black"/>
<path d="M71.8372 228.84C71.3678 228.84 70.8985 228.661 70.5401 228.302L62.0234 219.784L53.7968 228.012C53.08 228.729 51.9194 228.729 51.2111 228.012C50.4943 227.295 50.4943 226.134 51.2111 225.426L62.0234 214.611L73.1343 225.724C73.8511 226.441 73.8511 227.602 73.1343 228.311C72.7759 228.661 72.3065 228.84 71.8372 228.84Z" fill="black"/>
<path d="M71.8372 214.099C71.3678 214.099 70.8985 213.92 70.5401 213.562L62.0234 205.043L53.7968 213.271C53.08 213.988 51.9194 213.988 51.2111 213.271C50.4943 212.554 50.4943 211.394 51.2111 210.685L62.0234 199.871L73.1343 210.984C73.8511 211.701 73.8511 212.862 73.1343 213.57C72.7759 213.92 72.3065 214.099 71.8372 214.099Z" fill="black"/>
<path d="M71.8372 241.762C71.3678 241.762 70.8985 241.583 70.5401 241.224L62.0234 232.706L53.7968 240.934C53.08 241.651 51.9194 241.651 51.2111 240.934C50.4943 240.217 50.4943 239.057 51.2111 238.348L62.0234 227.534L73.1343 238.647C73.8511 239.364 73.8511 240.525 73.1343 241.233C72.7759 241.583 72.3065 241.762 71.8372 241.762Z" fill="black"/>
<path d="M71.8372 276.194C71.3678 276.194 70.8985 276.014 70.5401 275.656L62.0234 267.138L53.7968 275.366C53.08 276.083 51.9194 276.083 51.2111 275.366C50.4943 274.649 50.4943 273.488 51.2111 272.779L62.0234 261.965L73.1343 273.078C73.8511 273.795 73.8511 274.956 73.1343 275.664C72.7759 276.014 72.3065 276.194 71.8372 276.194Z" fill="black"/>
<path d="M71.8372 291.805C71.3678 291.805 70.8985 291.625 70.5401 291.267L62.0234 282.749L53.7968 290.977C53.08 291.694 51.9194 291.694 51.2111 290.977C50.4943 290.26 50.4943 289.099 51.2111 288.391L62.0234 277.576L73.1343 288.689C73.8511 289.406 73.8511 290.567 73.1343 291.275C72.7759 291.625 72.3065 291.805 71.8372 291.805Z" fill="black"/>
<path d="M71.8372 307.808C71.3678 307.808 70.8985 307.629 70.5401 307.271L62.0234 298.752L53.7968 306.98C53.08 307.697 51.9194 307.697 51.2111 306.98C50.4943 306.263 50.4943 305.103 51.2111 304.394L62.0234 293.58L73.1343 304.693C73.8511 305.41 73.8511 306.571 73.1343 307.279C72.7759 307.629 72.3065 307.808 71.8372 307.808Z" fill="black"/>
<path d="M436.143 340.737C435.136 340.737 434.309 339.918 434.309 338.902V233.884C434.309 232.877 435.128 232.049 436.143 232.049C437.159 232.049 437.978 232.868 437.978 233.884V338.911C437.97 339.918 437.15 340.737 436.143 340.737Z" fill="black"/>
<path d="M445.863 284.772C445.394 284.772 444.925 284.592 444.566 284.234L436.049 275.716L427.823 283.944C427.106 284.661 425.946 284.661 425.237 283.944C424.52 283.227 424.52 282.066 425.237 281.357L436.049 270.543L447.16 281.656C447.877 282.373 447.877 283.534 447.16 284.242C446.802 284.592 446.333 284.772 445.863 284.772Z" fill="black"/>
<path d="M445.863 261.095C445.394 261.095 444.925 260.915 444.566 260.557L436.049 252.039L427.823 260.267C427.106 260.984 425.946 260.984 425.237 260.267C424.52 259.55 424.52 258.389 425.237 257.681L436.049 246.866L447.16 257.979C447.877 258.696 447.877 259.857 447.16 260.565C446.802 260.915 446.333 261.095 445.863 261.095Z" fill="black"/>
<path d="M445.863 249.965C445.394 249.965 444.925 249.785 444.566 249.427L436.049 240.909L427.823 249.137C427.106 249.854 425.946 249.854 425.237 249.137C424.52 248.42 424.52 247.259 425.237 246.55L436.049 235.736L447.16 246.849C447.877 247.566 447.877 248.727 447.16 249.435C446.802 249.785 446.333 249.965 445.863 249.965Z" fill="black"/>
<path d="M445.863 271.849C445.394 271.849 444.925 271.67 444.566 271.311L436.049 262.793L427.823 271.021C427.106 271.738 425.946 271.738 425.237 271.021C424.52 270.304 424.52 269.143 425.237 268.435L436.049 257.621L447.16 268.734C447.877 269.451 447.877 270.612 447.16 271.32C446.802 271.67 446.333 271.849 445.863 271.849Z" fill="black"/>
<path d="M445.863 297.592C445.394 297.592 444.925 297.412 444.566 297.054L436.049 288.536L427.823 296.764C427.106 297.481 425.945 297.481 425.237 296.764C424.529 296.047 424.52 294.886 425.237 294.177L436.049 283.363L447.16 294.476C447.877 295.193 447.877 296.354 447.16 297.062C446.802 297.412 446.333 297.592 445.863 297.592Z" fill="black"/>
<path d="M445.863 308.85C445.394 308.85 444.925 308.67 444.566 308.312L436.049 299.794L427.823 308.022C427.106 308.739 425.946 308.739 425.237 308.022C424.52 307.305 424.52 306.144 425.237 305.435L436.049 294.621L447.16 305.734C447.877 306.451 447.877 307.612 447.16 308.32C446.802 308.67 446.333 308.85 445.863 308.85Z" fill="black"/>
<path d="M445.863 320.509C445.394 320.509 444.925 320.33 444.566 319.971L436.049 311.453L427.823 319.681C427.106 320.398 425.945 320.398 425.237 319.681C424.529 318.964 424.52 317.803 425.237 317.095L436.049 306.28L447.16 317.393C447.877 318.11 447.877 319.271 447.16 319.98C446.802 320.33 446.333 320.509 445.863 320.509Z" fill="black"/>
<path d="M87.7868 341.719H56.6386C55.6316 341.719 54.8038 340.9 54.8038 339.884C54.8038 338.877 55.623 338.049 56.6386 338.049H87.7868C88.7938 338.049 89.6215 338.868 89.6215 339.884C89.613 340.9 88.7938 341.719 87.7868 341.719Z" fill="black"/>
<path d="M151.278 341.429H116.059C115.052 341.429 114.224 340.609 114.224 339.594C114.224 338.578 115.044 337.759 116.059 337.759H151.286C152.293 337.759 153.121 338.578 153.121 339.594C153.121 340.609 152.293 341.429 151.278 341.429Z" fill="black"/>
<path d="M191.003 341.429H175.753C174.746 341.429 173.918 340.609 173.918 339.594C173.918 338.578 174.737 337.759 175.753 337.759H191.003C192.01 337.759 192.837 338.578 192.837 339.594C192.837 340.609 192.01 341.429 191.003 341.429Z" fill="black"/>
<path d="M388.824 341.429H373.574C372.567 341.429 371.739 340.609 371.739 339.594C371.739 338.578 372.558 337.759 373.574 337.759H388.824C389.831 337.759 390.658 338.578 390.658 339.594C390.658 340.609 389.831 341.429 388.824 341.429Z" fill="black"/>
<path d="M475.305 341.429H416.618C415.611 341.429 414.783 340.609 414.783 339.594C414.783 338.578 415.603 337.759 416.618 337.759H475.313C476.32 337.759 477.148 338.578 477.148 339.594C477.148 340.609 476.32 341.429 475.305 341.429Z" fill="black"/>
<path d="M488.012 341.429H474.929C473.922 341.429 473.095 340.609 473.095 339.594C473.095 338.578 473.914 337.759 474.929 337.759H488.012C489.019 337.759 489.846 338.578 489.846 339.594C489.846 340.609 489.027 341.429 488.012 341.429Z" fill="black"/>
<path d="M190.422 466.607C189.577 466.607 188.818 466.019 188.63 465.156C188.417 464.166 189.048 463.193 190.038 462.98C201.047 460.624 223.866 438.979 224.097 438.765L224.25 438.637C268.199 405.128 262.362 355.341 262.294 354.838C262.166 353.831 262.874 352.917 263.872 352.789C264.879 352.653 265.792 353.37 265.92 354.368C265.989 354.906 267.55 367.632 263.497 384.814C259.759 400.647 250.312 423.325 226.546 441.48C224.83 443.101 202.6 464.03 190.806 466.556C190.678 466.599 190.55 466.607 190.422 466.607Z" fill="black"/>
<path d="M285.855 420.107C285.625 420.107 285.386 420.065 285.156 419.971C284.217 419.587 283.773 418.52 284.157 417.581C300.474 377.892 291.718 355.529 291.633 355.307C291.249 354.377 291.701 353.301 292.631 352.917C293.561 352.533 294.628 352.977 295.021 353.907C295.413 354.863 304.51 377.747 287.554 418.972C287.263 419.68 286.581 420.107 285.855 420.107Z" fill="black"/>
<path d="M141.763 370.005H124.03C123.023 370.005 122.195 369.186 122.195 368.17C122.195 367.163 123.014 366.335 124.03 366.335H141.763C142.77 366.335 143.598 367.154 143.598 368.17C143.589 369.186 142.77 370.005 141.763 370.005Z" fill="black"/>
<path d="M243.707 370.005H204.256C203.249 370.005 202.421 369.186 202.421 368.17C202.421 367.163 203.24 366.335 204.256 366.335H243.707C244.714 366.335 245.542 367.154 245.542 368.17C245.542 369.186 244.723 370.005 243.707 370.005Z" fill="black"/>
<path d="M220.137 425.006H193.716C192.709 425.006 191.882 424.187 191.882 423.171C191.882 422.164 192.701 421.336 193.716 421.336H220.137C221.144 421.336 221.972 422.156 221.972 423.171C221.972 424.187 221.152 425.006 220.137 425.006Z" fill="black"/>
<path d="M192.778 370.005H185.899C184.892 370.005 184.065 369.186 184.065 368.17C184.065 367.163 184.884 366.335 185.899 366.335H192.778C193.785 366.335 194.612 367.154 194.612 368.17C194.604 369.186 193.785 370.005 192.778 370.005Z" fill="black"/>
<path d="M216.612 394.476H209.734C208.727 394.476 207.899 393.656 207.899 392.641C207.899 391.633 208.719 390.805 209.734 390.805H216.612C217.619 390.805 218.447 391.625 218.447 392.641C218.447 393.656 217.628 394.476 216.612 394.476Z" fill="black"/>
<path d="M241.232 394.501H225.667C224.66 394.501 223.832 393.682 223.832 392.666C223.832 391.659 224.651 390.831 225.667 390.831H241.232C242.239 390.831 243.067 391.65 243.067 392.666C243.059 393.682 242.239 394.501 241.232 394.501Z" fill="black"/>
<path d="M207.695 438.595H200.816C199.809 438.595 198.982 437.775 198.982 436.76C198.982 435.744 199.801 434.924 200.816 434.924H207.695C208.702 434.924 209.529 435.744 209.529 436.76C209.529 437.775 208.702 438.595 207.695 438.595Z" fill="black"/>
<path d="M248.836 382.159H189.833C188.826 382.159 187.999 381.34 187.999 380.324C187.999 379.317 188.818 378.489 189.833 378.489H248.836C249.843 378.489 250.671 379.308 250.671 380.324C250.671 381.34 249.851 382.159 248.836 382.159Z" fill="black"/>
<path d="M232.852 411.521H186.881C185.874 411.521 185.046 410.701 185.046 409.686C185.046 408.678 185.865 407.85 186.881 407.85H232.852C233.859 407.85 234.687 408.67 234.687 409.686C234.678 410.701 233.859 411.521 232.852 411.521Z" fill="black"/>
<path d="M137.325 390.712H128.279C127.272 390.712 126.445 389.892 126.445 388.877C126.445 387.861 127.264 387.041 128.279 387.041H137.325C138.332 387.041 139.16 387.861 139.16 388.877C139.16 389.892 138.332 390.712 137.325 390.712Z" fill="black"/>
<path d="M260.732 478.497C259.725 478.497 258.897 477.678 258.897 476.662V454.086L259.64 453.54C259.793 453.429 259.99 453.292 260.228 453.13C262.225 451.79 266.381 449.008 264.214 442.214C262.123 435.667 263.104 430.682 263.266 429.94C265.093 418.656 277.561 416.172 283.952 416.437H310.415L321.552 400.655C322.132 399.827 323.276 399.631 324.104 400.211C324.931 400.792 325.128 401.936 324.547 402.763L312.31 420.099H283.867C283.176 420.073 268.592 419.629 266.868 430.58L266.834 430.734C266.825 430.768 265.81 435.189 267.687 441.104C270.554 450.117 264.871 454.402 262.541 455.981V476.671C262.567 477.678 261.747 478.497 260.732 478.497Z" fill="black"/>
<path d="M326.459 478.497C326.305 478.497 326.143 478.48 325.981 478.437C325.008 478.173 324.428 477.174 324.684 476.193L329.267 459.062L326.869 440.489L327.44 439.858C330.743 436.247 330.256 427.115 329.838 425.109C329.463 423.316 328.678 417.615 329.506 415.14C330.197 413.057 332.842 409.677 333.141 409.293C333.764 408.499 334.916 408.363 335.71 408.994C336.503 409.626 336.64 410.77 336.008 411.563C335.027 412.801 333.337 415.182 332.97 416.292C332.578 417.478 332.885 421.84 333.414 424.349C333.781 426.09 334.737 436.29 330.7 441.642L332.979 459.301L328.208 477.131C328.004 477.959 327.27 478.497 326.459 478.497Z" fill="black"/>
<path d="M320.613 478.497C320.477 478.497 320.34 478.48 320.195 478.446C319.214 478.215 318.599 477.234 318.83 476.252L322.499 460.436L317.089 443.835C316.773 442.871 317.302 441.838 318.267 441.531C319.231 441.215 320.263 441.744 320.571 442.709L326.297 460.283L322.397 477.089C322.201 477.925 321.45 478.497 320.613 478.497Z" fill="black"/>
<path d="M313.607 478.497C312.677 478.497 311.883 477.797 311.789 476.85L308.675 446.678C308.572 445.67 309.298 444.774 310.305 444.672C311.312 444.561 312.208 445.303 312.31 446.302L315.425 476.474C315.527 477.481 314.802 478.378 313.795 478.48C313.735 478.497 313.667 478.497 313.607 478.497Z" fill="black"/>
<path d="M318.898 478.002C317.891 478.002 317.063 477.183 317.063 476.167V448.18C317.063 447.173 317.883 446.345 318.898 446.345C319.914 446.345 320.733 447.164 320.733 448.18V476.167C320.733 477.183 319.914 478.002 318.898 478.002Z" fill="black"/>
<path d="M328.797 442.931C328.021 442.931 327.304 442.436 327.056 441.659L326.374 439.516C326.066 438.552 326.595 437.519 327.56 437.212C328.524 436.896 329.557 437.434 329.864 438.398L330.547 440.541C330.854 441.505 330.325 442.538 329.36 442.845C329.164 442.905 328.976 442.931 328.797 442.931Z" fill="black"/>
<path d="M266.373 478.497C266.304 478.497 266.236 478.497 266.159 478.489C265.152 478.378 264.436 477.464 264.547 476.466C264.76 474.622 266.603 458.448 266.902 456.894L267.149 455.64L268.412 455.435C278.747 453.779 283.039 442.094 283.082 441.975L283.602 440.507L298.784 443.306C309.63 445.312 319.419 444.236 319.512 444.219C320.511 444.1 321.424 444.825 321.535 445.833C321.646 446.84 320.929 447.744 319.922 447.855C319.504 447.907 309.485 449.008 298.11 446.899L285.915 444.646C284.345 448.103 279.626 456.604 270.315 458.781C269.889 462.041 268.865 470.832 268.173 476.867C268.088 477.806 267.294 478.497 266.373 478.497Z" fill="black"/>
<path d="M281.734 478.258C280.829 478.258 280.044 477.584 279.924 476.662C279.899 476.491 277.731 459.924 277.373 457.594L277.134 456.092L278.567 455.58C285.796 453.011 287.366 443.204 287.383 443.11C287.537 442.111 288.467 441.42 289.465 441.573C290.464 441.727 291.155 442.657 291.001 443.656C290.933 444.117 289.26 454.547 281.196 458.448C281.844 463.082 283.474 475.578 283.56 476.184C283.688 477.191 282.988 478.104 281.981 478.241C281.887 478.25 281.81 478.258 281.734 478.258Z" fill="black"/>
<path d="M276.647 478.258C275.871 478.258 275.145 477.755 274.898 476.978L269.607 460.155L269.761 456.442C269.803 455.435 270.623 454.649 271.664 454.692C272.671 454.735 273.456 455.588 273.413 456.596L273.285 459.668L278.388 475.877C278.696 476.841 278.158 477.874 277.194 478.173C277.014 478.233 276.835 478.258 276.647 478.258Z" fill="black"/>
<path d="M325.845 404.47C322.26 404.47 319.342 401.551 319.342 397.967C319.342 394.382 322.26 391.463 325.845 391.463C327.415 391.463 328.934 392.035 330.12 393.067C330.879 393.733 330.956 394.885 330.299 395.654C329.633 396.413 328.481 396.499 327.713 395.833C327.193 395.38 326.536 395.133 325.845 395.133C324.274 395.133 323.003 396.405 323.003 397.975C323.003 399.546 324.274 400.817 325.845 400.817C326.851 400.817 327.679 401.637 327.679 402.652C327.679 403.651 326.86 404.47 325.845 404.47Z" fill="black"/>
<path d="M341.615 414.619C341.214 414.619 340.787 414.585 340.326 414.517C336.623 413.962 333.696 412.033 333.568 411.947C332.723 411.384 332.501 410.249 333.056 409.404C333.619 408.559 334.754 408.337 335.599 408.892C335.616 408.909 337.997 410.454 340.864 410.889C341.717 411.017 342.272 410.923 342.622 410.778C342.528 410.573 342.443 410.36 342.349 410.146C341.888 409.097 341.376 407.919 340.813 406.562C340.582 405.998 340.386 405.469 340.198 404.94C339.678 403.497 339.183 402.123 337.672 399.844C336.094 397.454 334.037 394.706 332.202 394.689C332.185 394.689 332.168 394.689 332.151 394.689C330.606 394.689 329.992 395.321 329.966 395.355C329.335 396.149 328.208 396.251 327.415 395.619C326.621 394.988 326.51 393.81 327.142 393.016C327.304 392.811 328.823 391.027 332.151 391.027C332.177 391.027 332.211 391.027 332.236 391.027C335.769 391.062 338.406 394.314 340.727 397.83C342.477 400.476 343.074 402.123 343.646 403.702C343.817 404.18 343.987 404.658 344.201 405.17C344.747 406.502 345.25 407.646 345.703 408.67C345.984 409.319 346.249 409.916 346.488 410.471L346.786 411.188L346.479 411.905C346.01 413.006 344.499 414.619 341.615 414.619Z" fill="black"/>
<path d="M339.993 394.706C335.692 394.706 331.588 394.646 328.951 394.476L328.592 394.45L328.268 394.296C314.64 387.682 311.738 375.16 311.627 374.631C311.405 373.641 312.037 372.668 313.018 372.446C314 372.224 314.981 372.847 315.203 373.837C315.229 373.948 317.848 384.993 329.548 390.848C336.495 391.258 353.153 390.925 356.959 390.84L360.884 386.512C361.567 385.761 362.719 385.71 363.47 386.384C364.221 387.067 364.272 388.219 363.598 388.97L358.623 394.459L357.838 394.476C357.266 394.493 348.271 394.706 339.993 394.706Z" fill="black"/>
<path d="M316.227 382.654C315.8 382.654 315.365 382.501 315.015 382.202C314.256 381.536 314.179 380.375 314.853 379.616L320.647 373.026C321.313 372.267 322.474 372.19 323.233 372.864C323.993 373.53 324.07 374.691 323.395 375.451L317.601 382.04C317.243 382.449 316.73 382.654 316.227 382.654Z" fill="black"/>
<path d="M325.025 392.12C324.454 392.12 323.89 391.847 323.532 391.343C322.943 390.515 323.139 389.372 323.967 388.791C324.855 388.16 325.059 384.728 324.65 382.082C324.496 381.084 325.179 380.145 326.177 379.991C327.167 379.846 328.115 380.52 328.268 381.519C328.473 382.834 329.318 389.483 326.083 391.779C325.759 392.009 325.392 392.12 325.025 392.12Z" fill="black"/>
<path d="M336.835 394.476C335.828 394.476 335 393.656 335 392.641V376.005C335 374.998 335.819 374.17 336.835 374.17C337.85 374.17 338.67 374.99 338.67 376.005V392.641C338.661 393.656 337.842 394.476 336.835 394.476Z" fill="black"/>
<path d="M337.125 386.162C336.118 386.162 335.299 385.343 335.29 384.336C335.29 383.329 336.101 382.509 337.108 382.501C337.509 382.492 340.982 382.338 341.793 378.933C342.032 377.951 343.022 377.345 344.003 377.576C344.985 377.815 345.59 378.796 345.36 379.786C344.165 384.822 339.455 386.162 337.125 386.162C337.133 386.162 337.133 386.162 337.125 386.162Z" fill="black"/>
<path d="M349.85 392.12C349.278 392.12 348.715 391.855 348.357 391.36L345.319 387.118C344.73 386.299 344.917 385.155 345.737 384.566C346.556 383.977 347.699 384.165 348.288 384.984L351.326 389.226C351.915 390.046 351.727 391.19 350.908 391.779C350.592 392.009 350.217 392.12 349.85 392.12Z" fill="black"/>
<path d="M347.179 394.476C346.718 394.476 346.257 394.305 345.899 393.955C345.173 393.247 345.156 392.086 345.865 391.369L354.322 382.68C355.03 381.954 356.191 381.937 356.907 382.646C357.633 383.354 357.65 384.515 356.942 385.232L348.485 393.921C348.135 394.288 347.657 394.476 347.179 394.476Z" fill="black"/>
<path d="M260.544 444.151C259.537 444.151 258.709 443.332 258.709 442.316V435.488C258.709 430.29 262.729 428.079 264.862 427.635C265.844 427.43 266.825 428.062 267.03 429.052C267.235 430.034 266.603 430.998 265.622 431.212C265.28 431.288 262.379 432.057 262.379 435.479V442.307C262.379 443.332 261.56 444.151 260.544 444.151Z" fill="black"/>
<path d="M368.206 425.006H344.789C343.782 425.006 342.955 424.187 342.955 423.171C342.955 422.164 343.774 421.336 344.789 421.336H368.206C369.213 421.336 370.041 422.156 370.041 423.171C370.032 424.187 369.213 425.006 368.206 425.006Z" fill="black"/>
<path d="M378.182 370.005H333.047C332.04 370.005 331.212 369.186 331.212 368.17C331.212 367.163 332.031 366.335 333.047 366.335H378.182C379.189 366.335 380.017 367.154 380.017 368.17C380.017 369.186 379.198 370.005 378.182 370.005Z" fill="black"/>
<path d="M380.503 381.186H365.774C364.767 381.186 363.939 380.367 363.939 379.351C363.939 378.344 364.758 377.516 365.774 377.516H380.503C381.51 377.516 382.338 378.335 382.338 379.351C382.329 380.367 381.51 381.186 380.503 381.186Z" fill="black"/>
<path d="M377.849 411.521H363.129C362.122 411.521 361.294 410.701 361.294 409.686C361.294 408.678 362.113 407.85 363.129 407.85H377.849C378.856 407.85 379.684 408.67 379.684 409.686C379.684 410.701 378.865 411.521 377.849 411.521Z" fill="black"/>
<path d="M376.032 438.321H352.615C351.608 438.321 350.78 437.502 350.78 436.486C350.78 435.479 351.599 434.651 352.615 434.651H376.032C377.039 434.651 377.866 435.471 377.866 436.486C377.866 437.502 377.047 438.321 376.032 438.321Z" fill="black"/>
<path d="M453.979 370.005H429.76C428.753 370.005 427.925 369.186 427.925 368.17C427.925 367.163 428.745 366.335 429.76 366.335H453.979C454.986 366.335 455.814 367.154 455.814 368.17C455.805 369.186 454.986 370.005 453.979 370.005Z" fill="black"/>
<path d="M441.451 382.159H428.096C427.089 382.159 426.261 381.34 426.261 380.324C426.261 379.317 427.08 378.489 428.096 378.489H441.451C442.458 378.489 443.286 379.308 443.286 380.324C443.286 381.34 442.467 382.159 441.451 382.159Z" fill="black"/>
<path d="M309.605 133.953C292.162 133.953 277.97 119.759 277.97 102.313C277.97 84.8664 292.162 70.6722 309.605 70.6722C327.048 70.6722 341.239 84.8664 341.239 102.313C341.248 119.759 327.056 133.953 309.605 133.953ZM309.605 74.3253C294.176 74.3253 281.631 86.8808 281.631 102.304C281.631 117.736 294.184 130.283 309.605 130.283C325.025 130.283 337.578 117.727 337.578 102.304C337.587 86.8808 325.034 74.3253 309.605 74.3253Z" fill="black"/>
<path d="M269.129 88.0501C268.976 88.0501 268.822 88.033 268.66 87.9904L189.637 67.1898C188.656 66.9338 188.076 65.9352 188.332 64.9536C188.588 63.972 189.586 63.3916 190.567 63.6477L269.59 84.4482C270.571 84.7043 271.152 85.7029 270.896 86.6845C270.682 87.5124 269.94 88.0501 269.129 88.0501Z" fill="black"/>
<path d="M277.996 74.3253C277.526 74.3253 277.057 74.1461 276.699 73.7876L244.535 41.4815C243.818 40.7646 243.827 39.6038 244.543 38.8953C245.26 38.1869 246.421 38.1869 247.129 38.9039L279.293 71.21C280.01 71.9269 280.001 73.0877 279.284 73.7962C278.934 74.1461 278.465 74.3253 277.996 74.3253Z" fill="black"/>
<path d="M292.418 64.7573C291.795 64.7573 291.189 64.4415 290.848 63.8696L278.235 42.796C277.714 41.9254 277.996 40.8073 278.866 40.2866C279.737 39.7659 280.855 40.0476 281.375 40.9182L293.988 61.9918C294.509 62.8624 294.227 63.9806 293.356 64.5012C293.066 64.6719 292.742 64.7573 292.418 64.7573Z" fill="black"/>
<path d="M309.605 61.9833C308.598 61.9833 307.77 61.1639 307.77 60.1482V40.1842C307.77 39.177 308.589 38.3491 309.605 38.3491C310.62 38.3491 311.44 39.1685 311.44 40.1842V60.1482C311.44 61.1639 310.62 61.9833 309.605 61.9833Z" fill="black"/>
<path d="M324.855 64.7573C324.547 64.7573 324.24 64.6805 323.95 64.5183C323.071 64.0232 322.764 62.9051 323.259 62.026L333.798 43.4446C334.293 42.5655 335.411 42.2582 336.29 42.7533C337.169 43.2483 337.476 44.3665 336.981 45.2456L326.442 63.8269C326.109 64.4244 325.495 64.7573 324.855 64.7573Z" fill="black"/>
<path d="M339.413 74.3253C338.927 74.3253 338.44 74.1376 338.082 73.7535C337.382 73.0194 337.416 71.8586 338.15 71.1673L355.201 55.01C355.935 54.3186 357.095 54.3442 357.786 55.0782C358.486 55.8123 358.452 56.9731 357.718 57.6644L340.668 73.8218C340.318 74.1632 339.865 74.3253 339.413 74.3253Z" fill="black"/>
<path d="M350.925 88.0501C350.277 88.0501 349.654 87.7087 349.321 87.1027C348.834 86.215 349.15 85.1054 350.038 84.6104L378.6 68.803C379.488 68.3165 380.597 68.6323 381.092 69.52C381.578 70.4076 381.263 71.5172 380.375 72.0123L351.813 87.8196C351.531 87.9818 351.224 88.0501 350.925 88.0501Z" fill="black"/>
<path d="M267.183 104.139H185.106C184.099 104.139 183.271 103.32 183.271 102.304C183.271 101.288 184.09 100.469 185.106 100.469H267.183C268.19 100.469 269.018 101.288 269.018 102.304C269.018 103.32 268.199 104.139 267.183 104.139Z" fill="black"/>
<path d="M372.848 104.139H352.308C351.301 104.139 350.473 103.32 350.473 102.304C350.473 101.288 351.292 100.469 352.308 100.469H372.848C373.855 100.469 374.683 101.288 374.683 102.304C374.683 103.32 373.855 104.139 372.848 104.139Z" fill="black"/>
<path d="M185.114 166.353C184.483 166.353 183.868 166.029 183.527 165.44C183.024 164.56 183.322 163.442 184.193 162.939L266.27 115.423C267.149 114.919 268.267 115.218 268.771 116.089C269.274 116.968 268.976 118.086 268.105 118.589L186.027 166.105C185.737 166.276 185.422 166.353 185.114 166.353Z" fill="black"/>
<path d="M309.605 172.917C308.598 172.917 307.77 172.097 307.77 171.081V144.963C307.77 143.956 308.589 143.128 309.605 143.128C310.62 143.128 311.44 143.948 311.44 144.963V171.081C311.44 172.097 310.62 172.917 309.605 172.917Z" fill="black"/>
<path d="M352.308 188.254C351.676 188.254 351.062 187.93 350.72 187.341L325.213 143.436C324.701 142.565 325 141.438 325.879 140.935C326.749 140.423 327.876 140.721 328.379 141.601L353.886 185.506C354.398 186.377 354.1 187.503 353.221 188.007C352.939 188.169 352.623 188.254 352.308 188.254Z" fill="black"/>
<path d="M377.26 171.525C376.791 171.525 376.33 171.346 375.972 170.996L340.762 135.959C340.045 135.242 340.045 134.089 340.753 133.372C341.47 132.656 342.63 132.656 343.339 133.364L378.549 168.401C379.266 169.118 379.266 170.271 378.558 170.988C378.208 171.346 377.73 171.525 377.26 171.525Z" fill="black"/>
<path d="M380.589 136.496C380.273 136.496 379.949 136.411 379.658 136.24L349.987 118.581C349.116 118.06 348.834 116.942 349.346 116.071C349.867 115.201 350.985 114.919 351.855 115.431L381.527 133.091C382.398 133.611 382.679 134.73 382.167 135.6C381.826 136.172 381.212 136.496 380.589 136.496Z" fill="black"/>
<path d="M261.918 151.006C261.466 151.006 261.014 150.844 260.664 150.511C259.93 149.82 259.896 148.659 260.587 147.925L276.673 130.872C277.364 130.138 278.525 130.103 279.259 130.795C279.993 131.486 280.027 132.647 279.336 133.381L263.249 150.435C262.891 150.819 262.405 151.006 261.918 151.006Z" fill="black"/>
<path d="M263.753 195.424C263.437 195.424 263.121 195.347 262.831 195.177C261.961 194.664 261.662 193.546 262.174 192.676L291.948 141.601C292.46 140.73 293.578 140.431 294.449 140.943C295.319 141.455 295.618 142.574 295.106 143.444L265.332 194.519C264.999 195.1 264.384 195.424 263.753 195.424Z" fill="black"/>
<path d="M374.803 355.751H189.612V287.358C189.612 286.351 190.431 285.523 191.446 285.523C192.453 285.523 193.281 286.342 193.281 287.358V352.089H371.142V259.763C371.142 258.756 371.961 257.928 372.976 257.928C373.983 257.928 374.811 258.747 374.811 259.763V355.751H374.803Z" fill="black"/>
<path d="M312.336 355.751C311.329 355.751 310.501 354.932 310.501 353.916V285.881C310.501 284.874 311.32 284.046 312.336 284.046C313.343 284.046 314.17 284.865 314.17 285.881V353.916C314.17 354.932 313.351 355.751 312.336 355.751Z" fill="black"/>
<path d="M319.299 287.708H184.073V272.191L231.717 223.778H353.75C354.475 223.778 355.098 224.197 355.397 224.811C355.423 224.845 355.448 224.888 355.465 224.922L388.602 282.006C389.114 282.885 388.815 284.003 387.936 284.507C387.066 285.019 385.939 284.72 385.436 283.841L353.733 229.232L319.299 287.708ZM187.734 284.046H317.208L350.541 227.431H233.253L187.734 273.684V284.046Z" fill="black"/>
<path d="M242.7 329.701H202.557V294.22H242.7V329.701ZM206.218 326.04H239.039V297.882H206.218V326.04Z" fill="black"/>
<path d="M292.93 355.982C291.923 355.982 291.095 355.162 291.095 354.146V297.882H265.741V354.155C265.741 355.162 264.922 355.99 263.907 355.99C262.9 355.99 262.072 355.171 262.072 354.155V294.22H294.756V354.155C294.765 355.162 293.945 355.982 292.93 355.982Z" fill="black"/>
<path d="M272.969 331.716C271.962 331.716 271.135 330.896 271.135 329.881V322.668C271.135 321.661 271.954 320.833 272.969 320.833C273.976 320.833 274.804 321.653 274.804 322.668V329.881C274.796 330.896 273.976 331.716 272.969 331.716Z" fill="black"/>
<path d="M263.906 343.913H191.446C190.439 343.913 189.612 343.093 189.612 342.078C189.612 341.07 190.431 340.242 191.446 340.242H263.906C264.913 340.242 265.741 341.062 265.741 342.078C265.741 343.093 264.922 343.913 263.906 343.913Z" fill="black"/>
<path d="M311.414 343.913H293.664C292.657 343.913 291.829 343.093 291.829 342.078C291.829 341.07 292.648 340.242 293.664 340.242H311.414C312.421 340.242 313.249 341.062 313.249 342.078C313.249 343.093 312.429 343.913 311.414 343.913Z" fill="black"/>
<path d="M341.453 248.309H211.936C210.929 248.309 210.101 247.489 210.101 246.474C210.101 245.458 210.92 244.639 211.936 244.639H341.453C342.46 244.639 343.288 245.458 343.288 246.474C343.288 247.489 342.468 248.309 341.453 248.309Z" fill="black"/>
<path d="M332.364 262.938H198.504C197.497 262.938 196.669 262.119 196.669 261.103C196.669 260.096 197.488 259.268 198.504 259.268H332.364C333.371 259.268 334.199 260.087 334.199 261.103C334.191 262.119 333.371 262.938 332.364 262.938Z" fill="black"/>
<path d="M324.419 275.323H186.207C185.2 275.323 184.372 274.504 184.372 273.488C184.372 272.481 185.191 271.653 186.207 271.653H324.411C325.418 271.653 326.246 272.472 326.246 273.488C326.246 274.504 325.426 275.323 324.419 275.323Z" fill="black"/>
<path d="M347.29 237.716H222.33C221.323 237.716 220.495 236.897 220.495 235.881C220.495 234.866 221.315 234.046 222.33 234.046H347.29C348.297 234.046 349.125 234.866 349.125 235.881C349.125 236.897 348.297 237.716 347.29 237.716Z" fill="black"/>
<path d="M260.433 227.44C259.426 227.44 258.598 226.621 258.598 225.605V216.114H242.256V225.605C242.256 226.612 241.437 227.44 240.43 227.44C239.423 227.44 238.595 226.621 238.595 225.605V215.482C238.595 213.809 239.952 212.452 241.625 212.452H259.239C260.911 212.452 262.268 213.809 262.268 215.482V225.605C262.268 226.621 261.449 227.44 260.433 227.44Z" fill="black"/>
<path d="M370.502 256.836H336.913C335.906 256.836 335.078 256.016 335.078 255C335.078 253.993 335.897 253.165 336.913 253.165H370.502C371.509 253.165 372.336 253.985 372.336 255C372.336 256.016 371.517 256.836 370.502 256.836Z" fill="black"/>
<path d="M372.157 270.979H328.976C327.969 270.979 327.142 270.159 327.142 269.143C327.142 268.128 327.961 267.308 328.976 267.308H372.157C373.164 267.308 373.992 268.128 373.992 269.143C373.992 270.159 373.173 270.979 372.157 270.979Z" fill="black"/>
<path d="M372.14 283.739H320.613C319.606 283.739 318.779 282.919 318.779 281.904C318.779 280.888 319.598 280.069 320.613 280.069H372.14C373.147 280.069 373.975 280.888 373.975 281.904C373.975 282.919 373.147 283.739 372.14 283.739Z" fill="black"/>
<path d="M372.157 297.882H313.428C312.421 297.882 311.593 297.062 311.593 296.047C311.593 295.04 312.412 294.212 313.428 294.212H372.157C373.164 294.212 373.992 295.031 373.992 296.047C373.992 297.062 373.173 297.882 372.157 297.882Z" fill="black"/>
<path d="M372.157 310.685H313.428C312.421 310.685 311.593 309.865 311.593 308.85C311.593 307.842 312.412 307.015 313.428 307.015H372.157C373.164 307.015 373.992 307.834 373.992 308.85C373.992 309.865 373.173 310.685 372.157 310.685Z" fill="black"/>
<path d="M372.157 324.503H313.428C312.421 324.503 311.593 323.684 311.593 322.668C311.593 321.653 312.412 320.833 313.428 320.833H372.157C373.164 320.833 373.992 321.653 373.992 322.668C373.992 323.684 373.173 324.503 372.157 324.503Z" fill="black"/>
<path d="M372.157 337.443H313.428C312.421 337.443 311.593 336.623 311.593 335.608C311.593 334.601 312.412 333.773 313.428 333.773H372.157C373.164 333.773 373.992 334.592 373.992 335.608C373.992 336.623 373.173 337.443 372.157 337.443Z" fill="black"/>
<path d="M256.738 210.745C256.388 210.745 256.038 210.643 255.723 210.438C255.373 210.207 247.189 204.6 248.614 192.428C249.092 188.374 250.833 185.011 252.522 181.751C255.808 175.409 258.914 169.417 253.649 157.792C252.318 154.856 249.937 151.988 242.657 147.498C241.796 146.969 241.531 145.843 242.06 144.98C242.589 144.118 243.716 143.845 244.578 144.383C251.575 148.693 255.057 152.031 256.986 156.281C262.985 169.528 259.153 176.92 255.774 183.441C254.17 186.539 252.651 189.466 252.258 192.855C251.089 202.824 257.694 207.348 257.762 207.391C258.607 207.954 258.829 209.089 258.274 209.934C257.907 210.455 257.327 210.745 256.738 210.745Z" fill="black"/>
<path d="M247.18 210.412C246.899 210.412 246.609 210.344 246.335 210.207C245.96 210.011 237.221 205.317 237.341 193.06C237.384 188.792 239.176 184.61 240.908 180.556C244.074 173.156 247.069 166.157 240.533 158.193C238.391 155.581 232.519 153.985 227.868 155.752C223.934 157.246 221.955 160.737 222.151 165.832C222.339 170.595 223.832 173.668 226.358 174.487C228.252 175.102 230.659 174.299 231.965 172.626C232.673 171.722 233.287 170.271 232.195 168.521C231.666 167.659 231.922 166.532 232.784 166.003C233.646 165.465 234.772 165.73 235.301 166.592C236.974 169.28 236.803 172.387 234.849 174.888C232.571 177.799 228.619 179.07 225.231 177.978C222.859 177.21 218.823 174.632 218.49 165.977C218.14 156.904 223.397 153.533 226.563 152.329C232.306 150.153 239.995 151.775 243.366 155.872C251.311 165.559 247.573 174.291 244.27 181.998C242.606 185.882 241.036 189.56 241.002 193.094C240.908 203.038 247.744 206.81 248.034 206.964C248.921 207.442 249.263 208.543 248.793 209.439C248.477 210.054 247.837 210.412 247.18 210.412Z" fill="black"/>
<path d="M362.275 242.897H344.892C343.885 242.897 343.057 242.078 343.057 241.062C343.057 240.047 343.876 239.227 344.892 239.227H362.275C363.282 239.227 364.11 240.047 364.11 241.062C364.11 242.078 363.291 242.897 362.275 242.897Z" fill="black"/>
<path d="M226.52 329.701C225.513 329.701 224.685 328.882 224.685 327.866V296.047C224.685 295.039 225.505 294.212 226.52 294.212C227.527 294.212 228.355 295.031 228.355 296.047V327.866C228.346 328.882 227.527 329.701 226.52 329.701Z" fill="black"/>
<path d="M460.251 143.094C461.481 143.094 462.479 142.097 462.479 140.866C462.479 139.636 461.481 138.639 460.251 138.639C459.021 138.639 458.024 139.636 458.024 140.866C458.024 142.097 459.021 143.094 460.251 143.094Z" fill="black"/>
<path d="M481.398 181.204C482.628 181.204 483.625 180.207 483.625 178.977C483.625 177.746 482.628 176.749 481.398 176.749C480.168 176.749 479.171 177.746 479.171 178.977C479.171 180.207 480.168 181.204 481.398 181.204Z" fill="black"/>
<path d="M377.09 188.852C378.32 188.852 379.317 187.855 379.317 186.624C379.317 185.394 378.32 184.396 377.09 184.396C375.86 184.396 374.862 185.394 374.862 186.624C374.862 187.855 375.86 188.852 377.09 188.852Z" fill="black"/>
<path d="M448.492 131.904C449.453 131.904 450.233 131.125 450.233 130.163C450.233 129.202 449.453 128.422 448.492 128.422C447.53 128.422 446.751 129.202 446.751 130.163C446.751 131.125 447.53 131.904 448.492 131.904Z" fill="black"/>
<path d="M215.64 129.506C216.87 129.506 217.867 128.509 217.867 127.278C217.867 126.048 216.87 125.051 215.64 125.051C214.409 125.051 213.412 126.048 213.412 127.278C213.412 128.509 214.409 129.506 215.64 129.506Z" fill="black"/>
<path d="M213.122 89.0146C214.352 89.0146 215.349 88.0172 215.349 86.7869C215.349 85.5566 214.352 84.5592 213.122 84.5592C211.892 84.5592 210.895 85.5566 210.895 86.7869C210.895 88.0172 211.892 89.0146 213.122 89.0146Z" fill="black"/>
<path d="M241.804 61.2834C243.034 61.2834 244.031 60.286 244.031 59.0557C244.031 57.8254 243.034 56.828 241.804 56.828C240.574 56.828 239.577 57.8254 239.577 59.0557C239.577 60.286 240.574 61.2834 241.804 61.2834Z" fill="black"/>
<path d="M203.88 122.661C204.842 122.661 205.621 121.881 205.621 120.92C205.621 119.958 204.842 119.178 203.88 119.178C202.919 119.178 202.139 119.958 202.139 120.92C202.139 121.881 202.919 122.661 203.88 122.661Z" fill="black"/>
<path d="M436.314 202.03C437.544 202.03 438.541 201.033 438.541 199.803C438.541 198.572 437.544 197.575 436.314 197.575C435.084 197.575 434.087 198.572 434.087 199.803C434.087 201.033 435.084 202.03 436.314 202.03Z" fill="black"/>
<path d="M446.273 190.841C447.234 190.841 448.014 190.061 448.014 189.099C448.014 188.138 447.234 187.358 446.273 187.358C445.311 187.358 444.532 188.138 444.532 189.099C444.532 190.061 445.311 190.841 446.273 190.841Z" fill="black"/>
<path d="M139.245 185.233C140.475 185.233 141.473 184.236 141.473 183.005C141.473 181.775 140.475 180.778 139.245 180.778C138.015 180.778 137.018 181.775 137.018 183.005C137.018 184.236 138.015 185.233 139.245 185.233Z" fill="black"/>
<path d="M127.486 161.01C128.447 161.01 129.227 160.23 129.227 159.269C129.227 158.307 128.447 157.527 127.486 157.527C126.524 157.527 125.745 158.307 125.745 159.269C125.745 160.23 126.524 161.01 127.486 161.01Z" fill="black"/>
<path d="M128.339 222.447C129.569 222.447 130.567 221.449 130.567 220.219C130.567 218.989 129.569 217.991 128.339 217.991C127.109 217.991 126.112 218.989 126.112 220.219C126.112 221.449 127.109 222.447 128.339 222.447Z" fill="black"/>
</svg>
