<svg width="472" height="475" fill="none" xmlns="http://www.w3.org/2000/svg"><ellipse cx="236" cy="215.554" rx="201.868" ry="201.899" fill="#FAFAFA"/><mask id="a" maskUnits="userSpaceOnUse" x="34" y="13" width="404" height="405"><ellipse cx="236" cy="215.554" rx="201.868" ry="201.899" fill="#F5F5F5"/></mask><g mask="url(#a)" fill="#000"><path d="M76.664 342.641c-.872 0-1.59-.71-1.59-1.59V87.462c0-.873.71-1.59 1.59-1.59.88 0 1.589.71 1.589 1.59v253.589c0 .88-.71 1.59-1.59 1.59zM88.962 340.987c-.872 0-1.59-.71-1.59-1.59v-50.242c0-.873.71-1.591 1.59-1.591.88 0 1.589.711 1.589 1.591v50.242c0 .88-.71 1.59-1.59 1.59zM88.962 258.052c-.872 0-1.59-.71-1.59-1.59V206.22c0-.873.71-1.591 1.59-1.591.88 0 1.589.711 1.589 1.591v50.242c0 .88-.71 1.59-1.59 1.59zM88.962 182.812c-.872 0-1.59-.71-1.59-1.591v-50.242c0-.873.71-1.59 1.59-1.59.88 0 1.589.71 1.589 1.59v50.242c0 .881-.71 1.591-1.59 1.591zM100.122 369.028c-.872 0-1.59-.71-1.59-1.59V65.471c0-.873.71-1.59 1.59-1.59.872 0 1.589.71 1.589 1.59v301.967a1.597 1.597 0 01-1.589 1.59zM131.488 391.21a1.593 1.593 0 01-1.589-1.591V38.88c0-.873.71-1.59 1.589-1.59.872 0 1.589.71 1.589 1.59V389.62c0 .873-.709 1.591-1.589 1.591zM142.308 144.193c-.872 0-1.589-.71-1.589-1.591V68.323c0-.873.71-1.59 1.589-1.59.872 0 1.589.71 1.589 1.59v74.279a1.597 1.597 0 01-1.589 1.591zM142.234 242.842a1.593 1.593 0 01-1.589-1.591v-74.272c0-.873.71-1.59 1.589-1.59.872 0 1.589.71 1.589 1.59v74.279c0 .873-.709 1.584-1.589 1.584zM142.234 340.987c-.872 0-1.589-.71-1.589-1.59v-74.279c0-.873.71-1.591 1.589-1.591.872 0 1.589.71 1.589 1.591v74.279c0 .88-.709 1.59-1.589 1.59zM142.234 387.944c-.872 0-1.589-.71-1.589-1.59v-29.083c0-.873.71-1.591 1.589-1.591.872 0 1.589.711 1.589 1.591v29.083c0 .88-.709 1.59-1.589 1.59zM152.212 403.705c-.873 0-1.589-.71-1.589-1.59V27.346c0-.873.709-1.59 1.589-1.59.872 0 1.589.71 1.589 1.59v374.776a1.596 1.596 0 01-1.589 1.583zM337.622 390.867a1.593 1.593 0 01-1.589-1.591V41.446c0-.874.71-1.591 1.589-1.591.88 0 1.589.71 1.589 1.59v347.838c0 .873-.709 1.584-1.589 1.584zM348.442 127.243c-.872 0-1.589-.71-1.589-1.59v-57.33c0-.873.71-1.59 1.589-1.59.88 0 1.589.71 1.589 1.59v57.33a1.596 1.596 0 01-1.589 1.59zM350.253 242.842a1.593 1.593 0 01-1.589-1.591v-74.272c0-.873.709-1.59 1.589-1.59.872 0 1.589.71 1.589 1.59v74.279a1.596 1.596 0 01-1.589 1.584zM348.368 320.272c-.872 0-1.589-.71-1.589-1.591v-53.563c0-.873.71-1.591 1.589-1.591.872 0 1.589.71 1.589 1.591v53.563c0 .881-.709 1.591-1.589 1.591zM348.368 384.216a1.593 1.593 0 01-1.589-1.591V347.89c0-.873.71-1.591 1.589-1.591.872 0 1.589.711 1.589 1.591v34.735c0 .88-.709 1.591-1.589 1.591zM360.223 375.123c-.872 0-1.589-.71-1.589-1.591V52.498c0-.873.71-1.59 1.589-1.59.872 0 1.589.71 1.589 1.59v321.034c0 .881-.709 1.591-1.589 1.591zM115.679 296.198c-.872 0-1.589-.71-1.589-1.591v-76.202c0-.873.71-1.591 1.589-1.591.872 0 1.589.711 1.589 1.591v76.202c0 .881-.717 1.591-1.589 1.591z"/><path d="M124.156 232.269a1.58 1.58 0 01-1.123-.466l-7.376-7.383-7.124 7.132a1.58 1.58 0 01-2.24 0 1.582 1.582 0 010-2.242l9.364-9.374 9.623 9.633a1.582 1.582 0 010 2.242 1.609 1.609 0 01-1.124.458z"/><path d="M124.156 243.47a1.58 1.58 0 01-1.123-.466l-7.376-7.383-7.124 7.132a1.58 1.58 0 01-2.24 0 1.582 1.582 0 010-2.242l9.364-9.374 9.623 9.633a1.582 1.582 0 010 2.242 1.609 1.609 0 01-1.124.458z"/><path d="M124.156 254.671a1.58 1.58 0 01-1.123-.466l-7.376-7.383-7.124 7.132a1.58 1.58 0 01-2.24 0 1.582 1.582 0 010-2.242l9.364-9.373 9.623 9.632a1.582 1.582 0 010 2.242 1.609 1.609 0 01-1.124.458z"/><path d="M124.156 265.732a1.58 1.58 0 01-1.123-.466l-7.376-7.384-7.124 7.132a1.578 1.578 0 01-2.24 0 1.58 1.58 0 010-2.241l9.364-9.374 9.623 9.633a1.58 1.58 0 010 2.241 1.606 1.606 0 01-1.124.459z"/><path d="M124.156 277.214a1.58 1.58 0 01-1.123-.466l-7.376-7.384-7.124 7.132a1.578 1.578 0 01-2.24 0 1.58 1.58 0 010-2.241l9.364-9.374 9.623 9.633a1.58 1.58 0 010 2.241 1.606 1.606 0 01-1.124.459zM172.78 226.188c-.872 0-1.589-.71-1.589-1.591V159.47c0-.873.709-1.59 1.589-1.59.872 0 1.589.71 1.589 1.59v65.127c0 .873-.71 1.591-1.589 1.591z"/><path d="M181.205 196.047a1.58 1.58 0 01-1.123-.466l-7.376-7.383-7.125 7.132a1.578 1.578 0 01-2.239 0 1.582 1.582 0 010-2.242l9.364-9.374 9.623 9.633c.62.621.62 1.628 0 2.242a1.636 1.636 0 01-1.124.458z"/><path d="M181.205 207.256c-.406 0-.813-.156-1.123-.466l-7.376-7.384-7.125 7.132a1.577 1.577 0 01-2.239 0 1.582 1.582 0 010-2.242l9.364-9.373 9.623 9.632c.62.622.62 1.628 0 2.242a1.637 1.637 0 01-1.124.459zM181.205 173.645a1.58 1.58 0 01-1.123-.466l-7.376-7.383-7.125 7.132a1.578 1.578 0 01-2.239 0 1.582 1.582 0 010-2.242l9.364-9.374 9.623 9.633c.62.621.62 1.628 0 2.242a1.636 1.636 0 01-1.124.458z"/><path d="M181.205 184.846a1.58 1.58 0 01-1.123-.466l-7.376-7.383-7.125 7.132a1.578 1.578 0 01-2.239 0 1.582 1.582 0 010-2.242l9.364-9.374 9.623 9.633c.62.621.62 1.628 0 2.242a1.636 1.636 0 01-1.124.458zM164.458 218.198c-.407 0-.813-.156-1.123-.466a1.582 1.582 0 010-2.242l9.364-9.374 5.956 5.963a1.582 1.582 0 010 2.242 1.577 1.577 0 01-2.239 0l-3.717-3.721-7.125 7.132c-.303.318-.71.466-1.116.466zM283.027 197.224a1.593 1.593 0 01-1.589-1.591v-50.397c0-.873.71-1.591 1.589-1.591.872 0 1.589.71 1.589 1.591v50.397a1.597 1.597 0 01-1.589 1.591z"/><path d="M291.445 183.7c-.406 0-.813-.156-1.123-.466l-7.376-7.384-7.125 7.132a1.578 1.578 0 01-2.239 0 1.582 1.582 0 010-2.242l9.364-9.373 9.622 9.632a1.582 1.582 0 010 2.242c-.31.303-.716.459-1.123.459z"/><path d="M291.445 194.901c-.406 0-.813-.156-1.123-.466l-7.376-7.384-7.125 7.132a1.578 1.578 0 01-2.239 0 1.582 1.582 0 010-2.242l9.364-9.373 9.622 9.632a1.582 1.582 0 010 2.242c-.31.303-.716.459-1.123.459zM291.445 161.29a1.58 1.58 0 01-1.123-.466l-7.376-7.383-7.125 7.132a1.578 1.578 0 01-2.239 0 1.582 1.582 0 010-2.242l9.364-9.374 9.622 9.633a1.582 1.582 0 010 2.242c-.31.303-.716.458-1.123.458z"/><path d="M291.445 172.499c-.406 0-.813-.156-1.123-.466l-7.376-7.384-7.125 7.132a1.578 1.578 0 01-2.239 0 1.582 1.582 0 010-2.242l9.364-9.373 9.622 9.632a1.582 1.582 0 010 2.242c-.31.303-.716.459-1.123.459zM252.733 197.224a1.592 1.592 0 01-1.589-1.591v-35.334c0-.873.709-1.591 1.589-1.591.879 0 1.589.71 1.589 1.591v35.334c0 .88-.71 1.591-1.589 1.591z"/><path d="M261.151 183.7c-.407 0-.813-.156-1.124-.466l-7.376-7.384-7.124 7.132a1.58 1.58 0 01-2.24 0 1.582 1.582 0 010-2.242l9.364-9.373 9.623 9.632a1.582 1.582 0 010 2.242c-.31.303-.717.459-1.123.459z"/><path d="M261.151 194.901c-.407 0-.813-.156-1.124-.466l-7.376-7.384-7.124 7.132a1.58 1.58 0 01-2.24 0 1.582 1.582 0 010-2.242l9.364-9.373 9.623 9.632a1.582 1.582 0 010 2.242c-.31.303-.717.459-1.123.459zM261.151 172.499c-.407 0-.813-.156-1.124-.466l-7.376-7.384-7.124 7.132a1.58 1.58 0 01-2.24 0 1.582 1.582 0 010-2.242l9.364-9.373 9.623 9.632a1.582 1.582 0 010 2.242c-.31.303-.717.459-1.123.459zM314.489 210.77c-.872 0-1.589-.71-1.589-1.591v-40.195c0-.873.71-1.59 1.589-1.59.88 0 1.589.71 1.589 1.59v40.195a1.602 1.602 0 01-1.589 1.591z"/><path d="M322.907 209.335c-.406 0-.813-.156-1.123-.466l-7.376-7.384-2.616 2.619a1.578 1.578 0 01-2.24 0 1.582 1.582 0 010-2.242l4.856-4.86 9.623 9.632c.62.622.62 1.628 0 2.242a1.61 1.61 0 01-1.124.459zM322.907 183.16c-.406 0-.813-.156-1.123-.467l-7.376-7.383-7.125 7.132a1.578 1.578 0 01-2.239 0 1.582 1.582 0 010-2.242l9.364-9.373 9.623 9.632a1.582 1.582 0 010 2.242 1.61 1.61 0 01-1.124.459z"/><path d="M322.907 194.361c-.406 0-.813-.156-1.123-.467l-7.376-7.383-7.125 7.132a1.578 1.578 0 01-2.239 0 1.582 1.582 0 010-2.242l9.364-9.373 9.623 9.632a1.582 1.582 0 010 2.242 1.61 1.61 0 01-1.124.459zM405.735 295.636c-.872 0-1.589-.71-1.589-1.591V171.004c0-.873.709-1.59 1.589-1.59.872 0 1.589.71 1.589 1.59v123.049c0 .873-.71 1.583-1.589 1.583z"/><path d="M414.16 224.531c-.406 0-.813-.156-1.123-.466l-7.376-7.384-7.125 7.132a1.577 1.577 0 01-2.239 0 1.582 1.582 0 010-2.242l9.364-9.373 9.623 9.632a1.582 1.582 0 010 2.242 1.637 1.637 0 01-1.124.459zM414.16 198.356c-.406 0-.813-.156-1.123-.466l-7.376-7.384-7.125 7.132a1.578 1.578 0 01-2.239 0 1.582 1.582 0 010-2.242l9.364-9.373 9.623 9.632a1.582 1.582 0 010 2.242 1.637 1.637 0 01-1.124.459zM414.16 185.579c-.406 0-.813-.156-1.123-.466l-7.376-7.384-7.125 7.132a1.577 1.577 0 01-2.239 0 1.582 1.582 0 010-2.242l9.364-9.373 9.623 9.632a1.582 1.582 0 010 2.242 1.637 1.637 0 01-1.124.459z"/><path d="M414.16 210.532a1.58 1.58 0 01-1.123-.466l-7.376-7.384-7.125 7.132a1.577 1.577 0 01-2.239 0 1.58 1.58 0 010-2.241l9.364-9.374 9.623 9.633a1.58 1.58 0 010 2.241 1.632 1.632 0 01-1.124.459zM414.16 239.401a1.58 1.58 0 01-1.123-.466l-7.376-7.383-7.125 7.132a1.578 1.578 0 01-2.239 0 1.582 1.582 0 010-2.242l9.364-9.374 9.623 9.633a1.582 1.582 0 010 2.242 1.636 1.636 0 01-1.124.458zM414.16 252.933c-.406 0-.813-.156-1.123-.466l-7.376-7.384-7.125 7.132a1.577 1.577 0 01-2.239 0 1.58 1.58 0 010-2.241l9.364-9.374 9.623 9.632a1.582 1.582 0 010 2.242 1.637 1.637 0 01-1.124.459zM414.16 266.805c-.406 0-.813-.156-1.123-.466l-7.376-7.384-7.125 7.132a1.578 1.578 0 01-2.239 0 1.582 1.582 0 010-2.242l9.364-9.373 9.623 9.632a1.582 1.582 0 010 2.242 1.637 1.637 0 01-1.124.459zM53.797 295.452c-.872 0-1.59-.71-1.59-1.591V170.029c0-.873.71-1.591 1.59-1.591.88 0 1.589.71 1.589 1.591v123.84c0 .873-.71 1.583-1.59 1.583z"/><path d="M62.215 224.531c-.407 0-.813-.156-1.123-.466l-7.376-7.384-7.125 7.132a1.577 1.577 0 01-2.24 0 1.582 1.582 0 010-2.242l9.365-9.373 9.622 9.632c.621.622.621 1.628 0 2.242-.31.303-.717.459-1.123.459zM62.215 198.356c-.407 0-.813-.156-1.123-.466l-7.376-7.384-7.125 7.132a1.579 1.579 0 01-2.24 0 1.582 1.582 0 010-2.242l9.365-9.373 9.622 9.632c.621.622.621 1.628 0 2.242-.31.303-.717.459-1.123.459zM62.215 185.579c-.407 0-.813-.156-1.123-.466l-7.376-7.384-7.125 7.132a1.577 1.577 0 01-2.24 0 1.582 1.582 0 010-2.242l9.365-9.373 9.622 9.632c.621.622.621 1.628 0 2.242-.31.303-.717.459-1.123.459z"/><path d="M62.215 210.532c-.407 0-.813-.155-1.123-.466l-7.376-7.384-7.125 7.132a1.577 1.577 0 01-2.24 0 1.581 1.581 0 010-2.241l9.365-9.374 9.622 9.633c.621.621.621 1.627 0 2.241-.31.304-.717.459-1.123.459zM62.215 239.401c-.407 0-.813-.155-1.123-.466l-7.376-7.383-7.125 7.132a1.579 1.579 0 01-2.24 0 1.582 1.582 0 010-2.242l9.365-9.374 9.622 9.633c.621.621.621 1.628 0 2.242-.31.303-.717.458-1.123.458zM62.215 252.933c-.407 0-.813-.156-1.123-.466l-7.376-7.384-7.125 7.132a1.577 1.577 0 01-2.24 0 1.581 1.581 0 010-2.241l9.365-9.374 9.622 9.632c.621.622.621 1.628 0 2.242-.31.303-.717.459-1.123.459zM62.215 266.805c-.407 0-.813-.156-1.123-.466l-7.376-7.384-7.125 7.132a1.579 1.579 0 01-2.24 0 1.582 1.582 0 010-2.242l9.365-9.373 9.622 9.632c.621.622.621 1.628 0 2.242-.31.303-.717.459-1.123.459zM377.724 295.347c-.872 0-1.589-.71-1.589-1.59v-91.029c0-.873.71-1.591 1.589-1.591.88 0 1.589.711 1.589 1.591v91.036a1.595 1.595 0 01-1.589 1.583z"/><path d="M386.142 246.837c-.406 0-.813-.156-1.123-.466l-7.376-7.384-7.125 7.132a1.578 1.578 0 01-2.239 0 1.582 1.582 0 010-2.242l9.364-9.373 9.623 9.632c.62.622.62 1.628 0 2.242a1.61 1.61 0 01-1.124.459zM386.142 226.314c-.406 0-.813-.156-1.123-.466l-7.376-7.384-7.125 7.132a1.577 1.577 0 01-2.239 0 1.582 1.582 0 010-2.242l9.364-9.373 9.623 9.632c.62.622.62 1.628 0 2.242a1.61 1.61 0 01-1.124.459z"/><path d="M386.142 216.666a1.58 1.58 0 01-1.123-.466l-7.376-7.383-7.125 7.132a1.578 1.578 0 01-2.239 0 1.582 1.582 0 010-2.242l9.364-9.374 9.623 9.633c.62.621.62 1.628 0 2.242a1.609 1.609 0 01-1.124.458zM386.142 235.636c-.406 0-.813-.156-1.123-.466l-7.376-7.384-7.125 7.132a1.578 1.578 0 01-2.239 0 1.582 1.582 0 010-2.242l9.364-9.373 9.623 9.632c.62.622.62 1.628 0 2.242a1.61 1.61 0 01-1.124.459zM386.142 257.949a1.58 1.58 0 01-1.123-.466l-7.376-7.384-7.125 7.132a1.577 1.577 0 01-2.239 0 1.587 1.587 0 010-2.241l9.364-9.374 9.622 9.633a1.58 1.58 0 01-1.123 2.7z"/><path d="M386.142 267.707a1.58 1.58 0 01-1.123-.466l-7.376-7.383-7.125 7.132a1.578 1.578 0 01-2.239 0 1.582 1.582 0 010-2.242l9.364-9.374 9.623 9.633c.62.621.62 1.627 0 2.242a1.609 1.609 0 01-1.124.458z"/><path d="M386.142 277.813a1.58 1.58 0 01-1.123-.466l-7.376-7.383-7.125 7.132a1.578 1.578 0 01-2.239 0 1.588 1.588 0 010-2.242l9.364-9.374 9.622 9.633a1.582 1.582 0 010 2.242c-.31.303-.716.458-1.123.458zM76.028 296.198H49.052a1.592 1.592 0 010-3.181h26.976c.872 0 1.59.71 1.59 1.59a1.597 1.597 0 01-1.59 1.591zM131.015 295.947h-30.501c-.873 0-1.59-.711-1.59-1.591 0-.881.71-1.591 1.59-1.591h30.508c.872 0 1.589.71 1.589 1.591 0 .88-.717 1.591-1.596 1.591zM165.419 295.947h-13.207a1.592 1.592 0 010-3.182h13.207a1.592 1.592 0 010 3.182zM336.743 295.947h-13.207a1.592 1.592 0 010-3.182h13.207a1.592 1.592 0 010 3.182zM411.64 295.947h-50.826a1.593 1.593 0 01-1.589-1.591c0-.881.71-1.591 1.589-1.591h50.833a1.591 1.591 0 11-.007 3.182z"/><path d="M422.645 295.947h-11.33a1.593 1.593 0 01-1.589-1.591c0-.881.709-1.591 1.589-1.591h11.33a1.592 1.592 0 010 3.182zM161.974 406.52c-.732 0-1.39-.511-1.552-1.258a1.589 1.589 0 011.219-1.887c9.534-2.042 32.239-22.873 32.439-23.058l.133-.111c38.062-29.046 33.007-72.2 32.948-72.637a1.583 1.583 0 011.367-1.775 1.578 1.578 0 011.774 1.368c.059.466 1.411 11.497-2.099 26.39-3.237 13.724-11.419 33.381-32.002 49.117-1.485 1.406-23.681 21.616-33.895 23.806a1.03 1.03 0 01-.332.045zM246.727 366.735a1.585 1.585 0 01-1.47-2.19c14.131-34.402 7.387-56.376 7.313-56.569a1.593 1.593 0 01.865-2.071 1.59 1.59 0 012.069.858c.34.828 7.379 23.254-7.306 58.988a1.584 1.584 0 01-1.471.984zM122.774 320.716h-15.357a1.591 1.591 0 010-3.181h15.357c.872 0 1.589.71 1.589 1.59a1.597 1.597 0 01-1.589 1.591zM211.064 320.716h-34.167c-.873 0-1.59-.71-1.59-1.591 0-.873.71-1.59 1.59-1.59h34.167c.872 0 1.589.71 1.589 1.59 0 .881-.71 1.591-1.589 1.591z"/><path d="M190.651 368.391h-22.882a1.593 1.593 0 01-1.589-1.591c0-.873.71-1.591 1.589-1.591h22.882c.872 0 1.589.711 1.589 1.591s-.71 1.591-1.589 1.591zM166.956 320.716h-5.957c-.872 0-1.589-.71-1.589-1.591 0-.873.71-1.59 1.589-1.59h5.957c.872 0 1.589.71 1.589 1.59a1.597 1.597 0 01-1.589 1.591zM187.598 341.927h-5.957c-.872 0-1.589-.71-1.589-1.591 0-.873.71-1.59 1.589-1.59h5.957c.872 0 1.589.71 1.589 1.59 0 .881-.709 1.591-1.589 1.591zM208.92 341.949h-13.48a1.591 1.591 0 010-3.181h13.48c.873 0 1.589.71 1.589 1.59a1.596 1.596 0 01-1.589 1.591zM179.875 380.169h-5.957a1.593 1.593 0 01-1.589-1.591c0-.88.71-1.591 1.589-1.591h5.957c.872 0 1.589.711 1.589 1.591s-.717 1.591-1.589 1.591zM215.506 331.251h-51.1c-.872 0-1.589-.71-1.589-1.59 0-.873.71-1.591 1.589-1.591h51.1c.872 0 1.589.71 1.589 1.591 0 .88-.71 1.59-1.589 1.59zM201.663 356.701h-39.814c-.872 0-1.589-.71-1.589-1.59 0-.873.71-1.591 1.589-1.591h39.814c.872 0 1.589.71 1.589 1.591a1.597 1.597 0 01-1.589 1.59zM118.931 338.664h-7.834c-.872 0-1.589-.71-1.589-1.59 0-.881.71-1.591 1.589-1.591h7.834c.872 0 1.589.71 1.589 1.591 0 .88-.717 1.59-1.589 1.59zM223.124 422.609c-.873 0-1.589-.71-1.589-1.59v-23.47l.643-.474c.133-.096.303-.214.509-.355 1.73-1.161 5.329-3.573 3.452-9.462-1.811-5.675-.961-9.995-.82-10.639 1.581-9.78 12.379-11.933 17.915-11.704h22.918l9.645-13.679a1.586 1.586 0 112.594 1.827l-10.598 15.026H243.16c-.599-.022-13.23-.407-14.723 9.085l-.029.133c-.007.03-.887 3.862.739 8.989 2.483 7.813-2.439 11.527-4.457 12.895v21.835a1.552 1.552 0 01-1.566 1.583zM280.047 418.708c-.133 0-.274-.015-.414-.052a1.596 1.596 0 01-1.123-1.946l3.968-14.848-2.076-16.099.495-.547c2.86-3.129 2.439-11.046 2.076-12.784-.325-1.554-1.005-6.496-.288-8.641.599-1.806 2.89-4.735 3.149-5.068a1.576 1.576 0 012.224-.259c.688.547.806 1.539.259 2.227-.85 1.072-2.313 3.137-2.631 4.098-.34 1.029-.074 4.809.384 6.984.318 1.51 1.146 10.35-2.35 14.989l1.973 15.307-4.131 15.455a1.553 1.553 0 01-1.515 1.184z"/><path d="M274.984 418.708a1.586 1.586 0 01-1.545-1.946l3.178-13.709-4.685-14.389a1.58 1.58 0 011.02-1.998 1.576 1.576 0 011.995 1.021l4.959 15.233-3.377 14.567a1.588 1.588 0 01-1.545 1.221zM268.916 418.708a1.58 1.58 0 01-1.574-1.428l-2.697-26.153a1.579 1.579 0 011.411-1.738 1.58 1.58 0 011.737 1.413l2.698 26.153a1.58 1.58 0 01-1.412 1.738c-.052.015-.111.015-.163.015z"/><path d="M273.499 418.279c-.873 0-1.589-.71-1.589-1.591v-24.259c0-.873.709-1.59 1.589-1.59.879 0 1.589.71 1.589 1.59v24.259c0 .881-.71 1.591-1.589 1.591zM282.072 387.879a1.58 1.58 0 01-1.508-1.102l-.591-1.857a1.588 1.588 0 011.027-1.997 1.581 1.581 0 011.996 1.028l.591 1.857a1.588 1.588 0 01-1.515 2.071z"/><path d="M228.009 418.708c-.059 0-.118 0-.185-.007a1.588 1.588 0 01-1.397-1.754c.185-1.598 1.781-15.618 2.04-16.964l.214-1.088 1.094-.177c8.95-1.435 12.668-11.564 12.705-11.667l.451-1.273 13.148 2.427c9.393 1.738 17.87.806 17.952.792a1.58 1.58 0 011.751 1.398 1.581 1.581 0 01-1.397 1.753c-.362.045-9.038.999-18.89-.828l-10.561-1.954c-1.36 2.997-5.447 10.365-13.511 12.252-.369 2.826-1.256 10.446-1.855 15.677a1.559 1.559 0 01-1.559 1.413z"/><path d="M241.312 418.501a1.586 1.586 0 01-1.567-1.384c-.022-.148-1.899-14.508-2.21-16.527l-.207-1.303 1.242-.443c6.26-2.227 7.62-10.728 7.635-10.809a1.585 1.585 0 113.133.473c-.059.4-1.507 9.44-8.492 12.821.562 4.018 1.974 14.849 2.048 15.374a1.59 1.59 0 01-1.368 1.783c-.081.007-.147.015-.214.015zM236.907 418.501a1.598 1.598 0 01-1.515-1.11l-4.582-14.582.133-3.218a1.568 1.568 0 011.648-1.517 1.586 1.586 0 011.515 1.65l-.111 2.663 4.42 14.05a1.582 1.582 0 01-1.508 2.064zM279.515 354.543c-3.105 0-5.632-2.531-5.632-5.638a5.642 5.642 0 015.632-5.637c1.359 0 2.675.495 3.702 1.391.658.577.725 1.575.156 2.241a1.589 1.589 0 01-2.24.156 2.462 2.462 0 00-4.08 1.857 2.462 2.462 0 002.462 2.463c.872 0 1.589.71 1.589 1.591 0 .865-.71 1.576-1.589 1.576z"/><path d="M293.173 363.339c-.348 0-.717-.029-1.116-.089-3.208-.48-5.743-2.152-5.854-2.226a1.596 1.596 0 01-.443-2.205 1.59 1.59 0 012.202-.444c.015.015 2.077 1.354 4.56 1.731.739.111 1.22.03 1.523-.096-.082-.178-.155-.363-.237-.547-.399-.91-.842-1.931-1.33-3.108-.2-.488-.37-.947-.532-1.405-.451-1.251-.88-2.442-2.188-4.417-1.367-2.072-3.148-4.454-4.737-4.469h-.045c-1.337 0-1.869.548-1.892.577-.547.688-1.522.777-2.209.23-.688-.548-.784-1.569-.237-2.257.14-.177 1.456-1.724 4.338-1.724h.074c3.06.03 5.344 2.849 7.354 5.897 1.515 2.293 2.032 3.721 2.528 5.09.147.414.295.828.48 1.272a119.08 119.08 0 001.301 3.034c.244.562.473 1.08.68 1.561l.258.621-.266.622c-.406.954-1.714 2.352-4.212 2.352z"/><path d="M291.768 346.079c-3.725 0-7.279-.052-9.563-.2l-.311-.022-.28-.133c-11.803-5.734-14.316-16.587-14.412-17.046a1.59 1.59 0 011.204-1.894c.85-.192 1.7.348 1.892 1.206.023.096 2.292 9.67 12.424 14.745 6.016.355 20.443.067 23.739-.007l3.4-3.751a1.586 1.586 0 112.35 2.13l-4.309 4.757-.68.015c-.495.015-8.285.2-15.454.2z"/><path d="M271.185 335.633c-.369 0-.746-.134-1.049-.392a1.586 1.586 0 01-.141-2.242l5.019-5.712a1.58 1.58 0 012.239-.14c.658.577.724 1.583.14 2.241l-5.018 5.712a1.58 1.58 0 01-1.19.533zM278.805 343.837c-.495 0-.983-.236-1.293-.673a1.58 1.58 0 01.377-2.212c.768-.547.946-3.522.591-5.815a1.588 1.588 0 011.323-1.813 1.598 1.598 0 011.811 1.325c.177 1.139.909 6.902-1.892 8.892-.281.2-.599.296-.917.296zM289.033 345.879c-.872 0-1.589-.71-1.589-1.59v-14.42c0-.873.709-1.59 1.589-1.59.879 0 1.589.71 1.589 1.59v14.42a1.597 1.597 0 01-1.589 1.59z"/><path d="M289.284 338.673c-.872 0-1.582-.71-1.589-1.583a1.59 1.59 0 011.574-1.591c.348-.007 3.356-.14 4.058-3.092a1.596 1.596 0 011.914-1.176 1.595 1.595 0 011.175 1.916c-1.035 4.365-5.114 5.526-7.132 5.526.007 0 .007 0 0 0zM300.305 343.837c-.496 0-.983-.229-1.294-.658l-2.631-3.677a1.583 1.583 0 112.572-1.85l2.631 3.677c.51.711.348 1.702-.362 2.212-.273.2-.599.296-.916.296z"/><path d="M297.991 345.879c-.399 0-.798-.148-1.108-.451a1.583 1.583 0 01-.03-2.242l7.324-7.531a1.579 1.579 0 012.24-.03c.628.614.643 1.62.029 2.242l-7.324 7.531a1.561 1.561 0 01-1.131.481zM222.961 388.937c-.872 0-1.589-.71-1.589-1.59v-5.919c0-4.505 3.481-6.422 5.329-6.806a1.59 1.59 0 011.877 1.228 1.59 1.59 0 01-1.22 1.872c-.295.066-2.808.732-2.808 3.699v5.918a1.59 1.59 0 01-1.589 1.598zM318.887 368.391h-16.38a1.593 1.593 0 01-1.589-1.591c0-.873.71-1.591 1.589-1.591h16.38c.872 0 1.589.711 1.589 1.591a1.598 1.598 0 01-1.589 1.591zM327.526 320.716h-39.089c-.872 0-1.589-.71-1.589-1.591 0-.873.71-1.59 1.589-1.59h39.089a1.591 1.591 0 010 3.181zM329.537 330.408H316.78c-.872 0-1.589-.71-1.589-1.591 0-.873.71-1.59 1.589-1.59h12.757c.872 0 1.589.71 1.589 1.59a1.597 1.597 0 01-1.589 1.591zM327.238 356.701h-12.749c-.872 0-1.589-.71-1.589-1.59 0-.873.71-1.591 1.589-1.591h12.749c.872 0 1.589.71 1.589 1.591 0 .88-.709 1.59-1.589 1.59zM325.664 379.932H308.31a1.591 1.591 0 010-3.181h17.354c.872 0 1.589.71 1.589 1.59 0 .881-.709 1.591-1.589 1.591zM393.171 320.716h-20.975a1.591 1.591 0 010-3.181h20.975c.872 0 1.589.71 1.589 1.59a1.597 1.597 0 01-1.589 1.591zM382.321 331.251h-11.566c-.872 0-1.589-.71-1.589-1.59 0-.873.709-1.591 1.589-1.591h11.566c.872 0 1.589.71 1.589 1.591 0 .88-.709 1.59-1.589 1.59zM268.135 116.109c-15.107 0-27.398-12.304-27.398-27.426 0-15.122 12.291-27.425 27.398-27.425 15.106 0 27.397 12.303 27.397 27.425.007 15.122-12.283 27.426-27.397 27.426zm0-51.685c-13.363 0-24.227 10.883-24.227 24.252 0 13.376 10.872 24.252 24.227 24.252s24.226-10.883 24.226-24.252c.008-13.369-10.864-24.252-24.226-24.252zM233.081 76.32c-.133 0-.266-.014-.407-.051l-68.438-18.03a1.585 1.585 0 01-1.131-1.938 1.583 1.583 0 011.937-1.132L233.48 73.2a1.585 1.585 0 011.131 1.938 1.577 1.577 0 01-1.53 1.184zM240.76 64.424c-.407 0-.813-.155-1.124-.466l-27.855-28.002a1.584 1.584 0 112.246-2.234l27.856 28.002a1.582 1.582 0 01-1.123 2.7zM253.25 56.13c-.54 0-1.064-.273-1.36-.769l-10.923-18.266a1.583 1.583 0 01.546-2.175 1.58 1.58 0 012.173.547l10.924 18.267a1.582 1.582 0 01-1.36 2.397zM268.135 53.726c-.872 0-1.589-.71-1.589-1.59V34.83c0-.873.709-1.59 1.589-1.59.879 0 1.589.71 1.589 1.59v17.305c0 .88-.71 1.59-1.589 1.59zM281.342 56.13a1.587 1.587 0 01-1.382-2.367l9.127-16.106a1.585 1.585 0 112.757 1.561l-9.127 16.106a1.567 1.567 0 01-1.375.807zM293.951 64.424c-.422 0-.843-.162-1.153-.495a1.582 1.582 0 01.059-2.242l14.766-14.005a1.586 1.586 0 012.181 2.3l-14.767 14.006a1.542 1.542 0 01-1.086.436zM303.921 76.32a1.58 1.58 0 01-1.39-.82 1.593 1.593 0 01.621-2.16l24.737-13.702a1.59 1.59 0 011.537 2.781l-24.737 13.702c-.244.14-.51.2-.768.2zM231.396 90.267h-71.084c-.872 0-1.589-.71-1.589-1.591 0-.88.709-1.59 1.589-1.59h71.084c.872 0 1.589.71 1.589 1.59 0 .88-.71 1.59-1.589 1.59zM322.907 90.267h-17.789c-.872 0-1.589-.71-1.589-1.591 0-.88.709-1.59 1.589-1.59h17.789c.872 0 1.589.71 1.589 1.59 0 .88-.717 1.59-1.589 1.59zM160.319 144.193a1.58 1.58 0 01-1.374-.792 1.591 1.591 0 01.576-2.168l71.084-41.186a1.587 1.587 0 012.165.577 1.591 1.591 0 01-.576 2.168l-71.084 41.186a1.553 1.553 0 01-.791.215zM268.135 149.882c-.872 0-1.589-.71-1.589-1.591v-22.638c0-.873.709-1.591 1.589-1.591.879 0 1.589.71 1.589 1.591v22.638c0 .881-.71 1.591-1.589 1.591zM305.118 163.177a1.584 1.584 0 01-1.375-.792l-22.091-38.057a1.58 1.58 0 01.577-2.167 1.576 1.576 0 012.165.577l22.091 38.056a1.58 1.58 0 01-.576 2.168 1.586 1.586 0 01-.791.215zM326.728 148.676c-.406 0-.805-.155-1.116-.459l-30.494-30.37a1.584 1.584 0 012.232-2.249l30.494 30.37a1.59 1.59 0 01.008 2.242 1.57 1.57 0 01-1.124.466zM329.611 118.314c-.274 0-.555-.074-.806-.222l-25.697-15.308a1.592 1.592 0 01-.555-2.175 1.588 1.588 0 012.173-.554l25.698 15.307c.754.451.997 1.42.554 2.175a1.6 1.6 0 01-1.367.777zM226.836 130.891a1.57 1.57 0 01-1.087-.429 1.59 1.59 0 01-.066-2.242l13.931-14.782a1.585 1.585 0 012.306 2.175l-13.931 14.782a1.568 1.568 0 01-1.153.496zM228.425 169.391c-.274 0-.547-.066-.799-.214a1.587 1.587 0 01-.569-2.168l25.786-44.271a1.582 1.582 0 012.166-.57 1.586 1.586 0 01.569 2.168l-25.786 44.271a1.572 1.572 0 01-1.367.784zM324.6 308.361H164.214v-59.283c0-.873.71-1.59 1.589-1.59.872 0 1.589.71 1.589 1.59v56.109h154.037V225.16c0-.873.71-1.591 1.589-1.591.872 0 1.589.71 1.589 1.591v83.201h-.007z"/><path d="M270.5 308.361c-.872 0-1.589-.71-1.589-1.591v-58.972c0-.873.709-1.59 1.589-1.59.872 0 1.589.71 1.589 1.59v58.972c0 .881-.71 1.591-1.589 1.591z"/><path d="M276.531 249.382H159.417v-13.45l41.263-41.964h105.687a1.58 1.58 0 011.426.896.578.578 0 01.059.096l25.485 43.875a1.578 1.578 0 01-.577 2.168 1.576 1.576 0 01-2.165-.577l-24.243-41.73-29.821 50.686zm-113.943-3.174H274.72l28.868-49.073H202.01l-39.422 40.091v8.982zM210.192 285.781h-34.766v-30.754h34.766v30.754zm-31.596-3.174h28.425V258.2h-28.425v24.407zM253.693 308.561a1.593 1.593 0 01-1.589-1.591V258.2h-21.958v48.777c0 .873-.709 1.591-1.588 1.591-.873 0-1.589-.71-1.589-1.591v-51.95h28.306v51.95a1.576 1.576 0 01-1.582 1.584z"/><path d="M236.407 287.527c-.873 0-1.589-.71-1.589-1.59v-6.252c0-.873.709-1.591 1.589-1.591.872 0 1.588.711 1.588 1.591v6.252a1.596 1.596 0 01-1.588 1.59zM228.558 298.099h-62.755c-.872 0-1.589-.71-1.589-1.59 0-.873.71-1.591 1.589-1.591h62.755c.872 0 1.589.71 1.589 1.591 0 .88-.71 1.59-1.589 1.59zM269.702 298.099h-15.373c-.872 0-1.589-.71-1.589-1.59 0-.873.709-1.591 1.589-1.591h15.373c.872 0 1.589.71 1.589 1.591 0 .88-.71 1.59-1.589 1.59zM293.767 217.182H181.598c-.872 0-1.589-.71-1.589-1.591 0-.88.709-1.59 1.589-1.59h112.169c.872 0 1.589.71 1.589 1.59 0 .881-.71 1.591-1.589 1.591zM287.846 227.912H171.915c-.872 0-1.589-.71-1.589-1.591 0-.873.71-1.59 1.589-1.59h115.931c.872 0 1.589.71 1.589 1.59a1.597 1.597 0 01-1.589 1.591zM280.965 238.647h-119.7a1.592 1.592 0 010-3.182h119.693c.872 0 1.589.711 1.589 1.591 0 .881-.71 1.591-1.582 1.591zM300.772 206.05H192.55c-.872 0-1.589-.71-1.589-1.591 0-.88.71-1.59 1.589-1.59h108.222c.872 0 1.589.71 1.589 1.59 0 .881-.717 1.591-1.589 1.591zM225.55 197.142c-.873 0-1.589-.71-1.589-1.59v-8.227h-14.154v8.227a1.59 1.59 0 01-1.581 1.59c-.872 0-1.589-.71-1.589-1.59v-8.775a2.625 2.625 0 012.623-2.626h15.255a2.626 2.626 0 012.624 2.626v8.775c0 .88-.71 1.59-1.589 1.59zM320.875 222.637h-29.09c-.872 0-1.589-.71-1.589-1.59 0-.873.71-1.591 1.589-1.591h29.09c.872 0 1.589.71 1.589 1.591 0 .88-.71 1.59-1.589 1.59zM322.309 235.317h-37.397c-.872 0-1.589-.71-1.589-1.591 0-.88.709-1.59 1.589-1.59h37.397c.872 0 1.589.71 1.589 1.59 0 .881-.71 1.591-1.589 1.591zM322.294 247.996h-44.625c-.872 0-1.589-.71-1.589-1.59 0-.881.709-1.591 1.589-1.591h44.625c.872 0 1.589.71 1.589 1.591 0 .88-.717 1.59-1.589 1.59zM322.309 260.676h-50.863c-.872 0-1.589-.71-1.589-1.591 0-.872.709-1.59 1.589-1.59h50.863c.872 0 1.589.71 1.589 1.59 0 .881-.71 1.591-1.589 1.591zM322.309 273.356h-50.863a1.591 1.591 0 010-3.181h50.863c.872 0 1.589.71 1.589 1.59 0 .881-.71 1.591-1.589 1.591zM322.309 286.035h-50.863c-.872 0-1.589-.71-1.589-1.59 0-.881.709-1.591 1.589-1.591h50.863c.872 0 1.589.71 1.589 1.591 0 .88-.71 1.59-1.589 1.59z"/><path d="M322.309 297.972h-50.863c-.872 0-1.589.033-1.589-.847 0-.873.709-2.079 1.589-2.079h50.659c.872 0 1.793 1.198 1.793 2.079 0 .88-.71.847-1.589.847zM222.349 182.671c-.303 0-.606-.089-.879-.266-.303-.2-7.391-5.061-6.157-15.61.414-3.515 1.922-6.43 3.385-9.256 2.846-5.497 5.536-10.69.976-20.767-1.153-2.545-3.215-5.031-9.519-8.922a1.586 1.586 0 01-.518-2.183 1.576 1.576 0 012.181-.517c6.06 3.736 9.075 6.628 10.746 10.313 5.195 11.482 1.877 17.889-1.05 23.541-1.389 2.686-2.705 5.223-3.045 8.16-1.012 8.642 4.708 12.563 4.767 12.6.732.488.924 1.472.444 2.204a1.635 1.635 0 01-1.331.703z"/><path d="M214.072 182.383c-.244 0-.495-.059-.732-.178-.325-.17-7.893-4.239-7.79-14.863.037-3.699 1.589-7.324 3.09-10.839 2.742-6.414 5.336-12.48-.326-19.383-1.855-2.264-6.939-3.647-10.967-2.116-3.408 1.295-5.122 4.321-4.952 8.737.162 4.129 1.456 6.792 3.643 7.502 1.641.533 3.725-.162 4.856-1.613.614-.784 1.146-2.041.2-3.558a1.584 1.584 0 01.51-2.183 1.574 1.574 0 012.18.511c1.448 2.33 1.301 5.023-.392 7.191-1.973 2.523-5.395 3.625-8.329 2.678-2.055-.666-5.551-2.9-5.839-10.402-.303-7.864 4.25-10.786 6.992-11.83 4.974-1.886 11.633-.481 14.552 3.071 6.881 8.397 3.644 15.965.784 22.646-1.442 3.366-2.802 6.555-2.831 9.618-.081 8.619 5.839 11.889 6.09 12.022a1.596 1.596 0 01.658 2.145 1.573 1.573 0 01-1.397.844zM313.75 210.541h-15.055a1.593 1.593 0 01-1.589-1.591c0-.88.71-1.591 1.589-1.591h15.055c.872 0 1.589.711 1.589 1.591s-.709 1.591-1.589 1.591zM196.179 285.781c-.872 0-1.589-.71-1.589-1.59V256.61c0-.873.709-1.591 1.589-1.591.872 0 1.589.71 1.589 1.591v27.581a1.597 1.597 0 01-1.589 1.59zM398.603 124.032a1.93 1.93 0 000-3.862 1.93 1.93 0 000 3.862zM416.917 157.066a1.93 1.93 0 000-3.862 1.93 1.93 0 000 3.862zM326.581 163.695a1.93 1.93 0 000-3.862 1.93 1.93 0 00-1.929 1.931 1.93 1.93 0 001.929 1.931zM388.419 114.333c.832 0 1.507-.675 1.507-1.509a1.508 1.508 0 10-1.507 1.509zM186.756 112.254a1.93 1.93 0 000-3.862 1.93 1.93 0 00-1.929 1.931 1.93 1.93 0 001.929 1.931zM184.576 77.157a1.93 1.93 0 10-.002-3.86 1.93 1.93 0 00.002 3.86zM209.416 53.12a1.93 1.93 0 000-3.862 1.93 1.93 0 00-1.929 1.93 1.93 1.93 0 001.929 1.932zM176.571 106.321a1.509 1.509 0 10-.001-3.017 1.509 1.509 0 00.001 3.017zM377.872 175.118a1.93 1.93 0 000-3.862 1.93 1.93 0 000 3.862zM386.497 165.418a1.508 1.508 0 100-3.016 1.508 1.508 0 000 3.016zM120.594 160.558a1.93 1.93 0 001.929-1.931 1.93 1.93 0 10-3.858 0 1.93 1.93 0 001.929 1.931zM110.41 139.561a1.509 1.509 0 10-.001-3.017 1.509 1.509 0 00.001 3.017zM111.149 192.814a1.93 1.93 0 000-3.862 1.93 1.93 0 00-1.929 1.931 1.93 1.93 0 001.929 1.931z"/></g></svg>